<?xml version="1.0" encoding="UTF-8"?>
<svg width="128px" height="82px" viewBox="0 0 128 82" version="1.1" xmlns="http://www.w3.org/2000/svg" xmlns:xlink="http://www.w3.org/1999/xlink">
    <!-- Generator: Sketch 52.4 (67378) - http://www.bohemiancoding.com/sketch -->
    <title>Group 2</title>
    <desc>Created with Sketch.</desc>
    <g id="Page-1" stroke="none" stroke-width="1" fill="none" fill-rule="evenodd">
        <g id="Home" transform="translate(-57.000000, -15.000000)">
            <g id="Group-2" transform="translate(57.000000, 15.000000)">
                <g id="mayaonline-logo-copy" transform="translate(0.749892, 64.013822)" fill="#FFFFFF" fill-rule="nonzero">
                    <polygon id="Shape" points="28.843 1.12598 35.3171 16.6524 33.6621 16.6524 28.843 4.85828 23.9753 16.6524 22.3203 16.6524"></polygon>
                    <path d="M39.5537,9.33704 L38.5801,7.84412 L41.5008,3.21606 L43.2531,3.21606 L39.5537,9.33704 Z M39.2129,9.88445 L39.2129,16.6524 L37.6066,16.6524 L37.6066,9.88445 L32.3008,1.12598 L34.1505,1.12598 L39.2129,9.88445 Z" id="Shape"></path>
                    <polygon id="Shape" points="48.0227 1.12598 54.4968 16.6524 52.8418 16.6524 48.0227 4.85828 43.1063 16.6524 41.5 16.6524"></polygon>
                    <polygon id="Shape" points="42.6652 1.12598 41.7891 2.71842 43.6388 2.71842 44.5637 1.12598"></polygon>
                    <path d="M21.9303,8.64044 C21.8329,7.99351 21.6869,7.39633 21.4922,6.79916 C21.0054,5.35601 20.1779,4.01238 19.0583,2.96733 C18.3768,2.3204 17.598,1.773 16.7218,1.32512 C16.6245,1.27536 16.5271,1.27536 16.4297,1.32512 L15.4562,1.773 C14.8234,2.07158 14.1906,2.41993 13.6065,2.81804 C12.925,3.26592 12.2922,3.76356 11.6594,4.2612 L11.1239,4.65932 C11.0266,4.75884 10.9292,4.75884 10.8319,4.65932 C10.5885,4.46026 10.3938,4.31097 10.1504,4.11191 C8.98214,3.16639 7.71653,2.37017 6.40225,1.67347 L5.57475,1.27536 C5.47739,1.2256 5.38003,1.2256 5.28268,1.27536 C5.234,1.32512 5.18532,1.32512 5.13664,1.37489 C4.7959,1.57394 4.45516,1.72323 4.1631,1.97205 C3.57897,2.37017 3.04353,2.81804 2.55676,3.36545 C1.97263,4.01238 1.43718,4.70908 1.04776,5.5053 C0.414959,6.79917 0.0742188,8.24233 0.0742188,9.73525 C0.0742188,10.1831 0.0742217,10.6808 0.122899,11.1286 C0.171576,11.5268 0.220247,11.9746 0.268924,12.3727 C0.414956,13.2187 0.707028,13.9652 1.14512,14.7117 C1.53454,15.3586 1.92395,16.0055 2.31337,16.6524 L5.08797,16.6524 L4.94193,16.1548 C4.60119,15.2093 4.30914,14.2638 4.06575,13.2685 C3.91972,12.7211 3.82236,12.1737 3.725,11.5765 C3.67633,11.2282 3.62766,10.8798 3.62766,10.5315 C3.62766,10.3324 3.62766,10.1831 3.62766,9.98407 C3.62766,9.63572 3.67633,9.28737 3.725,8.93902 C3.725,8.59067 3.77369,8.19256 3.87105,7.84421 C4.01708,7.29681 4.35781,6.79917 4.74723,6.40106 C5.234,5.95318 5.81813,5.70436 6.49961,5.60483 C6.98638,5.55507 7.47314,5.70436 7.81388,6.00294 C8.10595,6.25176 8.34934,6.55035 8.49537,6.8987 C8.73876,7.39634 8.88479,7.89398 8.98215,8.39162 C9.12818,9.08832 9.22553,9.83477 9.22553,10.5315 C9.22553,11.0291 9.22553,11.5268 9.22553,12.0742 C9.22553,12.5718 9.22553,13.1192 9.22553,13.6666 C9.22553,14.214 9.22553,16.0553 9.12817,16.5529 C9.12817,16.6524 9.12818,16.6524 9.22553,16.6524 L12.9737,16.6524 C13.0223,16.6524 13.0223,16.6525 13.0223,16.6027 L13.0223,16.5529 C12.9737,16.2543 12.9737,14.6121 12.9737,14.3135 C12.925,13.7661 12.925,13.2187 12.8763,12.6713 C12.8763,11.9746 12.8763,11.2779 12.8763,10.5812 C12.8763,9.9343 12.925,9.23761 13.0223,8.59067 C13.1197,8.1428 13.2171,7.64516 13.3631,7.24705 C13.5091,6.79917 13.7525,6.45082 14.0446,6.10247 C14.3853,5.75412 14.8721,5.55506 15.3588,5.55506 C15.6509,5.55506 15.8943,5.60483 16.1864,5.70436 C16.7705,5.90341 17.3059,6.25176 17.6954,6.7494 C18.0848,7.24705 18.3282,7.84421 18.3768,8.44138 C18.4255,8.88926 18.4742,9.3869 18.5229,9.88454 C18.5229,10.0836 18.5229,10.2827 18.5229,10.4817 C18.5229,10.9296 18.4255,11.3775 18.3768,11.8253 C18.2308,12.6713 17.9874,13.5173 17.744,14.3135 C17.5006,15.1098 17.2086,15.906 16.9652,16.7022 L19.6911,16.7022 C20.0319,16.1548 20.3726,15.5576 20.7133,15.0102 C21.2001,14.214 21.4922,13.368 21.6869,12.4723 C21.8329,11.7756 21.8816,11.0789 21.9303,10.3822 C21.9789,9.78501 21.9789,9.18784 21.9303,8.64044 Z" id="Shape"></path>
                    <path d="M63.0618,2.12134 C62.3803,2.1711 61.7475,2.37016 61.1634,2.61898 C60.4332,2.96733 59.7518,3.46497 59.2163,4.06213 C58.6809,4.6593 58.2427,5.35601 57.9507,6.15223 C57.6586,6.94845 57.4639,7.79444 57.5126,8.64043 C57.5126,9.48642 57.6586,10.3324 57.9507,11.1286 C58.2427,11.8751 58.6809,12.5718 59.2163,13.169 C59.7518,13.7661 60.4332,14.2638 61.1634,14.6121 C61.7962,14.9107 62.429,15.06 63.1105,15.1098 L63.1105,16.4534 C62.283,16.4036 61.4555,16.2046 60.6766,15.8562 C59.7518,15.4581 58.9242,14.9107 58.1941,14.1642 C57.5126,13.4675 56.9285,12.6216 56.539,11.676 C56.1496,10.6808 55.9062,9.63571 55.9062,8.5409 C55.9062,7.49585 56.101,6.40105 56.539,5.45553 C57.3179,3.5645 58.8269,2.02181 60.6766,1.22558 C61.4555,0.877237 62.283,0.678182 63.1105,0.628418 L63.1105,2.12134 L63.0618,2.12134 Z M63.8893,15.2093 C64.6681,15.2093 65.4956,15.0102 66.2258,14.7116 C66.956,14.4131 67.6374,13.9154 68.1729,13.3182 C68.7083,12.7211 69.1464,12.0244 69.4385,11.2779 C69.7306,10.4817 69.8766,9.63571 69.8766,8.73996 C69.8766,7.84421 69.7306,6.99822 69.4385,6.15223 C69.1464,5.35601 68.757,4.6593 68.1729,4.06213 C67.6374,3.46497 66.956,3.0171 66.2258,2.66875 C65.4956,2.37016 64.6681,2.17111 63.8893,2.17111 L63.8893,0.777712 C64.8628,0.777712 65.8364,0.976766 66.7613,1.37488 C67.6861,1.77299 68.5136,2.32039 69.2438,3.06685 C69.9253,3.76355 70.5094,4.6593 70.8501,5.55506 C71.2395,6.55034 71.4343,7.59538 71.4343,8.69019 C71.4343,9.785 71.2395,10.83 70.8501,11.8253 C70.4607,12.7708 69.9253,13.6168 69.1951,14.3135 C68.5136,15.0102 67.6375,15.6074 66.7613,15.9557 C65.8364,16.3041 64.9115,16.5031 63.8893,16.5529 L63.8893,15.2093 Z" id="Shape"></path>
                    <polygon id="Shape" points="73.0938 0.728027 84.1921 13.0695 84.1921 1.22567 85.7498 1.22567 85.7498 17.1999 74.6514 4.80868 74.6514 16.6525 73.0938 16.6525"></polygon>
                    <polygon id="Shape" points="87.9844 1.22559 89.5421 1.22559 89.5421 15.259 96.3082 15.259 96.3082 16.6027 87.9844 16.6027"></polygon>
                    <polygon id="Shape" points="98.5938 1.27539 100.2 1.27539 100.2 16.6525 98.5938 16.6525"></polygon>
                    <polygon id="Shape" points="102.441 0.777832 113.54 13.1193 113.54 1.27547 115.097 1.27547 115.097 17.2 103.999 4.80871 103.999 16.6526 102.441 16.6526"></polygon>
                    <path d="M117.387,15.259 L126.684,15.259 L126.684,16.6027 L117.435,16.6027 L117.387,15.259 Z M117.387,1.22559 L126.635,1.22559 L126.635,2.56921 L117.387,2.56921 L117.387,1.22559 Z M117.387,8.04326 L126.295,8.04326 L126.295,9.43665 L117.435,9.43665 L117.387,8.04326 Z" id="Shape"></path>
                </g>
                <g id="Group-10-Copy-2" transform="translate(38.221363, 0.133274)">
                    <circle id="Oval-4" stroke="#6976F4" fill="#6976F4" cx="23.0225271" cy="23.4164955" r="22.9875312"></circle>
                    <path d="M33.0984945,42.6981559 C34.0031873,42.1811467 33.3698877,40.630412 33.4861781,39.5965401 C33.718759,37.4642067 33.1373068,35.5386769 31.444358,34.1171213 C31.198742,33.9104641 31.1858534,33.7294377 31.3280675,33.4451558 C32.1422471,31.7910193 33.0079812,30.1497714 33.718759,28.443934 C34.88181,25.691336 35.7219134,22.8741485 35.5796992,19.811345 C35.4762974,17.6790116 34.0677769,15.7146696 32.1034348,15.1978068 C30.6818792,14.8230118 29.5059396,15.1849182 28.6141354,16.3867815 C28.2781526,16.8390547 27.9809822,17.3172516 27.7612899,17.8341144 C27.0376235,19.4494386 26.6886056,21.1683111 26.3268457,22.8999257 C25.7969478,25.4716437 25.5901442,28.0562503 25.6677688,30.6796692 C25.6806574,31.2482329 25.6677688,31.8298316 25.6677688,32.3597294 C24.8018882,32.2949935 23.923119,32.1915916 23.0443499,32.1915916 C22.1526921,32.1915916 21.2610343,32.3078821 20.3563414,32.3726181 C20.3563414,32.2821048 20.3434528,32.178703 20.3563414,32.0753012 C20.6665469,27.7590799 20.1237605,23.5332254 18.9218972,19.3977376 C18.5988031,18.2863876 18.1594185,17.2138498 17.4098284,16.3091569 C16.8541533,15.6371914 16.2081115,15.1589945 15.3293423,15.094405 C12.8609823,14.9006364 10.6511121,17.0070461 10.5218745,19.6691309 C10.4443377,21.4783701 10.625291,23.2359085 11.1292797,24.9805582 C11.995131,27.9270713 13.2227862,30.7184815 14.7089313,33.3934549 C14.8511455,33.6519595 14.9674359,33.8716518 14.6702655,34.1171213 C12.9772727,35.5257883 12.4474042,37.4125057 12.5766272,39.5448391 C12.641246,40.6561892 12.7963195,41.7676858 12.9643255,42.8790359 C12.9772434,42.8532586 22.8375462,48.5005223 33.0984945,42.6981559 Z" id="Shape" fill="#FFFFFF" fill-rule="nonzero"></path>
                    <path d="M22.9939671,45.3857249 C35.1271331,45.3857249 44.9631965,35.549808 44.9631965,23.4164955 C44.9631965,11.283227 35.1271331,1.44726615 22.9939671,1.44726615 C10.8606546,1.44726615 1.02469377,11.283227 1.02469377,23.4164955 C1.02469377,35.549808 10.8606546,45.3857249 22.9939671,45.3857249 Z" id="Shape" stroke="#FFFFFF" stroke-width="2"></path>
                </g>
            </g>
        </g>
    </g>
</svg>