<?xml version="1.0" encoding="UTF-8"?>
<svg width="23px" height="17px" viewBox="0 0 23 17" version="1.1" xmlns="http://www.w3.org/2000/svg" xmlns:xlink="http://www.w3.org/1999/xlink">
    <!-- Generator: Sketch 52.4 (67378) - http://www.bohemiancoding.com/sketch -->
    <title>Group 34</title>
    <desc>Created with Sketch.</desc>
    <g id="Page-1" stroke="none" stroke-width="1" fill="none" fill-rule="evenodd">
        <g id="Overview--Copy" transform="translate(-27.000000, -843.000000)" stroke="#FFFFFF">
            <g id="Group-34" transform="translate(27.749892, 843.495890)">
                <path d="M3,0.5 C1.61928813,0.5 0.5,1.61928813 0.5,3 L0.5,12.6745499 C0.5,14.0552618 1.61928813,15.1745499 3,15.1745499 L18.9990711,15.1745499 C20.379783,15.1745499 21.4990711,14.0552618 21.4990711,12.6745499 L21.4990711,3 C21.4990711,1.61928813 20.379783,0.5 18.9990711,0.5 L3,0.5 Z" id="Rectangle-2"></path>
                <path d="M15.6948291,8.2844338 L8.39468877,11.934504 C8.14769952,12.0579986 7.847363,11.9578864 7.72386838,11.7108972 C7.68915452,11.6414695 7.67108197,11.5649129 7.67108197,11.4872904 L7.67108197,4.18715002 C7.67108197,3.91100764 7.8949396,3.68715002 8.17108197,3.68715002 C8.24870452,3.68715002 8.32526105,3.70522257 8.39468877,3.73993642 L15.6948291,7.39000661 C15.9418184,7.51350123 16.0419306,7.81383775 15.9184359,8.060827 C15.8700541,8.1575907 15.7915928,8.23605195 15.6948291,8.2844338 Z" id="Triangle"></path>
            </g>
        </g>
    </g>
</svg>