<svg width="768" height="960" viewBox="0 0 768 960" fill="none" xmlns="http://www.w3.org/2000/svg">
<path d="M704 722C704 722 704 416 704 320C704 224 608 128 512 128C448 128 448 128 448 128V0L256 192L448 384V256C448 256 480 256 512 256C544 256 576 288 576 320C576 352 576 722 576 722C538 744 512 785 512 832C512 903 569 960 640 960C711 960 768 903 768 832C768 785 742 744 704 722ZM640 896C605 896 576 867 576 832C576 797 605 768 640 768C675 768 704 797 704 832C704 867 675 896 640 896ZM128 64C57 64 0 121 0 192C0 239 26 280 64 302V721C26 743 0 784 0 831C0 902 57 959 128 959C199 959 256 902 256 831C256 784 230 743 192 721V302C230 280 256 239 256 192C256 121 199 64 128 64ZM128 896C93 896 64 867 64 832C64 797 93 768 128 768C163 768 192 797 192 832C192 867 163 896 128 896ZM128 256C93 256 64 227 64 192C64 157 93 128 128 128C163 128 192 157 192 192C192 227 163 256 128 256Z" fill="white"/>
</svg>
