<svg width="218" height="140" viewBox="0 0 218 140" fill="none" xmlns="http://www.w3.org/2000/svg">
<rect y="52.8733" width="49.5934" height="46.094" transform="rotate(-35.6054 0 52.8733)" fill="#6C63FF"/>
<path d="M62.3132 72.6644H54.5479V129.61H62.3132V72.6644Z" fill="#3F3D56"/>
<path d="M30.8949 43.8388C32.3604 42.7957 33.9779 41.9846 35.6904 41.4339C46.548 37.394 57.9247 34.9175 69.4791 34.0787C79.5261 33.3662 90.4152 34.2124 98.2624 40.5267C99.483 41.4223 100.482 42.5861 101.182 43.9283C102.169 46.0587 101.87 48.535 101.551 50.8612C101.479 51.7635 101.251 52.6466 100.878 53.4712C99.8223 55.4818 97.2224 56.1861 94.9642 55.945C92.7061 55.7039 90.5871 54.7485 88.3598 54.3055C86.9811 54.0652 85.5872 53.9232 84.1884 53.8807L70.2188 53.1244C61.532 52.6541 52.7307 52.1917 44.2097 53.9448C41.5865 54.4163 39.0518 55.2898 36.6951 56.5343C34.7488 57.627 33.4383 59.195 31.6324 57.1767C28.4597 53.6309 26.7036 47.1139 30.8949 43.8388Z" fill="#2F2E41"/>
<path d="M52.5421 50.0164C52.5421 50.0164 71.3318 41.5935 78.4589 51.3123C85.586 61.0311 74.5713 57.1436 74.5713 57.1436L62.2609 61.0311L48.6545 58.4394L52.5421 50.0164Z" fill="#F2F2F2"/>
<path d="M53.5139 43.8612C53.5139 43.8612 56.1056 56.1717 54.1618 59.4113C52.2181 62.6509 65.1765 67.1863 65.1765 67.1863L77.487 62.003C77.487 62.003 74.2474 41.9175 77.487 38.03L53.5139 43.8612Z" fill="#FFB9B9"/>
<path opacity="0.1" d="M53.5139 43.8612C53.5139 43.8612 56.1056 56.1717 54.1618 59.4113C52.2181 62.6509 65.1765 67.1863 65.1765 67.1863L77.487 62.003C77.487 62.003 74.2474 41.9175 77.487 38.03L53.5139 43.8612Z" fill="black"/>
<path d="M83.3184 31.5507C83.3142 36.7046 81.265 41.6462 77.6206 45.2905C73.9763 48.9349 69.0347 50.9841 63.8808 50.9883C62.7226 50.9903 61.5667 50.8862 60.4274 50.6773C56.7897 50.0204 53.4148 48.3398 50.6985 45.8326C47.9822 43.3254 46.0372 40.0957 45.0916 36.5222C44.1459 32.9486 44.239 29.1796 45.3597 25.657C46.4804 22.1345 48.5824 19.0046 51.419 16.6345C54.2556 14.2643 57.7093 12.7522 61.375 12.2754C65.0406 11.7987 68.7662 12.3772 72.1147 13.943C75.4632 15.5087 78.2958 17.9969 80.2802 21.1156C82.2647 24.2343 83.3186 27.8542 83.3184 31.5507V31.5507Z" fill="#FFB9B9"/>
<path d="M52.0563 50.3269C52.0563 50.3269 55.6197 51.9611 56.9155 53.2685C58.2113 54.5759 62.0986 61.7665 68.5775 57.1907C75.0563 52.6148 75.7042 50 77.6479 50C79.5915 50 82.1831 53.9222 82.1831 53.9222L100 107.852C95.198 113.321 89.6326 118.055 83.4789 121.907C73.1127 128.444 60.8028 131.712 54.9718 129.097C49.1408 126.483 38.1268 124.521 36.1831 119.292C34.2394 114.062 31 98.3736 31 98.3736L40.0704 58.4981L52.0563 50.3269Z" fill="#F2F2F2"/>
<path d="M50.0405 104.078C51.453 101.026 51.6585 97.5728 51.778 94.2127C51.9684 90.8847 51.8801 87.5465 51.5143 84.2332C50.9401 79.8992 49.5287 75.7237 48.6374 71.4436C47.856 67.6897 47.4762 63.8633 47.5043 60.0291C47.5173 58.2795 47.644 56.4377 48.5973 54.9706C49.2624 53.9471 50.3028 53.1545 50.7184 52.0068C51.5333 49.7565 49.5198 47.4003 47.3132 46.4736C44.6881 45.3712 41.6877 45.4452 38.9258 46.1369C36.164 46.8286 33.588 48.1011 31.0364 49.3644C29.1932 50.277 27.3109 51.2177 25.8817 52.6967C23.8705 54.7779 22.9861 57.6766 22.272 60.4813C21.7004 62.7262 21.1925 65.067 21.6273 67.3423C22.3335 71.0371 25.3455 73.816 26.9512 77.2177C28.8157 81.1679 28.6901 85.7713 27.9485 90.076C27.2069 94.3807 25.8904 98.5896 25.4844 102.939C25.0785 107.288 25.7016 111.963 28.4265 115.377C29.5369 116.769 32.5491 120.066 34.5819 119.693C36.1788 119.4 38.4941 115.884 39.7805 114.77C43.4969 111.551 47.9064 108.687 50.0405 104.078Z" fill="#2F2E41"/>
<path d="M83.9869 47.9034C84.0436 51.5171 82.4507 54.9519 80.5774 58.0426C78.7041 61.1333 76.5036 64.0564 75.1232 67.3965C73.4078 71.5775 73.0576 76.1938 74.1225 80.5858C74.5184 82.0818 74.9956 83.5551 75.552 84.9992L79.1019 94.7366C79.5795 96.2677 80.2727 97.7229 81.1605 99.0586C81.9631 100.082 82.9048 100.988 83.9582 101.75C86.6547 103.927 89.7577 105.546 93.0863 106.512C96.4265 107.395 100.081 107.339 103.237 105.933C103.579 92.7325 105.7 79.6385 109.542 67.0049C110.251 64.6727 111.027 62.2174 110.48 59.8418C109.866 57.181 107.729 55.1832 105.697 53.3588C99.4839 47.7792 92.6513 41.9183 84.3344 41.1661C79.5208 40.7308 83.9458 45.2909 83.9869 47.9034Z" fill="#2F2E41"/>
<path d="M41.4674 123.233C41.9602 124.198 42.2669 125.249 42.7542 126.216C43.4733 127.513 44.3624 128.709 45.3979 129.771C49.7301 134.575 55.0256 139.36 61.4877 139.65C62.1297 139.71 62.777 139.628 63.3841 139.411C64.5146 138.941 65.1824 137.73 65.4024 136.525C65.8606 134.016 64.7529 131.513 63.6439 129.216C61.2404 124.237 58.5359 119.133 54.0357 115.922C49.5996 112.757 43.6556 111.988 38.4822 113.582C36.138 114.304 32.251 115.565 35.3546 117.704C37.7091 119.326 40.1023 120.562 41.4674 123.233Z" fill="#FFB9B9"/>
<path d="M69.4017 59.853C68.6102 58.0852 67.7826 56.266 66.361 54.9504C65.0174 53.8145 63.4268 53.0087 61.7163 52.5972C59.4999 51.964 57.2076 51.6355 54.9025 51.6207C52.1585 51.6036 48.9769 52.3396 47.8116 54.824C46.8863 56.7968 47.6036 59.1329 48.5353 61.1028C48.9333 62.1232 49.5964 63.0189 50.4561 63.6975C51.6394 64.497 53.1698 64.4717 54.5726 64.7395C56.772 65.1594 58.7406 66.3382 60.6568 67.4965L65.4629 70.4016L73.7181 75.3916C73.5005 75.2601 73.5779 69.599 73.3243 68.6712C72.5076 65.6825 70.6689 62.6833 69.4017 59.853Z" fill="#FFB9B9"/>
<path d="M82.8294 21.4209C82.4837 20.2585 81.7219 19.2642 80.6895 18.6278C80.7428 17.3826 80.5902 16.1372 80.2377 14.9417C79.0606 11.4617 76.272 11.6612 73.6409 10.1226C72.4994 9.45506 72.5699 8.86507 71.9756 7.76867C71.1969 6.33138 70.0307 5.1414 68.6093 4.33399C66.9213 3.2585 65.1394 2.15089 63.1425 2.01477C58.946 1.72874 55.7285 5.6759 51.7175 6.94272C49.9495 7.50106 48.0498 7.52408 46.2726 8.05194C44.4953 8.57979 42.7221 9.8402 42.4572 11.6752C42.335 12.5223 42.5507 13.3914 42.4267 14.2383C42.1801 15.9216 40.7033 17.1005 39.7147 18.485C37.5285 21.5466 37.7786 25.8719 39.5269 29.203C39.8953 29.8923 40.3168 30.5519 40.7875 31.1758C40.9333 32.7503 41.3855 34.2812 42.1186 35.6822C43.8669 39.0134 46.8752 41.5027 50.0179 43.5708C49.7605 42.466 49.6044 41.3401 49.5517 40.2069C49.5074 39.8293 49.5565 39.4465 49.6948 39.0923C50.0447 38.3607 50.9695 38.1662 51.6746 37.7655C53.1351 36.9356 53.7078 35.099 53.75 33.4197C53.7922 31.7405 53.4364 30.0585 53.6123 28.388C53.6192 28.0038 53.7064 27.6254 53.8686 27.277C54.0307 26.9287 54.264 26.6182 54.5535 26.3655C55.0925 26.0581 55.7082 25.9113 56.328 25.9425C59.3202 25.8204 62.4467 25.7654 65.0861 24.3504C65.9864 23.8677 66.8235 23.2292 67.812 22.9714C70.0551 22.3865 72.3476 23.9587 73.6403 25.8828C74.933 27.8069 75.5775 30.0967 76.7703 32.0844C77.963 34.0721 80.0235 35.8446 82.3295 35.6091C82.4594 35.6094 82.5878 35.5823 82.7065 35.5296C82.8252 35.4768 82.9314 35.3995 83.0182 35.3029C83.1177 35.1242 83.1618 34.92 83.1451 34.7162L83.2739 25.9012C83.381 24.3934 83.2307 22.8783 82.8294 21.4209Z" fill="#2F2E41"/>
<path d="M21.3153 67.5303C19.4608 70.2664 17.3224 72.897 16.303 76.0412C15.7039 77.8893 15.5178 79.8429 15.084 81.7366C13.6392 88.0442 9.46502 93.6465 9.04546 100.104C8.89848 101.539 9.10919 102.988 9.65875 104.321C10.8562 106.926 13.7218 108.298 16.4554 109.162C19.1889 110.025 22.1245 110.647 24.3064 112.507C25.4048 113.56 26.401 114.715 27.2813 115.956C30.841 120.383 35.6299 123.66 41.0463 125.374C40.6184 122.425 40.4176 118.872 42.7743 117.05C44.05 116.063 45.7547 115.888 47.3613 115.749L54.9529 115.093C49.8906 110.182 44.3107 105.836 38.3112 102.129C36.212 100.832 33.9273 99.464 32.9688 97.1903C32.3695 95.7689 32.3777 94.1768 32.3635 92.6344C32.3113 86.9884 31.8332 81.3544 30.9334 75.7803C30.3084 71.9099 29.4809 68.0741 28.5345 64.2696C28.2688 63.2015 26.6984 58.4107 24.7654 59.5317C24.3101 59.7957 23.8841 62.8348 23.6183 63.4654C22.9855 64.8925 22.2141 66.254 21.3153 67.5303Z" fill="#2F2E41"/>
<path d="M108.753 57.191L111.853 63.6385C113.346 66.2896 114.026 69.3219 113.807 72.3569L113.991 91.6976C114.016 94.2821 114.036 96.9056 113.355 99.399C113.162 100.231 112.798 101.014 112.286 101.699C111.76 102.288 111.141 102.788 110.453 103.176C104.585 106.842 96.9769 108.925 90.7779 105.853C89.3582 105.097 88.0083 104.215 86.7442 103.22C84.2736 101.391 81.7665 99.5253 79.9182 97.0686C77.9838 94.4974 76.8752 91.4192 75.5739 88.4765C73.2382 83.1978 70.2205 78.2482 66.5979 73.7543C66.0714 73.1014 65.5054 72.3893 65.4864 71.5509C65.4479 69.8557 67.4593 69.0211 69.0275 68.3761C71.7068 67.2742 74.2332 65.148 74.6817 62.2859C80.379 69.7572 86.666 77.6512 95.6564 80.3814C95.7974 80.4714 95.9601 80.5217 96.1273 80.5268C96.2945 80.5319 96.46 80.4917 96.6063 80.4104C96.7525 80.3292 96.874 80.2099 96.958 80.0652C97.042 79.9205 97.0853 79.7557 97.0833 79.5885C97.5934 77.4532 97.774 75.2544 98.1473 73.091C98.8319 69.1515 100.15 65.349 102.052 61.8314C103.116 59.8591 106.564 52.6399 108.753 57.191Z" fill="#2F2E41"/>
<path opacity="0.1" d="M31.8209 75.8361C31.9065 80.413 30.9342 84.9479 28.9798 89.0874C28.4714 90.0023 28.0968 90.9853 27.8673 92.0065C27.5273 94.1848 28.7669 96.2937 30.1838 97.9828C32.9789 101.305 36.6042 103.827 40.6906 105.292" fill="black"/>
<path opacity="0.1" d="M99.1411 71.9786C98.6843 73.2069 99.0991 74.5654 99.4512 75.8278C100.471 79.4895 100.948 83.2813 100.865 87.0815C100.879 87.1479 100.877 87.2171 100.859 87.2826C100.84 87.3481 100.806 87.4079 100.758 87.4566C100.71 87.5054 100.652 87.5415 100.586 87.5617C100.521 87.5819 100.452 87.5856 100.386 87.5724C98.8901 87.6641 97.178 87.6737 96.1633 86.5712" fill="black"/>
<rect x="66" y="109" width="34" height="21" fill="#F2F2F2"/>
<path d="M210 0H122C117.582 0 114 3.58172 114 8V12C114 16.4183 117.582 20 122 20H210C214.418 20 218 16.4183 218 12V8C218 3.58172 214.418 0 210 0Z" fill="#EFEFF2"/>
<path d="M210 24H122C117.582 24 114 27.5817 114 32V36C114 40.4183 117.582 44 122 44H210C214.418 44 218 40.4183 218 36V32C218 27.5817 214.418 24 210 24Z" fill="#EFEFF2"/>
<path d="M125 16C128.314 16 131 13.3137 131 10C131 6.68629 128.314 4 125 4C121.686 4 119 6.68629 119 10C119 13.3137 121.686 16 125 16Z" fill="#6C63FF"/>
<path d="M201 7H139V8H201V7Z" fill="#6C63FF"/>
<path d="M201 11H139V12H201V11Z" fill="#6C63FF"/>
<path d="M125 40C128.314 40 131 37.3137 131 34C131 30.6863 128.314 28 125 28C121.686 28 119 30.6863 119 34C119 37.3137 121.686 40 125 40Z" fill="#CCCCCC"/>
<path d="M201 32H139V33H201V32Z" fill="#CCCCCC"/>
<path d="M201 36H139V37H201V36Z" fill="#CCCCCC"/>
<path d="M124.024 12L122 8.93881L122.48 8.53118L124.128 11.0247L130.621 5L131 5.52627L124.024 12Z" fill="#F2F2F2"/>
</svg>
