<?xml version="1.0" encoding="UTF-8"?>
<svg width="20px" height="23px" viewBox="0 0 20 23" version="1.1" xmlns="http://www.w3.org/2000/svg" xmlns:xlink="http://www.w3.org/1999/xlink">
    <!-- Generator: Sketch 52.2 (67145) - http://www.bohemiancoding.com/sketch -->
    <title>dashoard icon'</title>
    <desc>Created with Sketch.</desc>
    <g id="Sidebar" stroke="none" stroke-width="1" fill="none" fill-rule="evenodd">
        <g id="Desktop-Copy-3" transform="translate(-23.000000, -174.000000)" stroke="#FFFFFF">
            <g id="Group-2" transform="translate(23.000000, 174.153567)">
                <g id="dashoard-icon'" transform="translate(0.000000, 0.257345)">
                    <g id="Group">
                        <g id="Group-16">
                            <path d="M0.896518512,0.5 L0.896518512,21.5 L19.1034815,21.5 L19.1034815,0.5 L0.896518512,0.5 Z" id="Rectangle-7"></path>
                            <path d="M5.58682283,12.1016109 L1.38754401,12.1016109 L1.88754401,12.6016109 L1.88754401,11.6016109 L1.38754401,12.1016109 L5.58682283,12.1016109 Z M10.0361016,12.1016109 L10.2861016,12.1016109 L10.2861016,1.49314041 L10.7798579,1.49314041 L10.2861016,0.999384115 L10.2861016,0.993140409 L10.2829798,0.996262262 L10.2798579,0.993140409 L10.2798579,0.999384115 L9.78610164,1.49314041 L10.2798579,1.49314041 L10.2798579,20.5068596 L9.78610164,20.5068596 L10.2798579,21.0006159 L10.2798579,21.0068596 L10.2829798,21.0037377 L10.2861016,21.0068596 L10.2861016,21.0006159 L10.7798579,20.5068596 L10.2861016,20.5068596 L10.2861016,12.1016109 L10.0361016,12.1016109 Z M14.6992788,9.86928582 L18.612456,9.86928582 L18.112456,9.36928582 L18.112456,10.3692858 L18.612456,9.86928582 L14.6992788,9.86928582 Z M14.6992788,9.86928582 L10.7861016,9.86928582 L11.2861016,10.3692858 L11.2861016,9.36928582 L10.7861016,9.86928582 L14.6992788,9.86928582 Z" id="Combined-Shape"></path>
                        </g>
                    </g>
                </g>
            </g>
        </g>
    </g>
</svg>