<svg width="438" height="124" viewBox="0 0 438 124" fill="none" xmlns="http://www.w3.org/2000/svg">
<path d="M125.234 94V68.3008H130.684V89.5H141.107V94H125.234ZM149.439 84.1387C149.439 86.084 149.756 87.5547 150.389 88.5508C151.033 89.5469 152.076 90.0449 153.518 90.0449C154.947 90.0449 155.973 89.5527 156.594 88.5684C157.227 87.5723 157.543 86.0957 157.543 84.1387C157.543 82.1934 157.227 80.7344 156.594 79.7617C155.961 78.7891 154.924 78.3027 153.482 78.3027C152.053 78.3027 151.021 78.7891 150.389 79.7617C149.756 80.7227 149.439 82.1816 149.439 84.1387ZM163.027 84.1387C163.027 87.3379 162.184 89.8398 160.496 91.6445C158.809 93.4492 156.459 94.3516 153.447 94.3516C151.561 94.3516 149.896 93.9414 148.455 93.1211C147.014 92.2891 145.906 91.0996 145.133 89.5527C144.359 88.0059 143.973 86.2012 143.973 84.1387C143.973 80.9277 144.811 78.4316 146.486 76.6504C148.162 74.8691 150.518 73.9785 153.553 73.9785C155.439 73.9785 157.104 74.3887 158.545 75.209C159.986 76.0293 161.094 77.207 161.867 78.7422C162.641 80.2773 163.027 82.0762 163.027 84.1387ZM184.561 74.3477V77.0723L181.484 77.8633C182.047 78.7422 182.328 79.7266 182.328 80.8164C182.328 82.9258 181.59 84.5723 180.113 85.7559C178.648 86.9277 176.609 87.5137 173.996 87.5137L173.029 87.4609L172.238 87.373C171.688 87.7949 171.412 88.2637 171.412 88.7793C171.412 89.5527 172.396 89.9395 174.365 89.9395H177.705C179.861 89.9395 181.502 90.4023 182.627 91.3281C183.764 92.2539 184.332 93.6133 184.332 95.4062C184.332 97.7031 183.371 99.4844 181.449 100.75C179.539 102.016 176.791 102.648 173.205 102.648C170.463 102.648 168.365 102.168 166.912 101.207C165.471 100.258 164.75 98.9219 164.75 97.1992C164.75 96.0156 165.119 95.0254 165.857 94.2285C166.596 93.4316 167.68 92.8633 169.109 92.5234C168.559 92.2891 168.078 91.9082 167.668 91.3809C167.258 90.8418 167.053 90.2734 167.053 89.6758C167.053 88.9258 167.27 88.3047 167.703 87.8125C168.137 87.3086 168.764 86.8164 169.584 86.3359C168.553 85.8906 167.732 85.1758 167.123 84.1914C166.525 83.207 166.227 82.0469 166.227 80.7109C166.227 78.5664 166.924 76.9082 168.318 75.7363C169.713 74.5645 171.705 73.9785 174.295 73.9785C174.846 73.9785 175.496 74.0312 176.246 74.1367C177.008 74.2305 177.494 74.3008 177.705 74.3477H184.561ZM169.391 96.7773C169.391 97.5156 169.742 98.0957 170.445 98.5176C171.16 98.9395 172.156 99.1504 173.434 99.1504C175.355 99.1504 176.861 98.8867 177.951 98.3594C179.041 97.832 179.586 97.1113 179.586 96.1973C179.586 95.459 179.264 94.9492 178.619 94.668C177.975 94.3867 176.979 94.2461 175.631 94.2461H172.854C171.869 94.2461 171.043 94.4746 170.375 94.9316C169.719 95.4004 169.391 96.0156 169.391 96.7773ZM171.342 80.7812C171.342 81.8477 171.582 82.6914 172.062 83.3125C172.555 83.9336 173.299 84.2441 174.295 84.2441C175.303 84.2441 176.041 83.9336 176.51 83.3125C176.979 82.6914 177.213 81.8477 177.213 80.7812C177.213 78.4141 176.24 77.2305 174.295 77.2305C172.326 77.2305 171.342 78.4141 171.342 80.7812ZM204.916 74.3477V77.0723L201.84 77.8633C202.402 78.7422 202.684 79.7266 202.684 80.8164C202.684 82.9258 201.945 84.5723 200.469 85.7559C199.004 86.9277 196.965 87.5137 194.352 87.5137L193.385 87.4609L192.594 87.373C192.043 87.7949 191.768 88.2637 191.768 88.7793C191.768 89.5527 192.752 89.9395 194.721 89.9395H198.061C200.217 89.9395 201.857 90.4023 202.982 91.3281C204.119 92.2539 204.688 93.6133 204.688 95.4062C204.688 97.7031 203.727 99.4844 201.805 100.75C199.895 102.016 197.146 102.648 193.561 102.648C190.818 102.648 188.721 102.168 187.268 101.207C185.826 100.258 185.105 98.9219 185.105 97.1992C185.105 96.0156 185.475 95.0254 186.213 94.2285C186.951 93.4316 188.035 92.8633 189.465 92.5234C188.914 92.2891 188.434 91.9082 188.023 91.3809C187.613 90.8418 187.408 90.2734 187.408 89.6758C187.408 88.9258 187.625 88.3047 188.059 87.8125C188.492 87.3086 189.119 86.8164 189.939 86.3359C188.908 85.8906 188.088 85.1758 187.479 84.1914C186.881 83.207 186.582 82.0469 186.582 80.7109C186.582 78.5664 187.279 76.9082 188.674 75.7363C190.068 74.5645 192.061 73.9785 194.65 73.9785C195.201 73.9785 195.852 74.0312 196.602 74.1367C197.363 74.2305 197.85 74.3008 198.061 74.3477H204.916ZM189.746 96.7773C189.746 97.5156 190.098 98.0957 190.801 98.5176C191.516 98.9395 192.512 99.1504 193.789 99.1504C195.711 99.1504 197.217 98.8867 198.307 98.3594C199.396 97.832 199.941 97.1113 199.941 96.1973C199.941 95.459 199.619 94.9492 198.975 94.668C198.33 94.3867 197.334 94.2461 195.986 94.2461H193.209C192.225 94.2461 191.398 94.4746 190.73 94.9316C190.074 95.4004 189.746 96.0156 189.746 96.7773ZM191.697 80.7812C191.697 81.8477 191.938 82.6914 192.418 83.3125C192.91 83.9336 193.654 84.2441 194.65 84.2441C195.658 84.2441 196.396 83.9336 196.865 83.3125C197.334 82.6914 197.568 81.8477 197.568 80.7812C197.568 78.4141 196.596 77.2305 194.65 77.2305C192.682 77.2305 191.697 78.4141 191.697 80.7812ZM207.939 69.2676C207.939 67.5215 208.912 66.6484 210.857 66.6484C212.803 66.6484 213.775 67.5215 213.775 69.2676C213.775 70.0996 213.529 70.75 213.037 71.2188C212.557 71.6758 211.83 71.9043 210.857 71.9043C208.912 71.9043 207.939 71.0254 207.939 69.2676ZM213.529 94H208.168V74.3477H213.529V94ZM237.312 94H231.951V82.5215C231.951 81.1035 231.699 80.043 231.195 79.3398C230.691 78.625 229.889 78.2676 228.787 78.2676C227.287 78.2676 226.203 78.7715 225.535 79.7793C224.867 80.7754 224.533 82.4336 224.533 84.7539V94H219.172V74.3477H223.268L223.988 76.8613H224.287C224.885 75.9121 225.705 75.1973 226.748 74.7168C227.803 74.2246 228.998 73.9785 230.334 73.9785C232.619 73.9785 234.354 74.5996 235.537 75.8418C236.721 77.0723 237.312 78.8535 237.312 81.1855V94ZM259.936 74.3477V77.0723L256.859 77.8633C257.422 78.7422 257.703 79.7266 257.703 80.8164C257.703 82.9258 256.965 84.5723 255.488 85.7559C254.023 86.9277 251.984 87.5137 249.371 87.5137L248.404 87.4609L247.613 87.373C247.062 87.7949 246.787 88.2637 246.787 88.7793C246.787 89.5527 247.771 89.9395 249.74 89.9395H253.08C255.236 89.9395 256.877 90.4023 258.002 91.3281C259.139 92.2539 259.707 93.6133 259.707 95.4062C259.707 97.7031 258.746 99.4844 256.824 100.75C254.914 102.016 252.166 102.648 248.58 102.648C245.838 102.648 243.74 102.168 242.287 101.207C240.846 100.258 240.125 98.9219 240.125 97.1992C240.125 96.0156 240.494 95.0254 241.232 94.2285C241.971 93.4316 243.055 92.8633 244.484 92.5234C243.934 92.2891 243.453 91.9082 243.043 91.3809C242.633 90.8418 242.428 90.2734 242.428 89.6758C242.428 88.9258 242.645 88.3047 243.078 87.8125C243.512 87.3086 244.139 86.8164 244.959 86.3359C243.928 85.8906 243.107 85.1758 242.498 84.1914C241.9 83.207 241.602 82.0469 241.602 80.7109C241.602 78.5664 242.299 76.9082 243.693 75.7363C245.088 74.5645 247.08 73.9785 249.67 73.9785C250.221 73.9785 250.871 74.0312 251.621 74.1367C252.383 74.2305 252.869 74.3008 253.08 74.3477H259.936ZM244.766 96.7773C244.766 97.5156 245.117 98.0957 245.82 98.5176C246.535 98.9395 247.531 99.1504 248.809 99.1504C250.73 99.1504 252.236 98.8867 253.326 98.3594C254.416 97.832 254.961 97.1113 254.961 96.1973C254.961 95.459 254.639 94.9492 253.994 94.668C253.35 94.3867 252.354 94.2461 251.006 94.2461H248.229C247.244 94.2461 246.418 94.4746 245.75 94.9316C245.094 95.4004 244.766 96.0156 244.766 96.7773ZM246.717 80.7812C246.717 81.8477 246.957 82.6914 247.438 83.3125C247.93 83.9336 248.674 84.2441 249.67 84.2441C250.678 84.2441 251.416 83.9336 251.885 83.3125C252.354 82.6914 252.588 81.8477 252.588 80.7812C252.588 78.4141 251.615 77.2305 249.67 77.2305C247.701 77.2305 246.717 78.4141 246.717 80.7812Z" fill="#606060"/>
<path d="M0 61.761C0.0214345 66.9715 0.701495 72.1586 2.02654 77.1997H77.1935C85.7205 77.1997 92.6322 70.288 92.6322 61.761C92.6322 53.2339 85.7205 46.3223 77.1935 46.3223H2.10253C0.752158 51.3594 0.0467662 56.5465 0 61.761Z" fill="#343741"/>
<path d="M103.996 29.5721C106.159 27.5943 108.164 25.4509 109.997 23.1652C88.7694 -3.41947 50.01 -7.76289 23.4253 13.4651C16.2428 19.2017 10.434 26.4719 6.42578 34.7437H90.8174C95.7025 34.7398 100.41 32.8926 103.996 29.5721Z" fill="#FEC514"/>
<path d="M90.8154 88.7782H6.42578C21.2585 119.394 58.1025 132.191 88.7207 117.356C96.9925 113.348 104.265 107.539 109.999 100.357C108.166 98.071 106.161 95.9276 103.998 93.9497C100.41 90.6313 95.7025 88.784 90.8154 88.7782Z" fill="#00BFB3"/>
<path d="M144.047 55H124.312V20.7344H144.047V26.6875H131.578V34.2109H143.18V40.1641H131.578V49H144.047V55ZM157.805 55H150.656V18.5312H157.805V55ZM181.969 55L180.586 51.4375H180.398C179.195 52.9531 177.953 54.0078 176.672 54.6016C175.406 55.1797 173.75 55.4688 171.703 55.4688C169.188 55.4688 167.203 54.75 165.75 53.3125C164.312 51.875 163.594 49.8281 163.594 47.1719C163.594 44.3906 164.562 42.3438 166.5 41.0312C168.453 39.7031 171.391 38.9688 175.312 38.8281L179.859 38.6875V37.5391C179.859 34.8828 178.5 33.5547 175.781 33.5547C173.688 33.5547 171.227 34.1875 168.398 35.4531L166.031 30.625C169.047 29.0469 172.391 28.2578 176.062 28.2578C179.578 28.2578 182.273 29.0234 184.148 30.5547C186.023 32.0859 186.961 34.4141 186.961 37.5391V55H181.969ZM179.859 42.8594L177.094 42.9531C175.016 43.0156 173.469 43.3906 172.453 44.0781C171.438 44.7656 170.93 45.8125 170.93 47.2188C170.93 49.2344 172.086 50.2422 174.398 50.2422C176.055 50.2422 177.375 49.7656 178.359 48.8125C179.359 47.8594 179.859 46.5938 179.859 45.0156V42.8594ZM212.625 47.2188C212.625 49.9062 211.688 51.9531 209.812 53.3594C207.953 54.7656 205.164 55.4688 201.445 55.4688C199.539 55.4688 197.914 55.3359 196.57 55.0703C195.227 54.8203 193.969 54.4453 192.797 53.9453V48.0391C194.125 48.6641 195.617 49.1875 197.273 49.6094C198.945 50.0312 200.414 50.2422 201.68 50.2422C204.273 50.2422 205.57 49.4922 205.57 47.9922C205.57 47.4297 205.398 46.9766 205.055 46.6328C204.711 46.2734 204.117 45.875 203.273 45.4375C202.43 44.9844 201.305 44.4609 199.898 43.8672C197.883 43.0234 196.398 42.2422 195.445 41.5234C194.508 40.8047 193.82 39.9844 193.383 39.0625C192.961 38.125 192.75 36.9766 192.75 35.6172C192.75 33.2891 193.648 31.4922 195.445 30.2266C197.258 28.9453 199.82 28.3047 203.133 28.3047C206.289 28.3047 209.359 28.9922 212.344 30.3672L210.188 35.5234C208.875 34.9609 207.648 34.5 206.508 34.1406C205.367 33.7812 204.203 33.6016 203.016 33.6016C200.906 33.6016 199.852 34.1719 199.852 35.3125C199.852 35.9531 200.188 36.5078 200.859 36.9766C201.547 37.4453 203.039 38.1406 205.336 39.0625C207.383 39.8906 208.883 40.6641 209.836 41.3828C210.789 42.1016 211.492 42.9297 211.945 43.8672C212.398 44.8047 212.625 45.9219 212.625 47.2188ZM229.242 49.7734C230.492 49.7734 231.992 49.5 233.742 48.9531V54.2734C231.961 55.0703 229.773 55.4688 227.18 55.4688C224.32 55.4688 222.234 54.75 220.922 53.3125C219.625 51.8594 218.977 49.6875 218.977 46.7969V34.1641H215.555V31.1406L219.492 28.75L221.555 23.2188H226.125V28.7969H233.461V34.1641H226.125V46.7969C226.125 47.8125 226.406 48.5625 226.969 49.0469C227.547 49.5312 228.305 49.7734 229.242 49.7734ZM238.758 22.0234C238.758 19.6953 240.055 18.5312 242.648 18.5312C245.242 18.5312 246.539 19.6953 246.539 22.0234C246.539 23.1328 246.211 24 245.555 24.625C244.914 25.2344 243.945 25.5391 242.648 25.5391C240.055 25.5391 238.758 24.3672 238.758 22.0234ZM246.211 55H239.062V28.7969H246.211V55ZM264.375 55.4688C256.219 55.4688 252.141 50.9922 252.141 42.0391C252.141 37.5859 253.25 34.1875 255.469 31.8438C257.688 29.4844 260.867 28.3047 265.008 28.3047C268.039 28.3047 270.758 28.8984 273.164 30.0859L271.055 35.6172C269.93 35.1641 268.883 34.7969 267.914 34.5156C266.945 34.2188 265.977 34.0703 265.008 34.0703C261.289 34.0703 259.43 36.7109 259.43 41.9922C259.43 47.1172 261.289 49.6797 265.008 49.6797C266.383 49.6797 267.656 49.5 268.828 49.1406C270 48.7656 271.172 48.1875 272.344 47.4062V53.5234C271.188 54.2578 270.016 54.7656 268.828 55.0469C267.656 55.3281 266.172 55.4688 264.375 55.4688ZM299.227 45.4844C299.227 48.5781 298.109 51.0156 295.875 52.7969C293.656 54.5781 290.562 55.4688 286.594 55.4688C282.938 55.4688 279.703 54.7812 276.891 53.4062V46.6562C279.203 47.6875 281.156 48.4141 282.75 48.8359C284.359 49.2578 285.828 49.4688 287.156 49.4688C288.75 49.4688 289.969 49.1641 290.812 48.5547C291.672 47.9453 292.102 47.0391 292.102 45.8359C292.102 45.1641 291.914 44.5703 291.539 44.0547C291.164 43.5234 290.609 43.0156 289.875 42.5312C289.156 42.0469 287.68 41.2734 285.445 40.2109C283.352 39.2266 281.781 38.2812 280.734 37.375C279.688 36.4688 278.852 35.4141 278.227 34.2109C277.602 33.0078 277.289 31.6016 277.289 29.9922C277.289 26.9609 278.312 24.5781 280.359 22.8438C282.422 21.1094 285.266 20.2422 288.891 20.2422C290.672 20.2422 292.367 20.4531 293.977 20.875C295.602 21.2969 297.297 21.8906 299.062 22.6562L296.719 28.3047C294.891 27.5547 293.375 27.0312 292.172 26.7344C290.984 26.4375 289.812 26.2891 288.656 26.2891C287.281 26.2891 286.227 26.6094 285.492 27.25C284.758 27.8906 284.391 28.7266 284.391 29.7578C284.391 30.3984 284.539 30.9609 284.836 31.4453C285.133 31.9141 285.602 32.375 286.242 32.8281C286.898 33.2656 288.438 34.0625 290.859 35.2188C294.062 36.75 296.258 38.2891 297.445 39.8359C298.633 41.3672 299.227 43.25 299.227 45.4844ZM315.727 33.3906C314.211 33.3906 313.023 33.875 312.164 34.8438C311.305 35.7969 310.812 37.1562 310.688 38.9219H320.719C320.688 37.1562 320.227 35.7969 319.336 34.8438C318.445 33.875 317.242 33.3906 315.727 33.3906ZM316.734 55.4688C312.516 55.4688 309.219 54.3047 306.844 51.9766C304.469 49.6484 303.281 46.3516 303.281 42.0859C303.281 37.6953 304.375 34.3047 306.562 31.9141C308.766 29.5078 311.805 28.3047 315.68 28.3047C319.383 28.3047 322.266 29.3594 324.328 31.4688C326.391 33.5781 327.422 36.4922 327.422 40.2109V43.6797H310.523C310.602 45.7109 311.203 47.2969 312.328 48.4375C313.453 49.5781 315.031 50.1484 317.062 50.1484C318.641 50.1484 320.133 49.9844 321.539 49.6562C322.945 49.3281 324.414 48.8047 325.945 48.0859V53.6172C324.695 54.2422 323.359 54.7031 321.938 55C320.516 55.3125 318.781 55.4688 316.734 55.4688ZM349.875 55L348.492 51.4375H348.305C347.102 52.9531 345.859 54.0078 344.578 54.6016C343.312 55.1797 341.656 55.4688 339.609 55.4688C337.094 55.4688 335.109 54.75 333.656 53.3125C332.219 51.875 331.5 49.8281 331.5 47.1719C331.5 44.3906 332.469 42.3438 334.406 41.0312C336.359 39.7031 339.297 38.9688 343.219 38.8281L347.766 38.6875V37.5391C347.766 34.8828 346.406 33.5547 343.688 33.5547C341.594 33.5547 339.133 34.1875 336.305 35.4531L333.938 30.625C336.953 29.0469 340.297 28.2578 343.969 28.2578C347.484 28.2578 350.18 29.0234 352.055 30.5547C353.93 32.0859 354.867 34.4141 354.867 37.5391V55H349.875ZM347.766 42.8594L345 42.9531C342.922 43.0156 341.375 43.3906 340.359 44.0781C339.344 44.7656 338.836 45.8125 338.836 47.2188C338.836 49.2344 339.992 50.2422 342.305 50.2422C343.961 50.2422 345.281 49.7656 346.266 48.8125C347.266 47.8594 347.766 46.5938 347.766 45.0156V42.8594ZM376.875 28.3047C377.844 28.3047 378.648 28.375 379.289 28.5156L378.75 35.2188C378.172 35.0625 377.469 34.9844 376.641 34.9844C374.359 34.9844 372.578 35.5703 371.297 36.7422C370.031 37.9141 369.398 39.5547 369.398 41.6641V55H362.25V28.7969H367.664L368.719 33.2031H369.07C369.883 31.7344 370.977 30.5547 372.352 29.6641C373.742 28.7578 375.25 28.3047 376.875 28.3047ZM394.688 55.4688C386.531 55.4688 382.453 50.9922 382.453 42.0391C382.453 37.5859 383.562 34.1875 385.781 31.8438C388 29.4844 391.18 28.3047 395.32 28.3047C398.352 28.3047 401.07 28.8984 403.477 30.0859L401.367 35.6172C400.242 35.1641 399.195 34.7969 398.227 34.5156C397.258 34.2188 396.289 34.0703 395.32 34.0703C391.602 34.0703 389.742 36.7109 389.742 41.9922C389.742 47.1172 391.602 49.6797 395.32 49.6797C396.695 49.6797 397.969 49.5 399.141 49.1406C400.312 48.7656 401.484 48.1875 402.656 47.4062V53.5234C401.5 54.2578 400.328 54.7656 399.141 55.0469C397.969 55.3281 396.484 55.4688 394.688 55.4688ZM432.938 55H425.789V39.6953C425.789 35.9141 424.383 34.0234 421.57 34.0234C419.57 34.0234 418.125 34.7031 417.234 36.0625C416.344 37.4219 415.898 39.625 415.898 42.6719V55H408.75V18.5312H415.898V25.9609C415.898 26.5391 415.844 27.8984 415.734 30.0391L415.57 32.1484H415.945C417.539 29.5859 420.07 28.3047 423.539 28.3047C426.617 28.3047 428.953 29.1328 430.547 30.7891C432.141 32.4453 432.938 34.8203 432.938 37.9141V55Z" fill="black"/>
</svg>
