<svg width="453" height="123" viewBox="0 0 453 123" fill="none" xmlns="http://www.w3.org/2000/svg">
<path d="M157.15 65.4668C155.1 65.4668 153.512 66.2402 152.387 67.7871C151.262 69.3223 150.699 71.4668 150.699 74.2207C150.699 79.9512 152.85 82.8164 157.15 82.8164C158.955 82.8164 161.141 82.3652 163.707 81.4629V86.0332C161.598 86.9121 159.242 87.3516 156.641 87.3516C152.902 87.3516 150.043 86.2207 148.062 83.959C146.082 81.6855 145.092 78.4277 145.092 74.1855C145.092 71.5137 145.578 69.1758 146.551 67.1719C147.523 65.1562 148.918 63.6152 150.734 62.5488C152.562 61.4707 154.701 60.9316 157.15 60.9316C159.646 60.9316 162.154 61.5352 164.674 62.7422L162.916 67.1719C161.955 66.7148 160.988 66.3164 160.016 65.9766C159.043 65.6367 158.088 65.4668 157.15 65.4668ZM169.191 87V61.3008H174.641V87H169.191ZM192.57 61.3008L182.99 87H178.121L187.701 61.3008H192.57ZM206.896 65.4668C204.846 65.4668 203.258 66.2402 202.133 67.7871C201.008 69.3223 200.445 71.4668 200.445 74.2207C200.445 79.9512 202.596 82.8164 206.896 82.8164C208.701 82.8164 210.887 82.3652 213.453 81.4629V86.0332C211.344 86.9121 208.988 87.3516 206.387 87.3516C202.648 87.3516 199.789 86.2207 197.809 83.959C195.828 81.6855 194.838 78.4277 194.838 74.1855C194.838 71.5137 195.324 69.1758 196.297 67.1719C197.27 65.1562 198.664 63.6152 200.48 62.5488C202.309 61.4707 204.447 60.9316 206.896 60.9316C209.393 60.9316 211.9 61.5352 214.42 62.7422L212.662 67.1719C211.701 66.7148 210.734 66.3164 209.762 65.9766C208.789 65.6367 207.834 65.4668 206.896 65.4668ZM240.26 73.9043C240.26 78.1348 239.053 81.375 236.639 83.625C234.236 85.875 230.762 87 226.215 87H218.938V61.3008H227.006C231.201 61.3008 234.459 62.4082 236.779 64.623C239.1 66.8379 240.26 69.9316 240.26 73.9043ZM234.6 74.0449C234.6 68.5254 232.162 65.7656 227.287 65.7656H224.387V82.5H226.725C231.975 82.5 234.6 79.6816 234.6 74.0449Z" fill="#606060"/>
<path d="M160.32 33.7578H173.914V51.5234C171.711 52.2422 169.633 52.7422 167.68 53.0234C165.742 53.3203 163.758 53.4688 161.727 53.4688C156.555 53.4688 152.602 51.9531 149.867 48.9219C147.148 45.875 145.789 41.5078 145.789 35.8203C145.789 30.2891 147.367 25.9766 150.523 22.8828C153.695 19.7891 158.086 18.2422 163.695 18.2422C167.211 18.2422 170.602 18.9453 173.867 20.3516L171.453 26.1641C168.953 24.9141 166.352 24.2891 163.648 24.2891C160.508 24.2891 157.992 25.3438 156.102 27.4531C154.211 29.5625 153.266 32.3984 153.266 35.9609C153.266 39.6797 154.023 42.5234 155.539 44.4922C157.07 46.4453 159.289 47.4219 162.195 47.4219C163.711 47.4219 165.25 47.2656 166.812 46.9531V39.8047H160.32V33.7578ZM181.227 20.0234C181.227 17.6953 182.523 16.5312 185.117 16.5312C187.711 16.5312 189.008 17.6953 189.008 20.0234C189.008 21.1328 188.68 22 188.023 22.625C187.383 23.2344 186.414 23.5391 185.117 23.5391C182.523 23.5391 181.227 22.3672 181.227 20.0234ZM188.68 53H181.531V26.7969H188.68V53ZM207.242 47.7734C208.492 47.7734 209.992 47.5 211.742 46.9531V52.2734C209.961 53.0703 207.773 53.4688 205.18 53.4688C202.32 53.4688 200.234 52.75 198.922 51.3125C197.625 49.8594 196.977 47.6875 196.977 44.7969V32.1641H193.555V29.1406L197.492 26.75L199.555 21.2188H204.125V26.7969H211.461V32.1641H204.125V44.7969C204.125 45.8125 204.406 46.5625 204.969 47.0469C205.547 47.5312 206.305 47.7734 207.242 47.7734ZM217.625 53V18.7344H224.891V47H238.789V53H217.625ZM260.844 53L259.461 49.4375H259.273C258.07 50.9531 256.828 52.0078 255.547 52.6016C254.281 53.1797 252.625 53.4688 250.578 53.4688C248.062 53.4688 246.078 52.75 244.625 51.3125C243.188 49.875 242.469 47.8281 242.469 45.1719C242.469 42.3906 243.438 40.3438 245.375 39.0312C247.328 37.7031 250.266 36.9688 254.188 36.8281L258.734 36.6875V35.5391C258.734 32.8828 257.375 31.5547 254.656 31.5547C252.562 31.5547 250.102 32.1875 247.273 33.4531L244.906 28.625C247.922 27.0469 251.266 26.2578 254.938 26.2578C258.453 26.2578 261.148 27.0234 263.023 28.5547C264.898 30.0859 265.836 32.4141 265.836 35.5391V53H260.844ZM258.734 40.8594L255.969 40.9531C253.891 41.0156 252.344 41.3906 251.328 42.0781C250.312 42.7656 249.805 43.8125 249.805 45.2188C249.805 47.2344 250.961 48.2422 253.273 48.2422C254.93 48.2422 256.25 47.7656 257.234 46.8125C258.234 45.8594 258.734 44.5938 258.734 43.0156V40.8594ZM287.797 26.3047C290.891 26.3047 293.312 27.5156 295.062 29.9375C296.812 32.3438 297.688 35.6484 297.688 39.8516C297.688 44.1797 296.781 47.5312 294.969 49.9062C293.172 52.2812 290.719 53.4688 287.609 53.4688C284.531 53.4688 282.117 52.3516 280.367 50.1172H279.875L278.68 53H273.219V16.5312H280.367V25.0156C280.367 26.0938 280.273 27.8203 280.086 30.1953H280.367C282.039 27.6016 284.516 26.3047 287.797 26.3047ZM285.5 32.0234C283.734 32.0234 282.445 32.5703 281.633 33.6641C280.82 34.7422 280.398 36.5312 280.367 39.0312V39.8047C280.367 42.6172 280.781 44.6328 281.609 45.8516C282.453 47.0703 283.781 47.6797 285.594 47.6797C287.062 47.6797 288.227 47.0078 289.086 45.6641C289.961 44.3047 290.398 42.3359 290.398 39.7578C290.398 37.1797 289.961 35.25 289.086 33.9688C288.211 32.6719 287.016 32.0234 285.5 32.0234Z" fill="black"/>
<path d="M115.842 47.5514C117.016 49.9681 117.478 52.6579 118.286 55.215C119.771 59.9155 121.075 64.6834 122.523 69.3993C123.487 72.5336 123.059 74.5847 120.596 76.5588C113.035 82.6177 105.437 88.6208 97.8468 94.6336C92.8347 98.6049 87.805 102.551 82.7911 106.522C76.0724 111.844 69.3555 117.17 62.6509 122.513C61.8869 123.121 61.298 123.196 60.465 122.529C51.93 115.675 43.3808 108.847 34.7998 102.062C28.64 97.1926 22.4182 92.417 16.2407 87.5741C11.4656 83.8299 6.70288 80.0702 1.96494 76.2702C0.0442963 74.729 -0.371312 72.5125 0.298968 70.1824C2.05514 64.0715 3.94218 58.0049 5.7797 51.9229C6.27489 50.2798 6.58085 48.5674 7.30065 47.005C7.33425 47.1878 7.36609 47.3725 7.39969 47.5591C8.46966 49.0387 9.54671 50.5126 10.6096 51.9999C15.0787 58.2647 19.5319 64.541 24.0134 70.7962C26.9846 74.9426 30.007 79.0466 32.9782 83.193C36.4393 88.0244 39.8525 92.8961 43.3118 97.7294C47.7898 103.986 52.2483 110.261 56.8147 116.439C58.0244 118.076 58.9723 119.985 60.5959 121.247C60.5729 121.753 60.7922 122.092 61.206 122.3C61.4518 122.719 61.6481 122.317 61.8639 122.252C63.3318 120.393 64.7555 118.504 66.1314 116.555C68.6516 112.985 71.2761 109.501 73.7786 105.911C77.0522 101.216 80.4885 96.6558 83.8204 92.0091C89.0819 84.6707 94.2726 77.2726 99.5817 69.9765C101.95 66.721 104.286 63.4347 106.659 60.183C109.724 55.9789 112.674 51.6728 115.842 47.5514Z" fill="#FAA227"/>
<path d="M7.40177 47.561C7.36817 47.3763 7.33634 47.1916 7.30273 47.0088C8.9015 41.5944 10.4932 36.1782 12.1026 30.7657C14.7943 21.7091 17.5143 12.6602 20.1866 3.59587C20.9984 0.844442 21.6191 -0.0444812 23.0746 0.00169658C25.1226 0.0671151 25.4091 1.86613 25.8866 3.46118C30.1329 17.6474 34.3898 31.8278 38.599 46.0275C38.8819 46.9818 39.2498 47.2993 40.1482 47.2993C54.4222 47.2762 68.6979 47.2801 82.9718 47.2974C83.7783 47.2993 84.1568 47.0511 84.4291 46.1295C88.7143 31.6527 93.0579 17.1952 97.3643 2.72619C97.8064 1.24273 98.3547 -0.023318 100.028 0.0113153C101.512 0.0421005 102.077 1.11381 102.491 2.51069C106.462 15.8792 110.473 29.2322 114.466 42.593C114.926 44.1323 115.336 45.6889 115.77 47.2377C115.241 47.5937 114.652 47.5744 114.061 47.5725C111.299 47.5668 108.534 47.5687 105.772 47.5687C99.5697 47.5687 93.3638 47.6918 87.1668 47.4917C85.3717 47.434 83.9286 47.3378 83.0833 49.3331C82.558 49.3042 81.9142 49.4697 81.603 48.9059C80.9858 47.7861 80.0343 47.9246 79.0828 47.9246C66.7596 47.9285 54.4363 47.9266 42.1131 47.9285C41.6868 47.9285 41.2589 47.9381 40.8326 47.9381C40.3003 47.9362 40.0651 48.2363 40.0633 48.8001C40.0616 49.3638 40.2968 49.6294 40.8291 49.6736C41.4693 49.7275 42.1661 49.4812 43.0822 50.1027C41.8566 50.3528 40.9547 50.5356 40.0509 50.7203C39.9307 50.4606 39.7326 50.2104 39.7043 49.9411C39.4762 47.6899 38.1374 47.5244 36.4024 47.536C26.7338 47.6033 17.0687 47.5629 7.40177 47.561Z" fill="#E2442B"/>
<path d="M83.0797 49.3312C83.9268 47.334 85.37 47.4302 87.1633 47.4898C93.3603 47.6899 99.5661 47.5668 105.768 47.5668C108.531 47.5668 111.295 47.5629 114.058 47.5706C114.648 47.5726 115.237 47.5918 115.766 47.2358C115.856 47.3224 115.879 47.4283 115.839 47.5514C112.673 51.6728 109.721 55.9788 106.654 60.1829C104.283 63.4346 101.947 66.7209 99.5767 69.9765C94.2675 77.2726 89.0768 84.6726 83.8154 92.0091C80.4835 96.6557 77.0472 101.216 73.7736 105.911C71.2711 109.501 68.6466 112.985 66.1264 116.554C64.7505 118.504 63.3268 120.391 61.8589 122.252C62.416 119.498 63.2843 116.835 63.9811 114.126C65.6896 107.484 67.6544 100.908 69.8032 94.418C72.0935 87.499 73.5737 80.2895 76.2637 73.5168C76.9322 71.8351 77.5689 70.0765 77.8359 68.2852C78.1101 66.4477 78.7326 64.7584 79.203 63.0094C80.4392 58.432 81.7816 53.8893 83.0797 49.3312Z" fill="#FB6D27"/>
<path d="M83.0799 49.3311C81.7817 53.8892 80.4394 58.432 79.2085 63.0113C78.7381 64.7603 78.1156 66.4496 77.8414 68.2871C77.5744 70.0784 76.9377 71.837 76.2692 73.5187C73.5792 80.2914 72.1007 87.5009 69.8087 94.4199C67.6599 100.91 65.695 107.486 63.9866 114.128C63.2898 116.835 62.4215 119.5 61.8644 122.254C61.6486 122.319 61.4523 122.721 61.2065 122.302C61.2418 121.788 61.2542 121.29 60.5963 121.249C60.9359 119.754 59.8394 118.527 59.9419 117.078C59.9225 116.406 60.9553 116.05 60.4601 115.279C60.14 114.78 59.705 115.417 59.3123 115.319C59.1072 114.846 58.8366 114.394 58.7093 113.899C57.4784 109.054 55.9468 104.313 54.5143 99.5379C51.4989 89.4866 48.5065 79.4275 45.4929 69.3761C45.2736 68.6469 45.1268 67.9254 45.171 67.1596C45.5548 64.6506 44.6935 62.2686 44.5326 59.8154C44.5061 59.4075 44.3469 59.1497 43.926 59.2728C43.5281 59.3883 43.1496 59.1343 43.3034 58.8091C43.9295 57.4853 41.2678 56.2809 43.2186 54.9244C43.3706 54.8186 43.2504 54.1471 43.169 53.7584C42.8277 52.1422 41.8692 51.3745 40.35 51.4264C40.0953 51.2667 40.0511 51.0031 40.0493 50.7184C40.9513 50.5337 41.855 50.3509 43.0806 50.1007C42.1645 49.4773 41.4677 49.7255 40.8275 49.6717C40.2951 49.6274 40.0617 49.3619 40.0617 48.7981C40.0635 48.2344 40.2987 47.9342 40.831 47.9362C41.2572 47.9362 41.6852 47.9265 42.1114 47.9265C54.4347 47.9265 66.7579 47.9285 79.0812 47.9227C80.0327 47.9227 80.9824 47.7842 81.6014 48.904C81.9109 49.4677 82.5546 49.3023 83.0799 49.3311Z" fill="#E24329"/>
<path d="M45.1703 67.1576C45.1261 67.9234 45.2729 68.6449 45.4922 69.3741C48.5075 79.4255 51.4982 89.4845 54.5135 99.5359C55.9461 104.311 57.4776 109.052 58.7085 113.897C58.8341 114.394 59.1065 114.846 59.3116 115.317C59.2886 116.002 59.4495 116.61 59.9412 117.076C59.8404 118.527 60.9351 119.754 60.5956 121.247C58.9738 119.985 58.0241 118.076 56.8144 116.439C52.248 110.261 47.7895 103.986 43.3115 97.7292C39.8523 92.8959 36.4372 88.0242 32.9779 83.1928C30.0085 79.0445 26.9843 74.9424 24.0132 70.796C19.5334 64.5408 15.0785 58.2645 10.6093 51.9997C9.5482 50.5124 8.46939 49.0386 7.39941 47.5589C17.0663 47.5609 26.7332 47.6013 36.3983 47.532C38.1332 47.5205 39.4738 47.6859 39.7002 49.9371C39.7267 50.2084 39.9265 50.4566 40.0468 50.7163C40.0486 51.0011 40.0928 51.2666 40.3475 51.4244C40.4217 51.9285 40.4377 52.4557 40.5827 52.9348C41.3485 55.4611 42.1461 57.974 42.9331 60.4926C42.9331 60.7812 42.9861 61.0409 43.2355 61.2045C43.3735 62.9977 44.1728 64.5947 44.5159 66.3245C44.6061 66.7689 44.7228 67.0922 45.1703 67.1576Z" fill="#FB6D26"/>
<path d="M60.5956 121.249C61.2535 121.29 61.2394 121.788 61.2058 122.302C60.7919 122.094 60.5709 121.755 60.5956 121.249Z" fill="#FB6D26"/>
<path d="M42.9347 60.4965C42.1477 57.9779 41.3501 55.4651 40.5843 52.9388C40.4393 52.4597 40.4252 51.9325 40.3491 51.4284C41.8683 51.3764 42.8269 52.146 43.1682 53.7603C43.2495 54.1471 43.3698 54.8186 43.2177 54.9263C41.2688 56.2809 43.9304 57.4873 43.3026 58.811C43.1487 59.1343 43.5272 59.3902 43.9251 59.2747C44.346 59.1516 44.5052 59.4094 44.5317 59.8173C44.6927 62.2705 45.554 64.6506 45.1702 67.1615C44.7227 67.0961 44.606 66.7709 44.5194 66.3303C44.1745 64.6006 43.3769 63.0036 43.2389 61.2104C43.75 60.6601 43.3556 60.5716 42.9347 60.4965Z" fill="#E2442B"/>
<path d="M59.9413 117.078C59.4496 116.61 59.2887 116.004 59.3117 115.319C59.7043 115.417 60.1394 114.78 60.4595 115.279C60.9529 116.05 59.9218 116.406 59.9413 117.078Z" fill="#E2442B"/>
<path d="M42.9351 60.4965C43.356 60.5715 43.7504 60.6619 43.2375 61.2084C42.9881 61.0448 42.9351 60.7831 42.9351 60.4965Z" fill="#E24329"/>
</svg>
