<svg width="299" height="126" viewBox="0 0 299 126" fill="none" xmlns="http://www.w3.org/2000/svg">
<path d="M25.3727 110.806C24.6324 110.03 23.7183 109.466 22.9096 108.772C13.4325 100.657 6.37539 90.8844 2.5275 78.9286C1.19929 74.8014 0.421899 70.5629 0.113286 66.2364C0.105473 66.1153 0.166026 65.9649 0 65.8926C0 63.5233 0 61.1541 0 58.7848C0.134774 58.7262 0.103519 58.6031 0.113286 58.4957C0.218761 57.2612 0.310566 56.0248 0.433621 54.7923C0.998109 49.1885 2.1388 43.7038 3.95727 38.3714C8.02002 26.4546 14.5575 16.204 24.3199 8.10975C25.7379 6.9339 26.7868 5.42404 27.0329 3.50205C27.0915 3.04304 27.1306 2.58011 27.1911 2C27.3728 2.34963 27.4958 2.59183 27.6209 2.83404C27.6189 2.8731 27.615 2.91021 27.613 2.94928C27.4822 3.09382 27.5115 3.27156 27.5388 3.43173C27.8904 5.53342 27.9412 7.66051 28.0701 9.77783C28.1834 11.6412 28.2225 13.5124 28.3025 15.3797C28.3748 17.0615 28.3357 18.7491 28.4178 20.4328C28.4861 21.8567 28.4315 23.2845 28.4315 24.7123C28.4315 25.7026 28.4256 26.6929 28.4354 27.6832C28.4373 27.8961 28.3494 28.1364 28.5428 28.32C28.5428 29.6834 28.5447 31.0467 28.5447 32.4101C28.5447 32.6347 28.5369 32.8593 28.6541 33.0625C28.5135 33.1738 28.5467 33.3301 28.5467 33.4766C28.5447 35.2677 28.5447 37.0588 28.5467 38.848C28.5467 38.9925 28.5154 39.1507 28.6561 39.2601C28.658 42.4927 28.658 45.7273 28.66 48.9599C28.66 52.3371 28.658 55.7143 28.6619 59.0914C28.6619 59.2887 28.5858 59.5094 28.7674 59.6774C28.6971 61.3084 28.8924 62.9335 28.8866 64.5625C28.8826 65.8399 28.8866 67.1154 28.8826 68.3928C28.8826 68.6194 28.8748 68.844 28.992 69.0491C28.8104 69.2171 28.8866 69.4358 28.8866 69.6331C28.8807 71.2055 28.8826 72.7778 28.8826 74.3502C28.8846 77.7195 28.8787 81.0869 28.6756 84.4543C28.5799 86.0365 28.5174 87.6245 28.4529 89.2105C28.3709 91.2633 28.1424 93.3045 28.0818 95.3574C27.906 95.6503 27.9978 95.9765 27.9646 96.2871C27.6677 99.1545 27.4099 102.026 26.9665 104.876C26.6872 106.671 26.404 108.466 25.8532 110.202C25.7711 110.462 25.7594 110.79 25.3727 110.806Z" fill="#69B140"/>
<path d="M28.0802 95.3632C28.1388 93.3104 28.3692 91.2692 28.4513 89.2164C28.5138 87.6303 28.5782 86.0443 28.6739 84.4602C28.8771 81.0928 28.8829 77.7254 28.881 74.3561C29.0548 74.2096 28.9904 74.0084 28.9904 73.8306C28.9943 72.2387 28.9904 70.6488 28.9904 69.0569C28.8732 68.8518 28.881 68.6272 28.881 68.4006C28.8829 67.1232 28.879 65.8477 28.8849 64.5703C28.8907 62.9413 28.6954 61.3162 28.7657 59.6852C28.7677 56.2885 28.7697 52.8918 28.7677 49.4971C28.7677 49.3174 28.8282 49.1162 28.6583 48.9678C28.6564 45.7351 28.6564 42.5006 28.6544 39.2679C28.6544 37.2014 28.6544 35.1349 28.6525 33.0703C28.5353 32.8652 28.5431 32.6425 28.5431 32.4179C28.545 31.0545 28.5431 29.6912 28.5411 28.3278C28.5411 27.3004 28.545 26.273 28.5392 25.2436C28.5392 25.0639 28.6036 24.8647 28.4298 24.7182C28.4298 23.2923 28.4845 21.8626 28.4161 20.4386C28.3341 18.753 28.3731 17.0673 28.3009 15.3856C28.2208 13.5183 28.1837 11.6471 28.0684 9.78369C27.9395 7.66637 27.8868 5.53733 27.5372 3.43759C27.5098 3.27742 27.4805 3.09773 27.6114 2.95514C27.7754 3.2911 27.9395 3.62706 28.1036 3.96302C28.2345 4.36343 28.4063 4.74431 28.6368 5.09785C28.6993 5.34787 28.8126 5.57249 28.9747 5.77367C29.1173 6.17409 29.2892 6.55888 29.5509 6.89679C29.6095 7.15462 29.758 7.36557 29.9103 7.57261C30.3225 8.42228 30.887 9.17818 31.3909 9.9712C31.4847 10.0864 31.5804 10.2036 31.6741 10.3189C32.0081 10.8228 32.4261 11.2525 32.8637 11.6627C32.9652 11.8385 33.098 11.983 33.2738 12.0846C34.397 13.2624 35.5201 14.4402 36.6432 15.618C36.6666 15.7411 36.7506 15.8134 36.8541 15.87C37.4303 16.5224 38.0046 17.1748 38.5808 17.8291C38.616 17.8701 38.6511 17.9111 38.6882 17.9522C38.9148 18.292 39.1687 18.6085 39.4656 18.8878C39.6043 19.0616 39.743 19.2374 39.8817 19.4112C40.0125 19.6378 40.1668 19.8468 40.3719 20.0128C40.368 20.05 40.3837 20.0773 40.4188 20.0929C41.079 20.9777 41.7372 21.8606 42.3974 22.7454C42.3916 22.7767 42.4033 22.7943 42.4326 22.8021C42.9483 23.5638 43.4639 24.3237 43.9796 25.0854C44.0128 25.2593 44.1319 25.3823 44.2413 25.5093C44.7472 26.3433 45.2531 27.1754 45.759 28.0094C45.802 28.0817 45.8469 28.152 45.8899 28.2243C46.1164 28.736 46.3918 29.2185 46.7024 29.6834C46.7688 29.9353 46.9016 30.1541 47.0559 30.3611C47.2356 30.7049 47.4153 31.0506 47.595 31.3944C47.6478 31.5018 47.6986 31.6073 47.7513 31.7147C47.9935 32.2089 48.2338 32.7011 48.476 33.1953C48.5463 33.3457 48.6166 33.4981 48.6869 33.6485C49.1947 34.8087 49.7026 35.9689 50.2124 37.1291C50.3101 37.4866 50.439 37.8323 50.6265 38.1526C50.7417 38.5804 50.8921 38.9945 51.1011 39.3851C51.1206 39.6312 51.2359 39.8461 51.3414 40.061C51.4996 40.52 51.6597 40.979 51.818 41.436C51.8453 41.5044 51.8726 41.5728 51.898 41.6392C51.9488 41.7974 51.9996 41.9556 52.0504 42.1138C52.1051 42.2584 52.1598 42.4029 52.2145 42.5455C52.4235 43.3912 52.6911 44.2175 52.9879 45.0359C53.0465 45.2566 53.1032 45.4793 53.1618 45.7C53.2712 46.077 53.3806 46.452 53.4899 46.829C53.4763 46.9188 53.4899 47.0008 53.5681 47.0594C53.5915 47.3739 53.6677 47.6747 53.8083 47.9579C53.8239 48.3134 53.9529 48.6396 54.0544 48.9736C54.2673 49.9151 54.4822 50.8566 54.6951 51.798C54.8767 53.5149 55.1541 55.2181 55.3025 56.9409C55.6033 60.4275 55.6561 63.9121 55.4119 67.4064C55.0174 73.0239 53.865 78.4735 51.8941 83.7492C49.1576 91.0719 45.0851 97.5704 39.7567 103.282C37.5085 105.692 35.0923 107.913 32.391 109.813C30.9046 108.999 30.1838 107.612 29.6564 106.102C28.4454 102.623 28.2364 98.9963 28.0802 95.3632Z" fill="#599636"/>
<path d="M28.0802 95.3633C28.2365 98.9963 28.4435 102.623 29.6604 106.098C30.1878 107.608 30.9085 108.997 32.395 109.809C32.2719 110.235 31.9594 110.55 31.7387 110.917C30.9261 112.261 30.7152 113.761 30.5765 115.277C30.3382 117.9 30.4573 120.531 30.473 123.158C30.4769 124 30.5511 124.842 30.6312 125.68C30.6605 125.996 30.596 126.055 30.3089 125.957C29.4045 125.648 28.4963 125.344 27.5861 125.051C27.3712 124.982 27.2872 124.871 27.297 124.646C27.3517 123.539 27.2501 122.435 27.1915 121.332C27.006 117.828 26.6505 114.353 25.4063 111.03C25.3809 110.962 25.3828 110.882 25.373 110.808C25.7598 110.792 25.7735 110.464 25.8535 110.21C26.4044 108.471 26.6876 106.678 26.9669 104.883C27.4103 102.034 27.6681 99.1623 27.965 96.2949C27.9963 95.9824 27.9045 95.6543 28.0802 95.3633Z" fill="#C1BFBE"/>
<path d="M28.6565 48.9658C28.8264 49.1143 28.7659 49.3135 28.7659 49.4951C28.7678 52.8918 28.7659 56.2885 28.7639 59.6833C28.5823 59.5153 28.6584 59.2946 28.6584 59.0973C28.6545 55.7221 28.6545 52.343 28.6565 48.9658Z" fill="#76B354"/>
<path d="M28.6505 33.0683C28.6505 35.1349 28.6505 37.2014 28.6524 39.266C28.5118 39.1566 28.5431 38.9984 28.5431 38.8539C28.5411 37.0627 28.5411 35.2716 28.5431 33.4824C28.5431 33.3359 28.5118 33.1777 28.6505 33.0683Z" fill="#76B354"/>
<path d="M28.9905 69.055C28.9924 70.6469 28.9944 72.2368 28.9905 73.8287C28.9905 74.0084 29.0549 74.2076 28.8811 74.3541C28.8811 72.7818 28.8772 71.2094 28.885 69.637C28.885 69.4437 28.8088 69.2229 28.9905 69.055Z" fill="#76B354"/>
<path d="M28.4304 24.7143C28.6023 24.8608 28.5378 25.06 28.5398 25.2397C28.5456 26.2671 28.5417 27.2945 28.5417 28.3239C28.3483 28.1383 28.4362 27.9 28.4343 27.6852C28.4245 26.6949 28.4304 25.7046 28.4304 24.7143Z" fill="#76B354"/>
<path d="M80.8203 51L72.5703 24.1172H72.3594C72.6562 29.5859 72.8047 33.2344 72.8047 35.0625V51H66.3125V16.7344H76.2031L84.3125 42.9375H84.4531L93.0547 16.7344H102.945V51H96.1719V34.7812C96.1719 34.0156 96.1797 33.1328 96.1953 32.1328C96.2266 31.1328 96.3359 28.4766 96.5234 24.1641H96.3125L87.4766 51H80.8203ZM116.727 37.8516C116.727 40.4453 117.148 42.4062 117.992 43.7344C118.852 45.0625 120.242 45.7266 122.164 45.7266C124.07 45.7266 125.438 45.0703 126.266 43.7578C127.109 42.4297 127.531 40.4609 127.531 37.8516C127.531 35.2578 127.109 33.3125 126.266 32.0156C125.422 30.7188 124.039 30.0703 122.117 30.0703C120.211 30.0703 118.836 30.7188 117.992 32.0156C117.148 33.2969 116.727 35.2422 116.727 37.8516ZM134.844 37.8516C134.844 42.1172 133.719 45.4531 131.469 47.8594C129.219 50.2656 126.086 51.4688 122.07 51.4688C119.555 51.4688 117.336 50.9219 115.414 49.8281C113.492 48.7188 112.016 47.1328 110.984 45.0703C109.953 43.0078 109.438 40.6016 109.438 37.8516C109.438 33.5703 110.555 30.2422 112.789 27.8672C115.023 25.4922 118.164 24.3047 122.211 24.3047C124.727 24.3047 126.945 24.8516 128.867 25.9453C130.789 27.0391 132.266 28.6094 133.297 30.6562C134.328 32.7031 134.844 35.1016 134.844 37.8516ZM164.938 51H157.789V35.6953C157.789 33.8047 157.453 32.3906 156.781 31.4531C156.109 30.5 155.039 30.0234 153.57 30.0234C151.57 30.0234 150.125 30.6953 149.234 32.0391C148.344 33.3672 147.898 35.5781 147.898 38.6719V51H140.75V24.7969H146.211L147.172 28.1484H147.57C148.367 26.8828 149.461 25.9297 150.852 25.2891C152.258 24.6328 153.852 24.3047 155.633 24.3047C158.68 24.3047 160.992 25.1328 162.57 26.7891C164.148 28.4297 164.938 30.8047 164.938 33.9141V51ZM195.102 24.7969V28.4297L191 29.4844C191.75 30.6562 192.125 31.9688 192.125 33.4219C192.125 36.2344 191.141 38.4297 189.172 40.0078C187.219 41.5703 184.5 42.3516 181.016 42.3516L179.727 42.2812L178.672 42.1641C177.938 42.7266 177.57 43.3516 177.57 44.0391C177.57 45.0703 178.883 45.5859 181.508 45.5859H185.961C188.836 45.5859 191.023 46.2031 192.523 47.4375C194.039 48.6719 194.797 50.4844 194.797 52.875C194.797 55.9375 193.516 58.3125 190.953 60C188.406 61.6875 184.742 62.5312 179.961 62.5312C176.305 62.5312 173.508 61.8906 171.57 60.6094C169.648 59.3438 168.688 57.5625 168.688 55.2656C168.688 53.6875 169.18 52.3672 170.164 51.3047C171.148 50.2422 172.594 49.4844 174.5 49.0312C173.766 48.7188 173.125 48.2109 172.578 47.5078C172.031 46.7891 171.758 46.0312 171.758 45.2344C171.758 44.2344 172.047 43.4062 172.625 42.75C173.203 42.0781 174.039 41.4219 175.133 40.7812C173.758 40.1875 172.664 39.2344 171.852 37.9219C171.055 36.6094 170.656 35.0625 170.656 33.2812C170.656 30.4219 171.586 28.2109 173.445 26.6484C175.305 25.0859 177.961 24.3047 181.414 24.3047C182.148 24.3047 183.016 24.375 184.016 24.5156C185.031 24.6406 185.68 24.7344 185.961 24.7969H195.102ZM174.875 54.7031C174.875 55.6875 175.344 56.4609 176.281 57.0234C177.234 57.5859 178.562 57.8672 180.266 57.8672C182.828 57.8672 184.836 57.5156 186.289 56.8125C187.742 56.1094 188.469 55.1484 188.469 53.9297C188.469 52.9453 188.039 52.2656 187.18 51.8906C186.32 51.5156 184.992 51.3281 183.195 51.3281H179.492C178.18 51.3281 177.078 51.6328 176.188 52.2422C175.312 52.8672 174.875 53.6875 174.875 54.7031ZM177.477 33.375C177.477 34.7969 177.797 35.9219 178.438 36.75C179.094 37.5781 180.086 37.9922 181.414 37.9922C182.758 37.9922 183.742 37.5781 184.367 36.75C184.992 35.9219 185.305 34.7969 185.305 33.375C185.305 30.2188 184.008 28.6406 181.414 28.6406C178.789 28.6406 177.477 30.2188 177.477 33.375ZM205.133 37.8516C205.133 40.4453 205.555 42.4062 206.398 43.7344C207.258 45.0625 208.648 45.7266 210.57 45.7266C212.477 45.7266 213.844 45.0703 214.672 43.7578C215.516 42.4297 215.938 40.4609 215.938 37.8516C215.938 35.2578 215.516 33.3125 214.672 32.0156C213.828 30.7188 212.445 30.0703 210.523 30.0703C208.617 30.0703 207.242 30.7188 206.398 32.0156C205.555 33.2969 205.133 35.2422 205.133 37.8516ZM223.25 37.8516C223.25 42.1172 222.125 45.4531 219.875 47.8594C217.625 50.2656 214.492 51.4688 210.477 51.4688C207.961 51.4688 205.742 50.9219 203.82 49.8281C201.898 48.7188 200.422 47.1328 199.391 45.0703C198.359 43.0078 197.844 40.6016 197.844 37.8516C197.844 33.5703 198.961 30.2422 201.195 27.8672C203.43 25.4922 206.57 24.3047 210.617 24.3047C213.133 24.3047 215.352 24.8516 217.273 25.9453C219.195 27.0391 220.672 28.6094 221.703 30.6562C222.734 32.7031 223.25 35.1016 223.25 37.8516ZM258.148 33.5391C258.148 39.1797 256.539 43.5 253.32 46.5C250.117 49.5 245.484 51 239.422 51H229.719V16.7344H240.477C246.07 16.7344 250.414 18.2109 253.508 21.1641C256.602 24.1172 258.148 28.2422 258.148 33.5391ZM250.602 33.7266C250.602 26.3672 247.352 22.6875 240.852 22.6875H236.984V45H240.102C247.102 45 250.602 41.2422 250.602 33.7266ZM265.25 16.7344H275.914C280.773 16.7344 284.297 17.4297 286.484 18.8203C288.688 20.1953 289.789 22.3906 289.789 25.4062C289.789 27.4531 289.305 29.1328 288.336 30.4453C287.383 31.7578 286.109 32.5469 284.516 32.8125V33.0469C286.688 33.5312 288.25 34.4375 289.203 35.7656C290.172 37.0938 290.656 38.8594 290.656 41.0625C290.656 44.1875 289.523 46.625 287.258 48.375C285.008 50.125 281.945 51 278.07 51H265.25V16.7344ZM272.516 30.3047H276.734C278.703 30.3047 280.125 30 281 29.3906C281.891 28.7812 282.336 27.7734 282.336 26.3672C282.336 25.0547 281.852 24.1172 280.883 23.5547C279.93 22.9766 278.414 22.6875 276.336 22.6875H272.516V30.3047ZM272.516 36.0703V45H277.25C279.25 45 280.727 44.6172 281.68 43.8516C282.633 43.0859 283.109 41.9141 283.109 40.3359C283.109 37.4922 281.078 36.0703 277.016 36.0703H272.516Z" fill="black"/>
<path d="M90.0332 92H83.1074L71.9277 72.5586H71.7695C71.9922 75.9922 72.1035 78.4414 72.1035 79.9062V92H67.2344V66.3008H74.1074L85.2695 85.5488H85.3926C85.2168 82.209 85.1289 79.8477 85.1289 78.4648V66.3008H90.0332V92ZM119.846 79.1152C119.846 83.3691 118.791 86.6387 116.682 88.9238C114.572 91.209 111.549 92.3516 107.611 92.3516C103.674 92.3516 100.65 91.209 98.541 88.9238C96.4316 86.6387 95.377 83.3574 95.377 79.0801C95.377 74.8027 96.4316 71.5391 98.541 69.2891C100.662 67.0273 103.697 65.8965 107.646 65.8965C111.596 65.8965 114.613 67.0332 116.699 69.3066C118.797 71.5801 119.846 74.8496 119.846 79.1152ZM101.09 79.1152C101.09 81.9863 101.635 84.1484 102.725 85.6016C103.814 87.0547 105.443 87.7812 107.611 87.7812C111.959 87.7812 114.133 84.8926 114.133 79.1152C114.133 73.3262 111.971 70.4316 107.646 70.4316C105.479 70.4316 103.844 71.1641 102.742 72.6289C101.641 74.082 101.09 76.2441 101.09 79.1152ZM140.342 84.8633C140.342 87.1836 139.504 89.0117 137.828 90.3477C136.164 91.6836 133.844 92.3516 130.867 92.3516C128.125 92.3516 125.699 91.8359 123.59 90.8047V85.7422C125.324 86.5156 126.789 87.0605 127.984 87.377C129.191 87.6934 130.293 87.8516 131.289 87.8516C132.484 87.8516 133.398 87.623 134.031 87.166C134.676 86.709 134.998 86.0293 134.998 85.127C134.998 84.623 134.857 84.1777 134.576 83.791C134.295 83.3926 133.879 83.0117 133.328 82.6484C132.789 82.2852 131.682 81.7051 130.006 80.9082C128.436 80.1699 127.258 79.4609 126.473 78.7812C125.688 78.1016 125.061 77.3105 124.592 76.4082C124.123 75.5059 123.889 74.4512 123.889 73.2441C123.889 70.9707 124.656 69.1836 126.191 67.8828C127.738 66.582 129.871 65.9316 132.59 65.9316C133.926 65.9316 135.197 66.0898 136.404 66.4062C137.623 66.7227 138.895 67.168 140.219 67.7422L138.461 71.9785C137.09 71.416 135.953 71.0234 135.051 70.8008C134.16 70.5781 133.281 70.4668 132.414 70.4668C131.383 70.4668 130.592 70.707 130.041 71.1875C129.49 71.668 129.215 72.2949 129.215 73.0684C129.215 73.5488 129.326 73.9707 129.549 74.334C129.771 74.6855 130.123 75.0312 130.604 75.3711C131.096 75.6992 132.25 76.2969 134.066 77.1641C136.469 78.3125 138.115 79.4668 139.006 80.627C139.896 81.7754 140.342 83.1875 140.342 84.8633ZM168.326 79.1152C168.326 82.1387 167.787 84.6758 166.709 86.7266C165.643 88.7656 164.072 90.2598 161.998 91.209L168.186 98.1172H161.207L156.496 92.3516H156.092C152.154 92.3516 149.131 91.209 147.021 88.9238C144.912 86.6387 143.857 83.3574 143.857 79.0801C143.857 74.8027 144.912 71.5391 147.021 69.2891C149.143 67.0273 152.178 65.8965 156.127 65.8965C160.076 65.8965 163.094 67.0332 165.18 69.3066C167.277 71.5801 168.326 74.8496 168.326 79.1152ZM149.57 79.1152C149.57 81.9863 150.115 84.1484 151.205 85.6016C152.295 87.0547 153.924 87.7812 156.092 87.7812C160.439 87.7812 162.613 84.8926 162.613 79.1152C162.613 73.3262 160.451 70.4316 156.127 70.4316C153.959 70.4316 152.324 71.1641 151.223 72.6289C150.121 74.082 149.57 76.2441 149.57 79.1152ZM173.652 92V66.3008H179.102V87.5H189.525V92H173.652ZM224.682 78.9043C224.682 83.1348 223.475 86.375 221.061 88.625C218.658 90.875 215.184 92 210.637 92H203.359V66.3008H211.428C215.623 66.3008 218.881 67.4082 221.201 69.623C223.521 71.8379 224.682 74.9316 224.682 78.9043ZM219.021 79.0449C219.021 73.5254 216.584 70.7656 211.709 70.7656H208.809V87.5H211.146C216.396 87.5 219.021 84.6816 219.021 79.0449ZM230.008 66.3008H238.006C241.65 66.3008 244.293 66.8223 245.934 67.8652C247.586 68.8965 248.412 70.543 248.412 72.8047C248.412 74.3398 248.049 75.5996 247.322 76.584C246.607 77.5684 245.652 78.1602 244.457 78.3594V78.5352C246.086 78.8984 247.258 79.5781 247.973 80.5742C248.699 81.5703 249.062 82.8945 249.062 84.5469C249.062 86.8906 248.213 88.7188 246.514 90.0312C244.826 91.3438 242.529 92 239.623 92H230.008V66.3008ZM235.457 76.4785H238.621C240.098 76.4785 241.164 76.25 241.82 75.793C242.488 75.3359 242.822 74.5801 242.822 73.5254C242.822 72.541 242.459 71.8379 241.732 71.416C241.018 70.9824 239.881 70.7656 238.322 70.7656H235.457V76.4785ZM235.457 80.8027V87.5H239.008C240.508 87.5 241.615 87.2129 242.33 86.6387C243.045 86.0645 243.402 85.1855 243.402 84.002C243.402 81.8691 241.879 80.8027 238.832 80.8027H235.457Z" fill="#606060"/>
</svg>
