<svg width="416" height="123" viewBox="0 0 416 123" fill="none" xmlns="http://www.w3.org/2000/svg">
<path d="M126.852 62.2386L126.797 62.1626L126.852 62.2386Z" fill="#B5D118"/>
<path d="M155.481 5.55533L146.336 6.09949L125.977 61.2013L101.729 32.8218L92.1348 30.4271L43.0112 -1.4839e-07L52.5416 31.0139L52.5665 31.1551L27.427 27.6249L55.2593 81.1977L81.6697 98.5238L0 123L112.95 109.759L112.92 90.2344L116.785 89.1021L145.256 80.7798L153.591 18.7444L176.255 33.5015L155.481 5.55533Z" fill="#B5D118"/>
<path d="M213.711 54H204.477L189.57 28.0781H189.359C189.656 32.6562 189.805 35.9219 189.805 37.875V54H183.312V19.7344H192.477L207.359 45.3984H207.523C207.289 40.9453 207.172 37.7969 207.172 35.9531V19.7344H213.711V54ZM240.359 54L239.398 50.6484H239.023C238.258 51.8672 237.172 52.8125 235.766 53.4844C234.359 54.1406 232.758 54.4688 230.961 54.4688C227.883 54.4688 225.562 53.6484 224 52.0078C222.438 50.3516 221.656 47.9766 221.656 44.8828V27.7969H228.805V43.1016C228.805 44.9922 229.141 46.4141 229.812 47.3672C230.484 48.3047 231.555 48.7734 233.023 48.7734C235.023 48.7734 236.469 48.1094 237.359 46.7812C238.25 45.4375 238.695 43.2188 238.695 40.125V27.7969H245.844V54H240.359ZM259.039 40.8516C259.039 43.4453 259.461 45.4062 260.305 46.7344C261.164 48.0625 262.555 48.7266 264.477 48.7266C266.383 48.7266 267.75 48.0703 268.578 46.7578C269.422 45.4297 269.844 43.4609 269.844 40.8516C269.844 38.2578 269.422 36.3125 268.578 35.0156C267.734 33.7188 266.352 33.0703 264.43 33.0703C262.523 33.0703 261.148 33.7188 260.305 35.0156C259.461 36.2969 259.039 38.2422 259.039 40.8516ZM277.156 40.8516C277.156 45.1172 276.031 48.4531 273.781 50.8594C271.531 53.2656 268.398 54.4688 264.383 54.4688C261.867 54.4688 259.648 53.9219 257.727 52.8281C255.805 51.7188 254.328 50.1328 253.297 48.0703C252.266 46.0078 251.75 43.6016 251.75 40.8516C251.75 36.5703 252.867 33.2422 255.102 30.8672C257.336 28.4922 260.477 27.3047 264.523 27.3047C267.039 27.3047 269.258 27.8516 271.18 28.9453C273.102 30.0391 274.578 31.6094 275.609 33.6562C276.641 35.7031 277.156 38.1016 277.156 40.8516ZM312.055 36.5391C312.055 42.1797 310.445 46.5 307.227 49.5C304.023 52.5 299.391 54 293.328 54H283.625V19.7344H294.383C299.977 19.7344 304.32 21.2109 307.414 24.1641C310.508 27.1172 312.055 31.2422 312.055 36.5391ZM304.508 36.7266C304.508 29.3672 301.258 25.6875 294.758 25.6875H290.891V48H294.008C301.008 48 304.508 44.2422 304.508 36.7266ZM319.156 19.7344H329.82C334.68 19.7344 338.203 20.4297 340.391 21.8203C342.594 23.1953 343.695 25.3906 343.695 28.4062C343.695 30.4531 343.211 32.1328 342.242 33.4453C341.289 34.7578 340.016 35.5469 338.422 35.8125V36.0469C340.594 36.5312 342.156 37.4375 343.109 38.7656C344.078 40.0938 344.562 41.8594 344.562 44.0625C344.562 47.1875 343.43 49.625 341.164 51.375C338.914 53.125 335.852 54 331.977 54H319.156V19.7344ZM326.422 33.3047H330.641C332.609 33.3047 334.031 33 334.906 32.3906C335.797 31.7812 336.242 30.7734 336.242 29.3672C336.242 28.0547 335.758 27.1172 334.789 26.5547C333.836 25.9766 332.32 25.6875 330.242 25.6875H326.422V33.3047ZM326.422 39.0703V48H331.156C333.156 48 334.633 47.6172 335.586 46.8516C336.539 46.0859 337.016 44.9141 337.016 43.3359C337.016 40.4922 334.984 39.0703 330.922 39.0703H326.422Z" fill="black"/>
<path d="M197.035 89H182.234V63.3008H197.035V67.7656H187.684V73.4082H196.385V77.873H187.684V84.5H197.035V89ZM207.354 89H201.992V61.6484H207.354V89ZM225.477 89L224.439 86.3281H224.299C223.396 87.4648 222.465 88.2559 221.504 88.7012C220.555 89.1348 219.312 89.3516 217.777 89.3516C215.891 89.3516 214.402 88.8125 213.312 87.7344C212.234 86.6562 211.695 85.1211 211.695 83.1289C211.695 81.043 212.422 79.5078 213.875 78.5234C215.34 77.5273 217.543 76.9766 220.484 76.8711L223.895 76.7656V75.9043C223.895 73.9121 222.875 72.916 220.836 72.916C219.266 72.916 217.42 73.3906 215.299 74.3398L213.523 70.7188C215.785 69.5352 218.293 68.9434 221.047 68.9434C223.684 68.9434 225.705 69.5176 227.111 70.666C228.518 71.8145 229.221 73.5605 229.221 75.9043V89H225.477ZM223.895 79.8945L221.82 79.9648C220.262 80.0117 219.102 80.293 218.34 80.8086C217.578 81.3242 217.197 82.1094 217.197 83.1641C217.197 84.6758 218.064 85.4316 219.799 85.4316C221.041 85.4316 222.031 85.0742 222.77 84.3594C223.52 83.6445 223.895 82.6953 223.895 81.5117V79.8945ZM248.469 83.1641C248.469 85.1797 247.766 86.7148 246.359 87.7695C244.965 88.8242 242.873 89.3516 240.084 89.3516C238.654 89.3516 237.436 89.252 236.428 89.0527C235.42 88.8652 234.477 88.584 233.598 88.209V83.7793C234.594 84.248 235.713 84.6406 236.955 84.957C238.209 85.2734 239.311 85.4316 240.26 85.4316C242.205 85.4316 243.178 84.8691 243.178 83.7441C243.178 83.3223 243.049 82.9824 242.791 82.7246C242.533 82.4551 242.088 82.1562 241.455 81.8281C240.822 81.4883 239.979 81.0957 238.924 80.6504C237.412 80.0176 236.299 79.4316 235.584 78.8926C234.881 78.3535 234.365 77.7383 234.037 77.0469C233.721 76.3438 233.562 75.4824 233.562 74.4629C233.562 72.7168 234.236 71.3691 235.584 70.4199C236.943 69.459 238.865 68.9785 241.35 68.9785C243.717 68.9785 246.02 69.4941 248.258 70.5254L246.641 74.3926C245.656 73.9707 244.736 73.625 243.881 73.3555C243.025 73.0859 242.152 72.9512 241.262 72.9512C239.68 72.9512 238.889 73.3789 238.889 74.2344C238.889 74.7148 239.141 75.1309 239.645 75.4824C240.16 75.834 241.279 76.3555 243.002 77.0469C244.537 77.668 245.662 78.248 246.377 78.7871C247.092 79.3262 247.619 79.9473 247.959 80.6504C248.299 81.3535 248.469 82.1914 248.469 83.1641ZM260.932 85.0801C261.869 85.0801 262.994 84.875 264.307 84.4648V88.4551C262.971 89.0527 261.33 89.3516 259.385 89.3516C257.24 89.3516 255.676 88.8125 254.691 87.7344C253.719 86.6445 253.232 85.0156 253.232 82.8477V73.373H250.666V71.1055L253.619 69.3125L255.166 65.1641H258.594V69.3477H264.096V73.373H258.594V82.8477C258.594 83.6094 258.805 84.1719 259.227 84.5352C259.66 84.8984 260.229 85.0801 260.932 85.0801ZM268.068 64.2676C268.068 62.5215 269.041 61.6484 270.986 61.6484C272.932 61.6484 273.904 62.5215 273.904 64.2676C273.904 65.0996 273.658 65.75 273.166 66.2188C272.686 66.6758 271.959 66.9043 270.986 66.9043C269.041 66.9043 268.068 66.0254 268.068 64.2676ZM273.658 89H268.297V69.3477H273.658V89ZM287.281 89.3516C281.164 89.3516 278.105 85.9941 278.105 79.2793C278.105 75.9395 278.938 73.3906 280.602 71.6328C282.266 69.8633 284.65 68.9785 287.756 68.9785C290.029 68.9785 292.068 69.4238 293.873 70.3145L292.291 74.4629C291.447 74.123 290.662 73.8477 289.936 73.6367C289.209 73.4141 288.482 73.3027 287.756 73.3027C284.967 73.3027 283.572 75.2832 283.572 79.2441C283.572 83.0879 284.967 85.0098 287.756 85.0098C288.787 85.0098 289.742 84.875 290.621 84.6055C291.5 84.3242 292.379 83.8906 293.258 83.3047V87.8926C292.391 88.4434 291.512 88.8242 290.621 89.0352C289.742 89.2461 288.629 89.3516 287.281 89.3516ZM332.123 81.8633C332.123 84.1836 331.285 86.0117 329.609 87.3477C327.945 88.6836 325.625 89.3516 322.648 89.3516C319.906 89.3516 317.48 88.8359 315.371 87.8047V82.7422C317.105 83.5156 318.57 84.0605 319.766 84.377C320.973 84.6934 322.074 84.8516 323.07 84.8516C324.266 84.8516 325.18 84.623 325.812 84.166C326.457 83.709 326.779 83.0293 326.779 82.127C326.779 81.623 326.639 81.1777 326.357 80.791C326.076 80.3926 325.66 80.0117 325.109 79.6484C324.57 79.2852 323.463 78.7051 321.787 77.9082C320.217 77.1699 319.039 76.4609 318.254 75.7812C317.469 75.1016 316.842 74.3105 316.373 73.4082C315.904 72.5059 315.67 71.4512 315.67 70.2441C315.67 67.9707 316.438 66.1836 317.973 64.8828C319.52 63.582 321.652 62.9316 324.371 62.9316C325.707 62.9316 326.979 63.0898 328.186 63.4062C329.404 63.7227 330.676 64.168 332 64.7422L330.242 68.9785C328.871 68.416 327.734 68.0234 326.832 67.8008C325.941 67.5781 325.062 67.4668 324.195 67.4668C323.164 67.4668 322.373 67.707 321.822 68.1875C321.271 68.668 320.996 69.2949 320.996 70.0684C320.996 70.5488 321.107 70.9707 321.33 71.334C321.553 71.6855 321.904 72.0312 322.385 72.3711C322.877 72.6992 324.031 73.2969 325.848 74.1641C328.25 75.3125 329.896 76.4668 330.787 77.627C331.678 78.7754 332.123 80.1875 332.123 81.8633ZM360.107 76.1152C360.107 79.1387 359.568 81.6758 358.49 83.7266C357.424 85.7656 355.854 87.2598 353.779 88.209L359.967 95.1172H352.988L348.277 89.3516H347.873C343.936 89.3516 340.912 88.209 338.803 85.9238C336.693 83.6387 335.639 80.3574 335.639 76.0801C335.639 71.8027 336.693 68.5391 338.803 66.2891C340.924 64.0273 343.959 62.8965 347.908 62.8965C351.857 62.8965 354.875 64.0332 356.961 66.3066C359.059 68.5801 360.107 71.8496 360.107 76.1152ZM341.352 76.1152C341.352 78.9863 341.896 81.1484 342.986 82.6016C344.076 84.0547 345.705 84.7812 347.873 84.7812C352.221 84.7812 354.395 81.8926 354.395 76.1152C354.395 70.3262 352.232 67.4316 347.908 67.4316C345.74 67.4316 344.105 68.1641 343.004 69.6289C341.902 71.082 341.352 73.2441 341.352 76.1152ZM365.434 89V63.3008H370.883V84.5H381.307V89H365.434Z" fill="#606060"/>
</svg>
