<svg width="364" height="158" viewBox="0 0 364 158" fill="none" xmlns="http://www.w3.org/2000/svg">
<path d="M16.5906 2.24902H18.8137C18.8137 2.44424 19.0158 2.24902 19.0158 2.24902C19.9833 2.41847 20.931 2.68005 21.8451 3.02993C23.9359 4.02188 25.7409 5.49722 27.0996 7.325C29.1949 10.2658 30.8293 13.4893 31.9499 16.8912C32.8818 19.9037 33.6242 22.9679 34.1729 26.067C34.7792 29.1907 35.3855 32.5095 35.7897 35.6332C36.1939 38.3664 36.1939 41.0995 36.396 43.6377C35.8373 44.7744 35.3645 45.9489 34.9813 47.1517C34.527 48.5551 34.1891 49.9917 33.9708 51.4469C33.0273 48.2784 32.685 44.9713 32.9604 41.6853C32.3541 43.0518 31.7478 44.4187 31.3436 45.59V44.4187C31.3436 42.2712 31.3436 40.1235 31.1415 37.976C30.9817 34.3003 30.5086 30.6437 29.7268 27.0432C28.9624 22.9105 27.6019 18.9018 25.6849 15.1342C24.7771 13.3143 23.5458 11.6624 22.0472 10.2534C20.7139 8.79448 18.807 7.94427 16.7927 7.91065C14.1146 7.83303 11.5087 8.75607 9.51731 10.4877C8.16691 11.7064 7.1883 13.2594 6.68798 14.9779C5.82046 17.6921 5.54518 20.5506 5.8796 23.3728C6.27867 27.027 7.09193 30.6278 8.30472 34.1105C10.903 42.2525 14.7887 49.9572 19.8241 56.9522C21.3628 59.1901 23.1972 61.2247 25.2807 63.0044C26.2912 63.9804 26.8975 63.7855 27.7059 62.6139C28.4877 61.121 29.0976 59.5499 29.5247 57.9285C29.8895 56.8456 30.1599 55.7356 30.3331 54.6093C30.4812 55.55 30.7528 56.4685 31.1415 57.3427C31.5081 58.8008 32.4512 60.0624 33.7687 60.8568C33.9708 60.8568 33.9708 61.0521 33.9708 61.2474C33.6334 62.5393 33.7038 63.8989 34.1729 65.152C34.5771 66.5185 34.9813 67.885 35.3855 69.0566C35.7078 69.8746 36.114 70.6593 36.5981 71.3991C36.3624 70.0994 36.4314 68.7653 36.8002 67.4948C37.1277 66.1818 37.6737 64.9292 38.4169 63.7855C37.9653 68.5587 38.6568 73.368 40.4379 77.8418V77.6465C40.3708 75.1672 40.506 72.6866 40.8421 70.2278C40.9631 68.7568 41.3034 67.3101 41.8526 65.9327C42.161 65.1816 42.7334 64.5597 43.4694 64.1756C43.6716 63.9804 43.8737 63.9804 43.8737 64.3709C44.6906 66.1215 45.3004 67.9551 45.6925 69.8373C45.9609 71.0559 46.0289 72.3078 45.8947 73.5466V73.7419C46.0964 73.7419 46.0964 73.7419 46.0964 73.5466C48.0121 71.2087 49.3281 68.4659 49.9362 65.5425C50.0951 64.8372 50.1631 64.1161 50.1383 63.3949C50.1383 62.6139 49.9362 62.028 49.9362 61.2474L52.3615 63.5902C53.7194 65.2115 54.7481 67.0662 55.3931 69.0566C55.6267 70.0836 55.7622 71.1292 55.797 72.1802C55.797 72.766 55.5948 73.3514 55.5948 74.1325V73.9372C55.5948 73.7419 55.797 73.7419 55.797 73.5466C56.6592 71.773 57.4019 69.9467 58.0201 68.0803C58.486 66.4229 58.7574 64.7205 58.8287 63.0044V62.4186C59.1897 62.5721 59.4783 62.8509 59.6368 63.1997C60.3351 64.1841 60.7532 65.3286 60.8496 66.5185C61.0518 67.2996 61.0518 68.0803 61.2539 68.8613C61.4779 68.5052 61.6158 68.1046 61.6578 67.6897C62.3355 65.5417 62.6093 63.2937 62.4663 61.0521C62.3145 60.0251 61.9723 59.0333 61.4556 58.1238C61.3621 58.0533 61.3076 57.9452 61.3076 57.8309C61.3076 57.7163 61.3621 57.6081 61.4556 57.538C61.8083 56.9915 62.0805 56.4 62.2642 55.781V55.9762C62.6676 58.0331 63.4187 60.0117 64.4873 61.8332C65.2954 63.1997 65.9019 63.1997 66.9126 62.2233C68.2827 61.0675 69.5039 59.7565 70.5502 58.3187C73.8788 54.0012 76.7239 49.3548 79.038 44.4576C82.0025 38.5666 84.1758 32.3339 85.5052 25.9108C86.2089 23.0349 86.414 20.0662 86.1116 17.1255C85.7547 14.7523 84.8577 12.4852 83.4842 10.4877C81.9858 8.76113 79.9149 7.58853 77.6234 7.16878C75.3034 6.5277 72.8052 7.03962 70.9545 8.5354C69.7979 9.35963 68.7763 10.3468 67.9228 11.4638C66.1749 13.9952 64.8136 16.7569 63.8809 19.6635C62.8987 22.5843 62.2214 25.5928 61.8599 28.644C61.4556 30.9868 61.2539 33.1343 61.0518 35.477C61.0518 36.4532 60.8496 37.6246 60.8496 38.6007V43.8718C60.8496 45.0434 61.0518 46.4099 61.0518 47.5812C60.8496 46.9958 60.4453 46.2147 60.2432 45.6289L59.6368 44.4576V47.7764C59.6502 48.846 59.4443 49.9078 59.0308 50.9C58.7569 51.8476 57.9907 52.5882 57.0098 52.8523C56.6055 53.0476 56.6055 52.8523 56.4034 52.6574C56.1279 51.8387 56.0587 50.9689 56.2013 50.1193C56.4604 48.9392 56.9398 47.8145 57.6158 46.8005L57.818 46.6052C57.818 46.4099 57.6158 46.6052 57.4141 46.6052C56.5691 46.6137 55.7383 46.8143 54.9888 47.1906C55.191 44.0671 55.5948 40.7483 55.797 37.6246C55.9991 34.5009 56.6055 31.182 57.0098 27.8631C57.7882 22.9359 59.0744 18.0962 60.8496 13.4161C61.9396 10.0036 63.8037 6.86894 66.3061 4.24035C68.8136 1.46242 72.6702 0.195788 76.411 0.921457C79.615 1.39468 82.5842 2.82887 84.8988 5.02127C88.5238 8.22957 90.5784 12.7668 90.5574 17.516V21.2253C90.5574 22.3967 90.3553 23.568 90.3553 24.7394C89.9346 28.3264 89.1215 31.8603 87.9304 35.2818C85.1621 43.7235 81.5756 51.8942 77.2191 59.6856C76.6131 60.8568 75.8046 62.028 75.1982 63.1997C74.5922 63.9804 74.7943 64.5662 75.6024 65.152L75.8046 65.3473C76.9608 66.1713 77.9828 67.1586 78.8358 68.2755C80.6144 70.5965 81.8549 73.2598 82.4739 76.0848C83.0753 78.2461 83.2804 80.4926 83.0799 82.7224C82.978 84.4243 82.7755 86.119 82.4739 87.7987C82.3037 89.6979 82.0336 91.5874 81.6654 93.4603C81.2611 95.8028 81.0589 98.1456 80.6547 100.488C80.2508 103.417 79.6444 106.541 79.2401 109.469C78.8358 112.397 78.2298 115.131 77.8256 118.059C77.4213 120.011 77.2191 122.159 76.8149 124.111C75.9333 128.001 74.6467 131.795 72.9751 135.434C72.7733 135.434 72.7733 135.239 72.7733 135.044C72.6047 134.512 72.4022 133.99 72.1669 133.482C70.3061 129.858 67.9249 126.506 65.0937 123.525C62.7037 121.178 60.0616 119.084 57.212 117.278C54.1249 115.278 50.5942 114.007 46.9049 113.569C44.2851 113.367 41.6532 113.768 39.2253 114.74C36.5116 115.837 34.0416 117.428 31.9499 119.426C29.0236 122.036 26.444 124.987 24.2703 128.211C22.52 130.811 21.1592 133.637 20.2283 136.606C19.8241 137.973 19.6221 139.339 19.2179 140.51C19.1307 140.832 19.0632 141.158 19.0158 141.487C19.0158 141.291 18.8137 141.291 18.8137 141.096C17.6011 138.363 16.3885 135.434 15.176 132.506C14.1858 130.159 13.3752 127.744 12.7508 125.282C12.2147 122.379 11.8771 119.444 11.7403 116.497C11.3516 115.096 11.1478 113.653 11.134 112.202L10.5278 107.517C10.3257 105.564 10.1236 103.417 10.1236 101.464L9.51731 94.4363L8.91101 87.9939C8.73727 85.7086 8.87314 83.4115 9.31521 81.1606C10.3693 77.1077 12.2976 73.3157 14.9739 70.0326C15.7312 69.1425 16.5409 68.295 17.399 67.4948C18.0053 67.1043 18.0053 66.7138 17.6011 65.9327C17.6011 65.7374 17.399 65.7374 17.399 65.5425C14.3174 60.5003 11.5505 55.2851 9.11311 49.924C6.22793 43.5104 3.99441 36.8413 2.44396 30.0106C1.79723 27.4538 1.45816 24.8334 1.43349 22.2015V20.8348C1.63558 20.8348 1.43349 20.6396 1.43349 20.6396C1.40027 19.8536 1.46815 19.0667 1.63558 18.2969C1.90426 15.8 2.58662 13.3611 3.65654 11.0734C5.86018 6.99534 9.75425 4.0143 14.3676 2.87375C15.0781 2.57506 15.8251 2.36513 16.5906 2.24902ZM58.0201 106.15H59.2329C59.5827 106.201 59.9404 106.132 60.2432 105.955C65.027 105.289 69.4401 103.089 72.7733 99.7074C74.978 97.5546 75.8251 94.4286 74.996 91.508C73.7895 87.7051 71.207 84.4482 67.7207 82.3323C65.7006 81.2056 63.2921 80.9236 61.0518 81.5512C59.3286 82.1528 57.7479 83.0822 56.4034 84.2846C53.3885 87.2493 51.2887 90.968 50.3405 95.0221C49.6254 97.9953 50.0566 101.119 51.5533 103.807C52.1203 105.09 53.3529 105.983 54.7867 106.15C55.862 106.248 56.9448 106.248 58.0201 106.15ZM34.7792 106.345H35.3855C36.9891 106.403 38.5125 105.666 39.4274 104.393C40.4416 102.878 41.0012 101.121 41.0442 99.3169C41.1893 97.2681 40.9146 95.2113 40.2358 93.2651C39.0489 88.5494 35.8055 84.5617 31.3436 82.3323C29.811 81.4945 28.0178 81.2174 26.2912 81.5512C23.9988 82.2164 21.9148 83.4245 20.2283 85.0653C18.4673 86.8697 17.0936 88.993 16.1864 91.3127C15.1512 93.8772 15.6136 96.7812 17.399 98.9267C18.4741 100.291 19.7708 101.477 21.2388 102.441C25.2754 104.961 29.973 106.315 34.7792 106.345Z" fill="#563A39"/>
<path d="M72.7735 136.372C73.0037 136.933 73.1404 137.526 73.1777 138.129C73.967 141.845 73.0041 145.709 70.5503 148.671C67.5753 152.427 63.4868 155.219 58.8292 156.675C56.3968 157.365 53.8848 157.759 51.3513 157.847H45.2888C45.2888 157.651 45.0867 157.847 45.0867 157.847C41.769 157.705 38.4627 157.379 35.1839 156.871C32.3844 156.479 29.6603 155.69 27.1 154.528C21.923 152.348 18.6979 147.285 19.0162 141.838C19.0162 141.643 19.2183 141.447 19.0162 141.252C19.4204 139.886 19.6225 138.519 20.0267 137.348C20.87 134.348 22.2369 131.509 24.0686 128.953C26.2328 125.722 28.8134 122.77 31.7482 120.168C33.9102 118.254 36.3641 116.674 39.0237 115.482C41.4516 114.51 44.0835 114.109 46.7034 114.311C50.3926 114.749 53.9233 116.02 57.0104 118.02C63.4805 121.947 68.6661 127.566 71.9653 134.224C72.1675 134.81 72.3696 135.2 72.5713 135.786C72.7735 136.372 72.5713 136.372 72.7735 136.372ZM64.2857 144.181C64.0836 144.181 64.0836 144.376 63.8814 144.376C61.4759 146.162 58.9051 147.731 56.2018 149.061C52.0881 150.867 47.4826 151.346 43.0657 150.428C39.3563 149.604 35.761 148.359 32.3545 146.719L28.1105 144.376C28.1319 144.524 28.2029 144.661 28.3126 144.766C31.4308 148.593 35.649 151.446 40.4383 152.966C48.7612 155.78 58.006 152.909 63.0729 145.938C63.5694 145.416 63.9783 144.824 64.2857 144.181ZM65.4981 132.467C65.46 131.927 65.3228 131.399 65.0938 130.905C64.4576 130.095 63.7095 129.373 62.8707 128.758C61.0032 127.505 58.487 127.667 56.8082 129.148C55.9686 130.072 55.4708 131.24 55.3933 132.467C55.3043 134.715 54.531 136.888 53.1706 138.714C52.4987 139.8 51.756 140.843 50.9474 141.838C50.7453 142.814 50.7453 143.204 51.3513 143.595C51.8013 143.791 52.3163 143.791 52.7663 143.595C56.1423 142.341 59.283 140.56 62.0626 138.324C64.2236 137.119 65.5388 134.877 65.4981 132.467ZM28.1105 133.248C28.1192 134.064 28.327 134.867 28.7168 135.59C29.6872 137.211 31.081 138.558 32.7587 139.495C34.9805 140.847 37.274 142.085 39.6299 143.204C40.0701 143.424 40.551 143.557 41.0446 143.595C41.554 143.774 42.1246 143.616 42.4593 143.204C42.6614 143.009 42.8635 142.619 42.6614 142.424C42.5054 142.074 42.3012 141.745 42.055 141.447C41.853 141.252 41.6509 141.252 41.853 141.057C42.055 140.862 41.6509 140.667 41.6509 140.471C41.6509 140.276 41.2467 140.081 41.2467 139.886C39.4922 137.79 38.5615 135.162 38.6195 132.467C38.599 131.141 37.9882 129.888 36.9434 129.029C35.8986 128.169 34.5211 127.786 33.1629 127.976C30.4301 128.412 28.3505 130.582 28.1105 133.248Z" fill="#AF8070"/>
<path d="M30.535 55.1564C30.333 56.3277 29.9288 57.4993 29.7267 58.4752C29.2995 60.0966 28.6896 61.6676 27.9078 63.1605C27.0994 64.3322 26.6952 64.5274 25.4827 63.5511C23.4534 61.7203 21.6249 59.6922 20.0261 57.4993C14.9906 50.5043 11.1049 42.7992 8.50664 34.6573C7.38921 31.1498 6.57801 27.558 6.08151 23.9197C5.53536 21.1033 5.81537 18.1955 6.88986 15.5248C7.43408 13.8251 8.4062 12.2822 9.71922 11.0345C11.692 9.28093 14.3187 8.37871 16.9946 8.53558C18.9888 8.65035 20.8649 9.48686 22.2491 10.8784C23.7926 12.2494 25.0304 13.9102 25.8868 15.7591C27.834 19.5148 29.196 23.5277 29.9288 27.6681C30.599 31.2858 31.0712 34.9351 31.3434 38.6009C31.5455 40.7484 31.5455 42.896 31.5455 45.0436V46.6054C30.9666 48.6395 30.6943 50.7434 30.7371 52.8525C30.3732 53.5687 30.301 54.3911 30.535 55.1564Z" fill="#348FC0"/>
<path d="M60.6475 49.1045C60.6475 47.9333 60.4453 46.5664 60.4453 45.3951V40.1239C60.4453 39.1478 60.6475 37.9764 60.6475 37.0003C60.8496 34.6575 61.0517 32.51 61.456 30.1672C61.8385 27.1195 62.5149 24.1129 63.477 21.1867C64.4093 18.2801 65.7706 15.5185 67.5185 12.9871C68.317 11.8256 69.3478 10.8299 70.5502 10.0586C72.4009 8.56281 74.8991 8.05089 77.2191 8.69201C79.4716 9.20964 81.5123 10.3653 83.0799 12.0109C84.6463 13.9073 85.5643 16.2267 85.7073 18.6487C86.0097 21.5894 85.805 24.5582 85.1009 27.434C83.8645 33.8807 81.6871 40.1253 78.6341 45.9809C76.2428 50.8388 73.4019 55.478 70.1459 59.842C69.0996 61.2798 67.8783 62.5908 66.5082 63.7466C65.2958 64.723 64.6894 64.723 64.083 63.3561C63.1331 61.484 62.3883 59.5211 61.8599 57.4991V57.3432C62.1635 55.9264 62.1635 54.4647 61.8599 53.048C61.456 51.6426 61.0517 50.471 60.6475 49.1045Z" fill="#348FC0"/>
<path d="M60.6474 49.1044C61.0777 50.2489 61.4153 51.4237 61.6577 52.6185C61.9613 54.0352 61.9613 55.4969 61.6577 56.9136C61.4744 57.5327 61.2022 58.1242 60.8496 58.6707C60.756 58.7408 60.7011 58.8489 60.7011 58.9636C60.7011 59.0778 60.756 59.186 60.8496 59.2565C61.5109 60.0983 61.8661 61.1278 61.8598 62.1848C62.0033 64.4263 61.7294 66.6744 61.0517 68.8228C60.8496 69.2129 60.8496 69.6035 60.6474 69.994C60.4453 69.2129 60.4453 68.4322 60.2431 67.6512C60.1471 66.4613 59.7286 65.3168 59.0307 64.3323C58.8718 63.9835 58.5832 63.7048 58.2222 63.5513V64.1371C58.2662 65.8621 57.9923 67.5807 57.414 69.2129C56.8848 71.1089 56.1391 72.9425 55.1909 74.6793C55.1909 74.8746 54.9888 74.8746 54.9888 75.0699C54.9888 74.4845 55.1909 73.8986 55.1909 73.1176C55.37 72.0606 55.2299 70.976 54.7866 69.994C54.2301 67.9688 53.1922 66.0971 51.7554 64.5276C51.1058 63.6068 50.283 62.8123 49.3301 62.1848C49.3301 62.9658 49.5323 63.5513 49.5323 64.3323C49.575 65.0539 49.5067 65.7774 49.3301 66.4799C48.6788 69.3304 47.3658 72.0006 45.4903 74.2892L45.2882 74.4845V74.2892C45.6249 73.0629 45.5541 71.7652 45.086 70.5798C44.6943 68.6972 44.0841 66.8636 43.2672 65.1134C43.0651 64.9182 43.0651 64.9182 42.8629 64.9182C42.1269 65.3018 41.5546 65.9241 41.2463 66.6752C40.7186 68.0587 40.3789 69.5022 40.2358 70.97C39.8997 73.4291 39.7645 75.9097 39.8316 78.3887V78.5839C37.9646 74.1324 37.2702 69.3025 37.8107 64.5276C37.0674 65.6713 36.5214 66.9239 36.1939 68.237C35.8252 69.5075 35.7561 70.8419 35.9918 72.1416L34.7792 69.7987C34.1915 68.557 33.7834 67.2432 33.5667 65.8941C33.1979 64.6236 33.1289 63.2891 33.3646 61.9895C33.3646 61.7942 33.3646 61.7942 33.1625 61.5989C31.9441 60.7064 31.0293 59.483 30.5352 58.0849C30.173 57.2021 29.9022 56.2865 29.7268 55.3519C29.7268 54.5708 29.5247 53.5948 29.5247 52.8137C29.4944 50.7054 29.7664 48.6028 30.3331 46.5667V46.1761C30.7489 44.8299 31.2901 43.5233 31.9499 42.2715C31.6745 45.5575 32.0168 48.8645 32.9604 52.0331C33.1786 50.5774 33.5165 49.1412 33.9709 47.7379C34.3192 46.5237 34.7931 45.3464 35.3855 44.2238V44.8092C35.1831 45.7098 35.1831 46.642 35.3855 47.5426C35.4252 48.0194 35.5626 48.4841 35.7897 48.9091C36.1381 49.9697 36.5428 51.0125 37.0023 52.0331C37.9588 50.2278 38.2443 48.16 37.8107 46.1761C38.417 46.5667 38.8211 47.3473 39.4274 47.7379C40.0337 48.5186 40.64 49.4949 41.2463 50.276C41.8526 51.0567 42.0548 52.033 42.4586 52.8137C42.894 50.6414 43.6425 48.5384 44.6818 46.5667C44.9229 48.9431 45.6077 51.2584 46.7027 53.3995C47.0403 53.0572 47.3142 52.661 47.5113 52.2279C48.5203 50.6556 48.881 48.7742 48.5216 46.9568C48.5216 46.5667 48.3194 46.1761 48.3194 45.7856C49.5029 47.6208 50.4528 49.5873 51.149 51.6425C51.3511 51.252 51.7554 50.8614 51.9575 50.4709C52.4905 49.8474 53.1892 49.375 53.9781 49.1044C54.7279 48.728 55.5587 48.5271 56.4033 48.5186H56.8076C56.8076 48.7138 56.8076 48.7138 56.6055 48.7138C55.9294 49.7283 55.4501 50.8529 55.1909 52.0331C54.9628 52.8769 55.0341 53.7702 55.393 54.5708C55.5952 54.9613 55.5952 54.9613 55.999 54.766C56.8965 54.3747 57.6153 53.6807 58.02 52.8137C58.4159 51.8163 58.6214 50.7581 58.6264 49.6902V46.3714L59.2329 47.5426C59.9072 47.8525 60.4189 48.4177 60.6474 49.1044Z" fill="#060707"/>
<path d="M58.0208 106.151C57.0126 106.248 55.9973 106.248 54.9896 106.151C53.5318 106.043 52.2703 105.13 51.7558 103.808C50.2468 101.123 49.8149 97.9954 50.5433 95.0226C51.453 90.9543 53.5578 87.2259 56.6063 84.2846C57.8678 82.9801 59.4752 82.035 61.2542 81.5516C63.4723 80.7138 65.9772 81.0071 67.9236 82.3323C71.5054 84.3454 74.1203 87.6431 75.1989 91.5081C76.2297 94.4246 75.3545 97.6539 72.9758 99.7079C69.643 103.089 65.2299 105.29 60.4461 105.955C60.1055 106.001 59.7679 106.066 59.4354 106.151H58.0208ZM59.4354 105.565C60.0489 105.596 60.6633 105.53 61.2542 105.37C63.6765 104.906 65.6266 103.173 66.3069 100.879C66.7208 100.024 66.928 99.0896 66.9129 98.1461C66.9129 97.6798 66.6596 97.2475 66.2456 97.0077C65.8317 96.7679 65.318 96.7553 64.8919 96.9749C64.6897 97.1697 64.488 97.1697 64.0837 97.365C63.6795 97.5603 63.4773 97.5603 63.2752 97.7555C62.2121 98.1092 61.037 97.7037 60.4461 96.7796C59.8388 95.9629 59.8388 94.8629 60.4461 94.0462C60.6482 93.8509 60.8499 93.4604 61.2542 93.2655C61.6472 92.8665 61.7864 92.294 61.6191 91.7678C61.4513 91.2415 61.003 90.8437 60.4461 90.7274C59.1557 90.4584 57.8103 90.5949 56.6063 91.1179C54.2708 91.8338 52.5023 93.6909 51.9579 95.9985C51.5876 97.888 51.7268 99.8379 52.3622 101.66C53.0596 103.382 54.558 104.685 56.4041 105.174C57.3716 105.521 58.4075 105.655 59.4354 105.565Z" fill="white"/>
<path d="M34.7801 106.307C29.9985 106.328 25.3316 104.894 21.4418 102.207C19.9738 101.244 18.677 100.057 17.602 98.6931C15.8165 96.5475 15.3541 93.6436 16.3894 91.0791C17.219 88.7229 18.6025 86.5846 20.4313 84.8316C22.085 83.1507 24.1807 81.9362 26.4942 81.3175C28.2207 80.9837 30.014 81.2608 31.5465 82.0986C35.9679 84.375 39.1949 88.3429 40.4387 93.0314C41.1175 94.9776 41.3922 97.0345 41.2471 99.0832C41.0177 100.853 40.4706 102.571 39.6304 104.159C38.7154 105.433 37.1921 106.169 35.5885 106.112C35.3427 106.248 35.063 106.315 34.7801 106.307ZM24.2711 98.3414V99.3178C24.2408 99.5929 24.3125 99.8696 24.4732 100.098C25.0344 102.615 26.9713 104.636 29.5256 105.37C30.3225 105.532 31.1371 105.597 31.9507 105.565C33.4417 105.76 34.9544 105.412 36.1947 104.589C38.4689 103.318 39.7407 100.861 39.4283 98.3414C39.2262 97.1702 38.4178 96.3891 37.0031 97.3655C36.801 97.5607 36.5989 97.756 36.3968 97.756C35.6249 98.1838 34.6596 98.106 33.9717 97.5607C33.3291 97.1637 32.924 96.492 32.8839 95.7559C32.8439 95.0202 33.1736 94.3112 33.7696 93.8514L34.1738 93.4608C34.4419 93.2538 34.6139 92.9524 34.6518 92.6226C34.6897 92.2933 34.5904 91.9627 34.3759 91.7038C34.0386 91.263 33.5253 90.9798 32.9612 90.9227H30.5361C26.8452 91.5742 24.1902 94.718 24.2711 98.3414Z" fill="white"/>
<path d="M65.4979 132.467C65.4857 134.868 64.2834 137.118 62.2645 138.519C59.406 140.645 56.2829 142.416 52.9682 143.79C52.5186 143.987 52.0032 143.987 51.5536 143.79C50.7451 143.205 50.7451 142.814 51.1493 142.229C51.9575 141.252 52.5639 140.276 53.3725 139.105C54.587 137.209 55.3465 135.074 55.5956 132.858C55.5402 131.604 56.0573 130.391 57.0101 129.539C58.6474 127.966 61.2341 127.799 63.073 129.148C63.9579 129.71 64.7145 130.441 65.2962 131.296C65.596 131.614 65.6753 132.072 65.4979 132.467Z" fill="#060707"/>
<path d="M28.1099 133.248C28.2226 130.669 30.1396 128.495 32.7581 127.977C34.1162 127.786 35.4938 128.169 36.5385 129.029C37.5833 129.889 38.1941 131.141 38.2147 132.467C38.3465 135.13 39.2574 137.703 40.8419 139.886C41.044 140.081 41.2461 140.276 41.2461 140.471C41.2461 140.667 41.6503 140.862 41.4482 141.057C41.4695 141.205 41.5405 141.342 41.6503 141.448C41.9653 141.694 42.18 142.04 42.2564 142.424C42.4585 142.619 42.2563 143.01 42.0546 143.205C41.72 143.617 41.1491 143.774 40.6398 143.595C40.2356 143.4 39.6293 143.4 39.2251 143.205C36.8512 142.118 34.5556 140.879 32.3539 139.496C30.7658 138.449 29.3948 137.125 28.312 135.591C28.312 135.005 28.1099 134.029 28.1099 133.248Z" fill="#060707"/>
<path d="M27.9082 144.377L32.1522 146.72C35.5208 148.444 39.1278 149.693 42.8633 150.429C47.2848 151.259 51.8623 150.783 55.9995 149.062C58.7447 147.803 61.323 146.23 63.6791 144.377C63.8812 144.377 63.8812 144.182 64.0834 144.182C63.7244 144.857 63.3192 145.51 62.8705 146.134C57.8036 153.105 48.5589 155.976 40.236 153.162C35.4467 151.642 31.2285 148.789 28.1103 144.962C28.1103 144.767 27.9082 144.572 27.9082 144.377Z" fill="white"/>
<path d="M49.1281 45.3949C49.1281 45.7854 49.3303 46.1755 49.3303 46.5661C49.6255 48.3831 49.269 50.243 48.3196 51.8372C48.1225 52.2703 47.849 52.6665 47.5114 53.0088C46.351 50.8925 45.6624 48.5646 45.4905 46.1755C44.4508 48.1477 43.7027 50.2503 43.2673 52.423C42.9474 51.5419 42.5414 50.6919 42.0545 49.8849C41.4962 49.0082 40.889 48.1607 40.2358 47.3472C41.365 45.7988 43.1352 44.8013 45.0862 44.6138H46.5007L48.926 45.1996L49.1281 45.3949Z" fill="#348FC0"/>
<path d="M45.4904 36.8046C44.2847 36.6471 43.2669 35.8601 42.8433 34.7579C42.4202 33.6557 42.6605 32.4178 43.4682 31.5386C44.2763 30.6593 45.5202 30.282 46.7033 30.5573C47.1897 30.7166 47.6628 30.9124 48.1178 31.143C49.5026 32.1731 49.7731 34.0873 48.7242 35.438C48.1921 36.1191 47.3818 36.5459 46.5011 36.6094C46.1849 36.7507 45.8385 36.8177 45.4904 36.8046Z" fill="#348FC0"/>
<path d="M45.4907 36.8049H46.501V44.6143H45.4907V36.8049Z" fill="#060707"/>
<path d="M52.7666 50.0803C52.5644 50.4709 52.1602 50.6661 51.9584 51.2519C51.2677 49.1947 50.3174 47.2274 49.1289 45.395C49.8867 45.805 50.5695 46.3325 51.1499 46.9568C51.9631 47.8432 52.5204 48.9204 52.7666 50.0803Z" fill="#348FC0"/>
<path d="M36.5979 48.5186C36.3959 48.1281 36.3959 47.5427 36.1938 47.1521C35.9914 46.2515 35.9914 45.3193 36.1938 44.4187V44.2239C36.5284 45.6313 36.6644 47.076 36.5979 48.5186Z" fill="#4B3938"/>
<path d="M59.4347 105.526C58.4077 105.588 57.3777 105.455 56.4035 105.135C54.5926 104.585 53.1177 103.303 52.3615 101.621C51.5211 99.8433 51.3773 97.8314 51.9573 95.9593C52.6316 93.7197 54.3515 91.9137 56.6056 91.0783C57.8361 90.6602 59.1512 90.5265 60.4454 90.6882C61.0296 90.7655 61.514 91.1634 61.6872 91.7079C61.8608 92.2524 61.6914 92.8447 61.2536 93.2259L60.4454 94.007C59.675 94.7662 59.675 95.9812 60.4454 96.74C61.0145 97.69 62.2114 98.1028 63.2745 97.7163C63.6788 97.5211 63.881 97.5211 64.0831 97.3258C64.2852 97.1305 64.4874 97.1305 64.8912 96.9352C65.3186 96.7278 65.8256 96.746 66.2358 96.9834C66.6455 97.2213 66.9009 97.645 66.9122 98.1069C67.0053 99.0565 66.794 100.011 66.3062 100.84C65.5048 103.058 63.6088 104.743 61.2536 105.33C60.6627 105.491 60.0483 105.557 59.4347 105.526Z" fill="#060707"/>
<path d="M24.2699 98.3412C24.1406 94.6331 26.9326 91.4305 30.737 90.9225C31.5328 90.7277 32.3664 90.7277 33.1621 90.9225C33.7262 90.9796 34.2396 91.2628 34.5768 91.7036C34.7914 91.9621 34.8906 92.2931 34.8527 92.6224C34.8148 92.9518 34.6429 93.2536 34.3747 93.4607L33.9705 93.8508C33.3083 94.2507 32.9059 94.9515 32.9059 95.7055C32.9059 96.4598 33.3083 97.1607 33.9705 97.5601C34.6585 98.1059 35.6238 98.1832 36.3957 97.7554C36.5978 97.5601 36.7999 97.5601 37.002 97.3653C38.2145 96.3889 39.225 97.17 39.4271 98.3412C39.692 100.853 38.4324 103.286 36.1936 104.589C34.9533 105.412 33.4406 105.76 31.9496 105.565C31.136 105.597 30.3213 105.531 29.5244 105.369C26.9701 104.636 25.0332 102.615 24.472 100.098C24.472 99.903 24.2699 99.5125 24.2699 99.3176V98.3412Z" fill="#060707"/>
<path d="M144.577 111.029C142.212 111.029 140.381 111.921 139.084 113.705C137.786 115.475 137.137 117.948 137.137 121.124C137.137 127.733 139.618 131.038 144.577 131.038C146.658 131.038 149.179 130.517 152.139 129.477V134.748C149.707 135.761 146.989 136.268 143.99 136.268C139.678 136.268 136.38 134.964 134.096 132.355C131.812 129.733 130.67 125.976 130.67 121.084C130.67 118.003 131.231 115.306 132.353 112.995C133.474 110.671 135.083 108.893 137.177 107.663C139.285 106.42 141.752 105.798 144.577 105.798C147.455 105.798 150.348 106.494 153.254 107.886L151.227 112.995C150.118 112.468 149.003 112.009 147.882 111.617C146.76 111.225 145.658 111.029 144.577 111.029ZM176.608 135.863L174.459 128.808H163.653L161.505 135.863H154.734L165.194 106.102H172.877L183.379 135.863H176.608ZM172.959 123.537C170.972 117.144 169.85 113.529 169.594 112.691C169.35 111.853 169.175 111.191 169.067 110.704C168.62 112.434 167.344 116.712 165.234 123.537H172.959ZM204.625 127.632C204.625 130.308 203.658 132.416 201.725 133.957C199.806 135.498 197.131 136.268 193.697 136.268C190.535 136.268 187.737 135.673 185.305 134.484V128.646C187.305 129.538 188.994 130.166 190.372 130.531C191.765 130.896 193.035 131.078 194.184 131.078C195.562 131.078 196.616 130.815 197.346 130.288C198.09 129.761 198.462 128.977 198.462 127.936C198.462 127.355 198.299 126.841 197.975 126.395C197.651 125.936 197.171 125.497 196.536 125.078C195.914 124.659 194.637 123.99 192.704 123.071C190.894 122.219 189.535 121.401 188.63 120.618C187.723 119.834 187.001 118.921 186.461 117.881C185.92 116.84 185.65 115.624 185.65 114.232C185.65 111.61 186.534 109.549 188.305 108.049C190.089 106.548 192.549 105.798 195.685 105.798C197.225 105.798 198.691 105.981 200.083 106.346C201.489 106.711 202.956 107.224 204.483 107.886L202.455 112.772C200.874 112.123 199.563 111.671 198.523 111.414C197.495 111.157 196.481 111.029 195.482 111.029C194.293 111.029 193.38 111.306 192.745 111.86C192.109 112.414 191.792 113.137 191.792 114.029C191.792 114.583 191.92 115.07 192.177 115.489C192.433 115.894 192.839 116.293 193.394 116.685C193.962 117.063 195.292 117.752 197.387 118.753C200.158 120.077 202.056 121.408 203.084 122.746C204.11 124.071 204.625 125.699 204.625 127.632Z" fill="#606060"/>
<path d="M159.874 65.3047C159.874 71.846 158.252 76.8736 155.008 80.3874C151.765 83.9014 147.116 85.6584 141.062 85.6584C135.007 85.6584 130.357 83.9014 127.114 80.3874C123.87 76.8736 122.248 71.828 122.248 65.2506C122.248 58.6733 123.87 53.6548 127.114 50.1949C130.375 46.717 135.043 44.978 141.115 44.978C147.188 44.978 151.829 46.7259 155.036 50.2219C158.262 53.7177 159.874 58.7454 159.874 65.3047ZM131.033 65.3047C131.033 69.7196 131.871 73.0442 133.547 75.2789C135.222 77.5132 137.727 78.6305 141.062 78.6305C147.746 78.6305 151.089 74.1885 151.089 65.3047C151.089 56.4028 147.764 51.9518 141.115 51.9518C137.782 51.9518 135.267 53.0781 133.573 55.3306C131.88 57.5651 131.033 60.8898 131.033 65.3047ZM184.012 85.6584C180.462 85.6584 177.678 84.37 175.66 81.7931H175.228C175.516 84.3159 175.66 85.7755 175.66 86.172V98.4165H167.415V54.8981H174.119L175.281 58.8174H175.66C177.587 55.8262 180.444 54.3305 184.228 54.3305C187.796 54.3305 190.589 55.709 192.608 58.466C194.626 61.2231 195.635 65.0524 195.635 69.9539C195.635 73.1794 195.158 75.9815 194.203 78.3602C193.265 80.7388 191.923 82.5499 190.175 83.7933C188.427 85.0367 186.373 85.6584 184.012 85.6584ZM181.579 60.9258C179.543 60.9258 178.057 61.5565 177.119 62.818C176.183 64.0613 175.696 66.1245 175.66 69.0078V69.8998C175.66 73.1434 176.138 75.468 177.092 76.8736C178.066 78.2791 179.597 78.9819 181.687 78.9819C185.381 78.9819 187.229 75.9366 187.229 69.8457C187.229 66.8724 186.769 64.647 185.851 63.1694C184.949 61.6737 183.526 60.9258 181.579 60.9258ZM214.962 60.196C213.213 60.196 211.844 60.7546 210.853 61.8719C209.862 62.9711 209.295 64.5388 209.15 66.5751H220.719C220.683 64.5388 220.152 62.9711 219.124 61.8719C218.096 60.7546 216.709 60.196 214.962 60.196ZM216.124 85.6584C211.259 85.6584 207.456 84.3159 204.717 81.6309C201.978 78.9458 200.608 75.1437 200.608 70.2241C200.608 65.1605 201.87 61.2502 204.393 58.4931C206.934 55.718 210.439 54.3305 214.908 54.3305C219.178 54.3305 222.503 55.5468 224.881 57.9796C227.26 60.4122 228.449 63.773 228.449 68.0617V72.0622H208.961C209.051 74.4048 209.744 76.2339 211.042 77.5493C212.339 78.8648 214.159 79.5225 216.503 79.5225C218.322 79.5225 220.043 79.3333 221.665 78.9548C223.286 78.5764 224.98 77.9728 226.746 77.1438V83.523C225.304 84.2438 223.764 84.7753 222.125 85.1178C220.485 85.4782 218.484 85.6584 216.124 85.6584ZM263.048 85.1178H254.804V67.4671C254.804 65.2867 254.417 63.6558 253.642 62.5746C252.867 61.4754 251.633 60.9258 249.939 60.9258C247.632 60.9258 245.964 61.7007 244.938 63.2504C243.91 64.7821 243.397 67.3319 243.397 70.8999V85.1178H235.153V54.8981H241.45L242.559 58.7634H243.019C243.938 57.3038 245.199 56.2046 246.803 55.4658C248.424 54.7089 250.263 54.3305 252.317 54.3305C255.831 54.3305 258.498 55.2855 260.318 57.1957C262.138 59.0878 263.048 61.8268 263.048 65.4128V85.1178ZM294.943 85.1178H272.184V45.5998H294.943V52.4654H280.563V61.142H293.943V68.0077H280.563V78.198H294.943V85.1178ZM303.215 45.5998H315.513C321.118 45.5998 325.181 46.4016 327.705 48.0054C330.245 49.5912 331.515 52.123 331.515 55.6008C331.515 57.9615 330.957 59.8986 329.839 61.4123C328.74 62.926 327.271 63.8361 325.434 64.1424V64.4127C327.939 64.9713 329.74 66.0165 330.839 67.5482C331.957 69.0799 332.515 71.1162 332.515 73.657C332.515 77.261 331.209 80.0721 328.596 82.0904C326.001 84.1086 322.469 85.1178 318 85.1178H303.215V45.5998ZM311.594 61.2502H316.46C318.73 61.2502 320.37 60.8988 321.379 60.196C322.406 59.4932 322.92 58.3309 322.92 56.7091C322.92 55.1954 322.361 54.1142 321.244 53.4655C320.145 52.7988 318.396 52.4654 316 52.4654H311.594V61.2502ZM311.594 67.8996V78.198H317.054C319.361 78.198 321.064 77.7566 322.163 76.8736C323.262 75.9905 323.811 74.6391 323.811 72.819C323.811 69.5394 321.469 67.8996 316.784 67.8996H311.594ZM363.735 74.1436C363.735 77.7115 362.446 80.5226 359.87 82.577C357.311 84.6312 353.743 85.6584 349.166 85.6584C344.95 85.6584 341.219 84.8654 337.976 83.2796V75.495C340.642 76.6844 342.894 77.5223 344.733 78.0088C346.588 78.4954 348.283 78.7387 349.814 78.7387C351.653 78.7387 353.058 78.3873 354.032 77.6845C355.022 76.9817 355.518 75.9366 355.518 74.5489C355.518 73.7742 355.302 73.0893 354.869 72.4947C354.437 71.882 353.796 71.2963 352.95 70.7377C352.121 70.1791 350.419 69.2871 347.841 68.0617C345.427 66.9265 343.615 65.8362 342.409 64.7911C341.201 63.746 340.237 62.5296 339.516 61.142C338.796 59.7545 338.435 58.1327 338.435 56.2766C338.435 52.7807 339.616 50.0326 341.975 48.0325C344.355 46.0322 347.634 45.0321 351.815 45.0321C353.869 45.0321 355.824 45.2753 357.681 45.7619C359.555 46.2485 361.51 46.9332 363.546 47.8161L360.843 54.3305C358.735 53.4655 356.986 52.8618 355.599 52.5195C354.23 52.1771 352.878 52.0059 351.544 52.0059C349.958 52.0059 348.743 52.3753 347.895 53.1141C347.049 53.8529 346.625 54.817 346.625 56.0063C346.625 56.7451 346.796 57.3938 347.139 57.9525C347.481 58.4931 348.022 59.0247 348.76 59.5472C349.518 60.0518 351.293 60.9709 354.085 62.3044C357.78 64.0703 360.311 65.8453 361.68 67.6292C363.05 69.3953 363.735 71.5667 363.735 74.1436Z" fill="black"/>
</svg>
