<svg width="454" height="126" viewBox="0 0 454 126" fill="none" xmlns="http://www.w3.org/2000/svg">
<path d="M159.115 87L152.928 66.8379H152.77C152.992 70.9395 153.104 73.6758 153.104 75.0469V87H148.234V61.3008H155.652L161.734 80.9531H161.84L168.291 61.3008H175.709V87H170.629V74.8359C170.629 74.2617 170.635 73.5996 170.646 72.8496C170.67 72.0996 170.752 70.1074 170.893 66.873H170.734L164.107 87H159.115ZM186.045 77.1387C186.045 79.084 186.361 80.5547 186.994 81.5508C187.639 82.5469 188.682 83.0449 190.123 83.0449C191.553 83.0449 192.578 82.5527 193.199 81.5684C193.832 80.5723 194.148 79.0957 194.148 77.1387C194.148 75.1934 193.832 73.7344 193.199 72.7617C192.566 71.7891 191.529 71.3027 190.088 71.3027C188.658 71.3027 187.627 71.7891 186.994 72.7617C186.361 73.7227 186.045 75.1816 186.045 77.1387ZM199.633 77.1387C199.633 80.3379 198.789 82.8398 197.102 84.6445C195.414 86.4492 193.064 87.3516 190.053 87.3516C188.166 87.3516 186.502 86.9414 185.061 86.1211C183.619 85.2891 182.512 84.0996 181.738 82.5527C180.965 81.0059 180.578 79.2012 180.578 77.1387C180.578 73.9277 181.416 71.4316 183.092 69.6504C184.768 67.8691 187.123 66.9785 190.158 66.9785C192.045 66.9785 193.709 67.3887 195.15 68.209C196.592 69.0293 197.699 70.207 198.473 71.7422C199.246 73.2773 199.633 75.0762 199.633 77.1387ZM222.203 87H216.842V75.5215C216.842 74.1035 216.59 73.043 216.086 72.3398C215.582 71.625 214.779 71.2676 213.678 71.2676C212.178 71.2676 211.094 71.7715 210.426 72.7793C209.758 73.7754 209.424 75.4336 209.424 77.7539V87H204.062V67.3477H208.158L208.879 69.8613H209.178C209.775 68.9121 210.596 68.1973 211.639 67.7168C212.693 67.2246 213.889 66.9785 215.225 66.9785C217.51 66.9785 219.244 67.5996 220.428 68.8418C221.611 70.0723 222.203 71.8535 222.203 74.1855V87ZM227.494 62.2676C227.494 60.5215 228.467 59.6484 230.412 59.6484C232.357 59.6484 233.33 60.5215 233.33 62.2676C233.33 63.0996 233.084 63.75 232.592 64.2188C232.111 64.6758 231.385 64.9043 230.412 64.9043C228.467 64.9043 227.494 64.0254 227.494 62.2676ZM233.084 87H227.723V67.3477H233.084V87ZM247.006 83.0801C247.943 83.0801 249.068 82.875 250.381 82.4648V86.4551C249.045 87.0527 247.404 87.3516 245.459 87.3516C243.314 87.3516 241.75 86.8125 240.766 85.7344C239.793 84.6445 239.307 83.0156 239.307 80.8477V71.373H236.74V69.1055L239.693 67.3125L241.24 63.1641H244.668V67.3477H250.17V71.373H244.668V80.8477C244.668 81.6094 244.879 82.1719 245.301 82.5352C245.734 82.8984 246.303 83.0801 247.006 83.0801ZM258.643 77.1387C258.643 79.084 258.959 80.5547 259.592 81.5508C260.236 82.5469 261.279 83.0449 262.721 83.0449C264.15 83.0449 265.176 82.5527 265.797 81.5684C266.43 80.5723 266.746 79.0957 266.746 77.1387C266.746 75.1934 266.43 73.7344 265.797 72.7617C265.164 71.7891 264.127 71.3027 262.686 71.3027C261.256 71.3027 260.225 71.7891 259.592 72.7617C258.959 73.7227 258.643 75.1816 258.643 77.1387ZM272.23 77.1387C272.23 80.3379 271.387 82.8398 269.699 84.6445C268.012 86.4492 265.662 87.3516 262.65 87.3516C260.764 87.3516 259.1 86.9414 257.658 86.1211C256.217 85.2891 255.109 84.0996 254.336 82.5527C253.562 81.0059 253.176 79.2012 253.176 77.1387C253.176 73.9277 254.014 71.4316 255.689 69.6504C257.365 67.8691 259.721 66.9785 262.756 66.9785C264.643 66.9785 266.307 67.3887 267.748 68.209C269.189 69.0293 270.297 70.207 271.07 71.7422C271.844 73.2773 272.23 75.0762 272.23 77.1387ZM287.629 66.9785C288.355 66.9785 288.959 67.0312 289.439 67.1367L289.035 72.1641C288.602 72.0469 288.074 71.9883 287.453 71.9883C285.742 71.9883 284.406 72.4277 283.445 73.3066C282.496 74.1855 282.021 75.416 282.021 76.998V87H276.66V67.3477H280.721L281.512 70.6523H281.775C282.385 69.5508 283.205 68.666 284.236 67.998C285.279 67.3184 286.41 66.9785 287.629 66.9785ZM292.779 62.2676C292.779 60.5215 293.752 59.6484 295.697 59.6484C297.643 59.6484 298.615 60.5215 298.615 62.2676C298.615 63.0996 298.369 63.75 297.877 64.2188C297.396 64.6758 296.67 64.9043 295.697 64.9043C293.752 64.9043 292.779 64.0254 292.779 62.2676ZM298.369 87H293.008V67.3477H298.369V87ZM322.152 87H316.791V75.5215C316.791 74.1035 316.539 73.043 316.035 72.3398C315.531 71.625 314.729 71.2676 313.627 71.2676C312.127 71.2676 311.043 71.7715 310.375 72.7793C309.707 73.7754 309.373 75.4336 309.373 77.7539V87H304.012V67.3477H308.107L308.828 69.8613H309.127C309.725 68.9121 310.545 68.1973 311.588 67.7168C312.643 67.2246 313.838 66.9785 315.174 66.9785C317.459 66.9785 319.193 67.5996 320.377 68.8418C321.561 70.0723 322.152 71.8535 322.152 74.1855V87ZM344.775 67.3477V70.0723L341.699 70.8633C342.262 71.7422 342.543 72.7266 342.543 73.8164C342.543 75.9258 341.805 77.5723 340.328 78.7559C338.863 79.9277 336.824 80.5137 334.211 80.5137L333.244 80.4609L332.453 80.373C331.902 80.7949 331.627 81.2637 331.627 81.7793C331.627 82.5527 332.611 82.9395 334.58 82.9395H337.92C340.076 82.9395 341.717 83.4023 342.842 84.3281C343.979 85.2539 344.547 86.6133 344.547 88.4062C344.547 90.7031 343.586 92.4844 341.664 93.75C339.754 95.0156 337.006 95.6484 333.42 95.6484C330.678 95.6484 328.58 95.168 327.127 94.207C325.686 93.2578 324.965 91.9219 324.965 90.1992C324.965 89.0156 325.334 88.0254 326.072 87.2285C326.811 86.4316 327.895 85.8633 329.324 85.5234C328.773 85.2891 328.293 84.9082 327.883 84.3809C327.473 83.8418 327.268 83.2734 327.268 82.6758C327.268 81.9258 327.484 81.3047 327.918 80.8125C328.352 80.3086 328.979 79.8164 329.799 79.3359C328.768 78.8906 327.947 78.1758 327.338 77.1914C326.74 76.207 326.441 75.0469 326.441 73.7109C326.441 71.5664 327.139 69.9082 328.533 68.7363C329.928 67.5645 331.92 66.9785 334.51 66.9785C335.061 66.9785 335.711 67.0312 336.461 67.1367C337.223 67.2305 337.709 67.3008 337.92 67.3477H344.775ZM329.605 89.7773C329.605 90.5156 329.957 91.0957 330.66 91.5176C331.375 91.9395 332.371 92.1504 333.648 92.1504C335.57 92.1504 337.076 91.8867 338.166 91.3594C339.256 90.832 339.801 90.1113 339.801 89.1973C339.801 88.459 339.479 87.9492 338.834 87.668C338.189 87.3867 337.193 87.2461 335.846 87.2461H333.068C332.084 87.2461 331.258 87.4746 330.59 87.9316C329.934 88.4004 329.605 89.0156 329.605 89.7773ZM331.557 73.7812C331.557 74.8477 331.797 75.6914 332.277 76.3125C332.77 76.9336 333.514 77.2441 334.51 77.2441C335.518 77.2441 336.256 76.9336 336.725 76.3125C337.193 75.6914 337.428 74.8477 337.428 73.7812C337.428 71.4141 336.455 70.2305 334.51 70.2305C332.541 70.2305 331.557 71.4141 331.557 73.7812Z" fill="#606060"/>
<path d="M155.578 32.8594H157.969C160.203 32.8594 161.875 32.4219 162.984 31.5469C164.094 30.6562 164.648 29.3672 164.648 27.6797C164.648 25.9766 164.18 24.7188 163.242 23.9062C162.32 23.0938 160.867 22.6875 158.883 22.6875H155.578V32.8594ZM171.984 27.4219C171.984 31.1094 170.828 33.9297 168.516 35.8828C166.219 37.8359 162.945 38.8125 158.695 38.8125H155.578V51H148.312V16.7344H159.258C163.414 16.7344 166.57 17.6328 168.727 19.4297C170.898 21.2109 171.984 23.875 171.984 27.4219ZM192.516 24.3047C193.484 24.3047 194.289 24.375 194.93 24.5156L194.391 31.2188C193.812 31.0625 193.109 30.9844 192.281 30.9844C190 30.9844 188.219 31.5703 186.938 32.7422C185.672 33.9141 185.039 35.5547 185.039 37.6641V51H177.891V24.7969H183.305L184.359 29.2031H184.711C185.523 27.7344 186.617 26.5547 187.992 25.6641C189.383 24.7578 190.891 24.3047 192.516 24.3047ZM205.383 37.8516C205.383 40.4453 205.805 42.4062 206.648 43.7344C207.508 45.0625 208.898 45.7266 210.82 45.7266C212.727 45.7266 214.094 45.0703 214.922 43.7578C215.766 42.4297 216.188 40.4609 216.188 37.8516C216.188 35.2578 215.766 33.3125 214.922 32.0156C214.078 30.7188 212.695 30.0703 210.773 30.0703C208.867 30.0703 207.492 30.7188 206.648 32.0156C205.805 33.2969 205.383 35.2422 205.383 37.8516ZM223.5 37.8516C223.5 42.1172 222.375 45.4531 220.125 47.8594C217.875 50.2656 214.742 51.4688 210.727 51.4688C208.211 51.4688 205.992 50.9219 204.07 49.8281C202.148 48.7188 200.672 47.1328 199.641 45.0703C198.609 43.0078 198.094 40.6016 198.094 37.8516C198.094 33.5703 199.211 30.2422 201.445 27.8672C203.68 25.4922 206.82 24.3047 210.867 24.3047C213.383 24.3047 215.602 24.8516 217.523 25.9453C219.445 27.0391 220.922 28.6094 221.953 30.6562C222.984 32.7031 223.5 35.1016 223.5 37.8516ZM252.867 51H245.719V35.6953C245.719 33.8047 245.398 32.3906 244.758 31.4531C244.133 30.5 243.141 30.0234 241.781 30.0234C239.953 30.0234 238.625 30.6953 237.797 32.0391C236.969 33.3828 236.555 35.5938 236.555 38.6719V51H229.406V24.7969H234.867L235.828 28.1484H236.227C236.93 26.9453 237.945 26.0078 239.273 25.3359C240.602 24.6484 242.125 24.3047 243.844 24.3047C247.766 24.3047 250.422 25.5859 251.812 28.1484H252.445C253.148 26.9297 254.18 25.9844 255.539 25.3125C256.914 24.6406 258.461 24.3047 260.18 24.3047C263.148 24.3047 265.391 25.0703 266.906 26.6016C268.438 28.1172 269.203 30.5547 269.203 33.9141V51H262.031V35.6953C262.031 33.8047 261.711 32.3906 261.07 31.4531C260.445 30.5 259.453 30.0234 258.094 30.0234C256.344 30.0234 255.031 30.6484 254.156 31.8984C253.297 33.1484 252.867 35.1328 252.867 37.8516V51ZM287.414 29.3906C285.898 29.3906 284.711 29.875 283.852 30.8438C282.992 31.7969 282.5 33.1562 282.375 34.9219H292.406C292.375 33.1562 291.914 31.7969 291.023 30.8438C290.133 29.875 288.93 29.3906 287.414 29.3906ZM288.422 51.4688C284.203 51.4688 280.906 50.3047 278.531 47.9766C276.156 45.6484 274.969 42.3516 274.969 38.0859C274.969 33.6953 276.062 30.3047 278.25 27.9141C280.453 25.5078 283.492 24.3047 287.367 24.3047C291.07 24.3047 293.953 25.3594 296.016 27.4688C298.078 29.5781 299.109 32.4922 299.109 36.2109V39.6797H282.211C282.289 41.7109 282.891 43.2969 284.016 44.4375C285.141 45.5781 286.719 46.1484 288.75 46.1484C290.328 46.1484 291.82 45.9844 293.227 45.6562C294.633 45.3281 296.102 44.8047 297.633 44.0859V49.6172C296.383 50.2422 295.047 50.7031 293.625 51C292.203 51.3125 290.469 51.4688 288.422 51.4688ZM315.961 45.7734C317.211 45.7734 318.711 45.5 320.461 44.9531V50.2734C318.68 51.0703 316.492 51.4688 313.898 51.4688C311.039 51.4688 308.953 50.75 307.641 49.3125C306.344 47.8594 305.695 45.6875 305.695 42.7969V30.1641H302.273V27.1406L306.211 24.75L308.273 19.2188H312.844V24.7969H320.18V30.1641H312.844V42.7969C312.844 43.8125 313.125 44.5625 313.688 45.0469C314.266 45.5312 315.023 45.7734 315.961 45.7734ZM349.969 51H342.82V35.6953C342.82 31.9141 341.414 30.0234 338.602 30.0234C336.602 30.0234 335.156 30.7031 334.266 32.0625C333.375 33.4219 332.93 35.625 332.93 38.6719V51H325.781V14.5312H332.93V21.9609C332.93 22.5391 332.875 23.8984 332.766 26.0391L332.602 28.1484H332.977C334.57 25.5859 337.102 24.3047 340.57 24.3047C343.648 24.3047 345.984 25.1328 347.578 26.7891C349.172 28.4453 349.969 30.8203 349.969 33.9141V51ZM368.18 29.3906C366.664 29.3906 365.477 29.875 364.617 30.8438C363.758 31.7969 363.266 33.1562 363.141 34.9219H373.172C373.141 33.1562 372.68 31.7969 371.789 30.8438C370.898 29.875 369.695 29.3906 368.18 29.3906ZM369.188 51.4688C364.969 51.4688 361.672 50.3047 359.297 47.9766C356.922 45.6484 355.734 42.3516 355.734 38.0859C355.734 33.6953 356.828 30.3047 359.016 27.9141C361.219 25.5078 364.258 24.3047 368.133 24.3047C371.836 24.3047 374.719 25.3594 376.781 27.4688C378.844 29.5781 379.875 32.4922 379.875 36.2109V39.6797H362.977C363.055 41.7109 363.656 43.2969 364.781 44.4375C365.906 45.5781 367.484 46.1484 369.516 46.1484C371.094 46.1484 372.586 45.9844 373.992 45.6562C375.398 45.3281 376.867 44.8047 378.398 44.0859V49.6172C377.148 50.2422 375.812 50.7031 374.391 51C372.969 51.3125 371.234 51.4688 369.188 51.4688ZM404.25 51L403.289 47.6484H402.914C402.148 48.8672 401.062 49.8125 399.656 50.4844C398.25 51.1406 396.648 51.4688 394.852 51.4688C391.773 51.4688 389.453 50.6484 387.891 49.0078C386.328 47.3516 385.547 44.9766 385.547 41.8828V24.7969H392.695V40.1016C392.695 41.9922 393.031 43.4141 393.703 44.3672C394.375 45.3047 395.445 45.7734 396.914 45.7734C398.914 45.7734 400.359 45.1094 401.25 43.7812C402.141 42.4375 402.586 40.2188 402.586 37.125V24.7969H409.734V51H404.25ZM435.516 43.2188C435.516 45.9062 434.578 47.9531 432.703 49.3594C430.844 50.7656 428.055 51.4688 424.336 51.4688C422.43 51.4688 420.805 51.3359 419.461 51.0703C418.117 50.8203 416.859 50.4453 415.688 49.9453V44.0391C417.016 44.6641 418.508 45.1875 420.164 45.6094C421.836 46.0312 423.305 46.2422 424.57 46.2422C427.164 46.2422 428.461 45.4922 428.461 43.9922C428.461 43.4297 428.289 42.9766 427.945 42.6328C427.602 42.2734 427.008 41.875 426.164 41.4375C425.32 40.9844 424.195 40.4609 422.789 39.8672C420.773 39.0234 419.289 38.2422 418.336 37.5234C417.398 36.8047 416.711 35.9844 416.273 35.0625C415.852 34.125 415.641 32.9766 415.641 31.6172C415.641 29.2891 416.539 27.4922 418.336 26.2266C420.148 24.9453 422.711 24.3047 426.023 24.3047C429.18 24.3047 432.25 24.9922 435.234 26.3672L433.078 31.5234C431.766 30.9609 430.539 30.5 429.398 30.1406C428.258 29.7812 427.094 29.6016 425.906 29.6016C423.797 29.6016 422.742 30.1719 422.742 31.3125C422.742 31.9531 423.078 32.5078 423.75 32.9766C424.438 33.4453 425.93 34.1406 428.227 35.0625C430.273 35.8906 431.773 36.6641 432.727 37.3828C433.68 38.1016 434.383 38.9297 434.836 39.8672C435.289 40.8047 435.516 41.9219 435.516 43.2188Z" fill="black"/>
<path d="M122.972 64.5262C123.935 95.3448 98.2557 125.853 61.6857 126C29.258 126.129 -0.0174296 100.655 7.78574e-06 64.4722C0.0174452 28.2782 29.32 2.84067 61.7399 3.00075C98.3119 3.17819 123.964 33.7114 122.972 64.5262ZM79.7605 71.5042C82.3199 67.7895 84.1411 64.4336 84.796 60.5839C86.1135 52.8421 84.5402 45.6442 80.6246 38.9034C78.4158 35.102 76.6237 31.1443 76.2168 26.716C76.0599 25.0052 76.1916 23.2675 76.1916 21.5413C70.4179 28.3727 70.2978 36.7703 68.7362 44.757C68.4029 44.3289 68.2964 43.9528 68.2828 43.5747C68.0367 36.8417 66.5197 30.423 63.8595 24.2106C62.0131 19.9 59.7482 15.5701 61.7128 10.4436C59.4614 10.9007 58.4501 12.3086 57.4833 13.6992C55.4101 16.681 54.6836 20.0755 54.6003 23.6436C54.484 28.6389 53.585 33.4877 51.7057 38.13C51.293 39.1522 50.9694 40.3056 49.8496 41.0481C47.0305 27.2348 46.3447 25.6244 42.8921 24.957C43.8569 29.2657 42.7952 33.2948 41.3711 37.2737C40.4779 39.7656 39.5092 42.2343 38.6896 44.7512C37.068 49.7369 35.888 54.7785 36.8723 60.094C37.6143 64.1019 39.4782 67.6044 41.7644 71.0008C40.6233 71.4425 39.7301 71.0722 38.8466 70.8832C34.402 69.9342 29.9535 68.993 25.5283 67.9612C23.9144 67.5851 23.7051 68.0248 24.2631 69.4405C26.1367 74.1928 28.979 78.3337 32.2165 82.2451C32.8636 83.0262 33.6658 83.032 34.5337 83.0301C52.5562 83.0262 70.5807 83.0243 88.6031 83.0359C89.5796 83.0359 90.4089 82.924 91.1393 82.1275C94.5958 78.3549 97.192 74.0809 99.0404 69.3248C99.7204 67.5754 98.9067 67.6757 97.6396 67.9554C95.3766 68.453 93.0981 68.8696 90.8254 69.319C87.338 70.0037 83.8524 70.6941 79.7605 71.5042ZM61.6663 98.8685C68.7865 98.8685 75.9049 98.9032 83.0251 98.8492C85.4063 98.8319 88.4888 99.8695 89.9865 98.4346C91.6217 96.8704 90.2209 93.7266 90.5697 91.3119C90.9339 88.793 89.7753 88.4169 87.555 88.4285C71.8575 88.5114 56.16 88.4555 40.4624 88.4902C37.9941 88.496 34.7779 87.4352 33.2492 88.9049C31.5907 90.4999 32.9741 93.7633 32.6621 96.2706C32.3851 98.5059 33.3616 98.936 35.4153 98.911C44.1669 98.8088 52.9166 98.8705 61.6663 98.8685ZM61.645 103.625C56.406 103.625 51.1671 103.665 45.93 103.6C44.4014 103.58 43.9596 104.076 44.2599 105.563C44.9903 109.175 46.8697 112.026 49.7934 114.225C56.3053 119.126 66.0024 119.334 72.7623 114.701C75.9223 112.535 78.0555 109.675 78.9002 105.864C79.2761 104.167 78.9467 103.559 77.1022 103.592C71.9524 103.686 66.7987 103.625 61.645 103.625Z" fill="#E7552D"/>
<path d="M79.7602 71.5043C83.8522 70.6942 87.3377 70.0038 90.8232 69.3152C93.0959 68.8658 95.3763 68.4492 97.6374 67.9516C98.9045 67.6739 99.7182 67.5736 99.0382 69.321C97.1898 74.0772 94.5936 78.3531 91.1371 82.1237C90.4067 82.9202 89.5775 83.0321 88.601 83.0321C70.5785 83.0205 52.554 83.0225 34.5316 83.0263C33.6636 83.0263 32.8614 83.0205 32.2143 82.2413C28.9768 78.33 26.1345 74.191 24.2609 69.4367C23.7029 68.0211 23.9103 67.5813 25.5261 67.9574C29.9513 68.9893 34.3998 69.9324 38.8444 70.8794C39.726 71.0665 40.6191 71.4368 41.7623 70.997C39.476 67.6006 37.6122 64.0981 36.8701 60.0903C35.8859 54.7748 37.0658 49.7351 38.6875 44.7475C39.507 42.2305 40.4758 39.7637 41.3689 37.2699C42.793 33.291 43.8567 29.2639 42.8899 24.9533C46.3425 25.6206 47.0303 27.2311 49.8474 41.0444C50.9672 40.3018 51.2889 39.1485 51.7035 38.1263C53.5828 33.4839 54.4799 28.6371 54.5981 23.6398C54.6814 20.0717 55.408 16.6772 57.4811 13.6955C58.4479 12.3049 59.4612 10.8969 61.7106 10.4398C59.746 15.5663 62.0109 19.8962 63.8573 24.2069C66.5175 30.4192 68.0326 36.8379 68.2806 43.571C68.2942 43.9509 68.4007 44.3251 68.734 44.7533C70.2956 36.7665 70.4157 28.369 76.1894 21.5375C76.1894 23.2637 76.0577 25.0015 76.2146 26.7122C76.6215 31.1405 78.4137 35.0963 80.6224 38.8997C84.538 45.6405 86.1113 52.8364 84.7938 60.5801C84.1409 64.4318 82.3196 67.7896 79.7602 71.5043Z" fill="#FFFBF8"/>
<path d="M61.6662 98.8705C52.9165 98.8705 44.1668 98.8107 35.4191 98.9149C33.3653 98.9399 32.3888 98.5098 32.6659 96.2745C32.9759 93.7672 31.5945 90.5038 33.253 88.9088C34.7797 87.4391 37.9979 88.4999 40.4662 88.4941C56.1637 88.4594 71.8612 88.5153 87.5587 88.4324C89.7791 88.4208 90.9377 88.795 90.5735 91.3158C90.2228 93.7305 91.6236 96.8743 89.9903 98.4385C88.4926 99.8715 85.4101 98.8339 83.0289 98.8531C75.9067 98.9033 68.7864 98.8686 61.6662 98.8705Z" fill="#FFFBF8"/>
<path d="M61.6449 103.625C66.7967 103.625 71.9523 103.685 77.1022 103.592C78.9447 103.559 79.2741 104.167 78.9002 105.864C78.0574 109.677 75.9242 112.535 72.7622 114.701C66.0023 119.334 56.3052 119.126 49.7933 114.225C46.8697 112.024 44.9922 109.176 44.2599 105.563C43.9596 104.078 44.4013 103.582 45.93 103.6C51.167 103.665 56.406 103.625 61.6449 103.625Z" fill="#FFFBF8"/>
</svg>
