<?xml version="1.0" encoding="UTF-8"?>
<svg width="23px" height="18px" viewBox="0 0 23 18" version="1.1" xmlns="http://www.w3.org/2000/svg" xmlns:xlink="http://www.w3.org/1999/xlink">
    <!-- Generator: Sketch 53.2 (72643) - https://sketchapp.com -->
    <title>Group 3</title>
    <desc>Created with Sketch.</desc>
    <g id="Icons" stroke="none" stroke-width="1" fill="none" fill-rule="evenodd">
        <g transform="translate(-56.000000, -786.000000)" id="Group-3">
            <g transform="translate(56.000000, 777.000000)">
                <path d="" id="Path-12" stroke="#979797" transform="translate(11.500000, 16.500000) rotate(-90.000000) translate(-11.500000, -16.500000) "></path>
                <path d="M11.2295633,22.5064609 C11.33217,22.6414107 11.4359805,22.7581403 11.518106,22.8423386 C12.0351165,22.9695737 12.362288,22.9017625 12.5578774,22.7372134 C12.6119661,22.6917086 12.6336076,22.6599445 12.6303828,22.6674852 L12.6905873,22.5602312 C13.1896219,21.8652133 13.1703125,21.2464532 12.8396113,20.6462779 C12.7486146,20.4811318 12.6593488,20.3644442 12.675763,20.3703317 C12.2046739,20.0284332 11.8650787,20.0284332 11.601789,20.2026841 C11.5454635,20.2399615 11.5127475,20.2717399 11.4612711,20.3293021 C11.2946902,20.4889932 11.1715327,20.6640276 11.0847224,20.8528341 C10.9158347,21.2201534 10.8899636,21.619785 10.949362,21.9810465 C10.9557483,22.0198883 10.9615905,22.0489911 10.9655721,22.0668255 C11.0162505,22.1945701 11.1082149,22.3468617 11.2295633,22.5064609 Z M13.0885957,23.6306745 C12.6538263,23.9964455 12.0264274,24.111691 11.2050579,23.8803255 L11.0275121,23.7786791 C10.9030671,23.6627008 10.7265394,23.4756318 10.547835,23.2405973 C10.3569449,22.9895358 10.2068346,22.7364625 10.1123714,22.4765931 L10.0986992,22.4342429 C10.0834786,22.3805443 10.0646842,22.2982372 10.0470789,22.1911617 C9.94993545,21.6003338 9.99204008,20.949941 10.2781781,20.3276102 C10.4229079,20.0128328 10.6241852,19.7267726 10.8377342,19.5288225 C10.9035216,19.4454174 11.0087783,19.3431775 11.1549518,19.2464368 C11.7016579,18.8846147 12.3944833,18.8846147 13.2197862,19.4935888 C13.3253267,19.6047612 13.4677515,19.7909379 13.6084452,20.0462769 C14.1395256,21.010112 14.180785,22.1404188 13.4175945,23.2314742 C13.35172,23.3576504 13.2450267,23.4990693 13.0885957,23.6306745 Z" id="Stroke-5-Copy" fill="#262B3E" fill-rule="nonzero"></path>
                <path d="M12.504389,21.6767187 C12.4885774,21.6693481 12.4416765,21.6835512 12.3926769,21.7516683 C12.3767463,21.7738143 12.3624887,21.7993447 12.349771,21.8279108 L12.3542486,21.8147405 C12.3512807,21.8215571 12.3485559,21.8288045 12.3460674,21.836417 C12.3321783,21.8690348 12.3201998,21.9054084 12.3099459,21.9450499 L12.3408929,21.8540242 C12.3164277,21.9468584 12.3221781,22.0810091 12.3479484,22.1583132 C12.3538404,22.1759877 12.360993,22.1914473 12.4214015,22.2828379 C12.4241772,22.2861673 12.4271121,22.2892692 12.4301907,22.2921379 L12.504389,21.6767187 Z M12.5975947,22.264957 C12.6197629,22.240709 12.6315843,22.2217313 12.623339,22.2333036 C12.6350194,22.2148059 12.6464083,22.188074 12.6553326,22.1560311 C12.6741413,22.088498 12.6764921,22.0287831 12.6709792,21.9732833 C12.6683966,21.9501883 12.6683966,21.9501883 12.6634282,21.91922 L12.6534788,21.8681997 C12.6440216,21.825116 12.6370886,21.8058184 12.6313376,21.7933483 C12.6330936,21.7971558 12.6364465,21.8030078 12.6337041,21.7988014 L12.4360035,22.2971431 C12.478309,22.330749 12.5434153,22.3242196 12.5975947,22.264957 Z M12.7810931,22.8319528 C12.6640753,22.9946257 12.5129693,23.0403856 12.349183,22.9640364 L12.2198679,22.8419537 C12.1947966,22.8034977 12.1646559,22.7508915 12.1329183,22.6820728 C12.0932496,22.5960568 12.060266,22.5042488 12.0357328,22.3924849 L12.0257834,22.3414645 C12.0189131,22.2993909 12.0189131,22.2993909 12.0106244,22.2268944 C11.9885628,22.0047935 11.998148,21.761304 12.0651988,21.520557 C12.098658,21.4004212 12.1444119,21.2930277 12.1670046,21.2654567 C12.200511,21.1988866 12.2269259,21.1564807 12.2705126,21.1088047 C12.4170748,20.948492 12.6009639,20.948492 12.819696,21.2230026 C12.8485558,21.2732819 12.8802402,21.3417637 12.910664,21.4330272 C13.0285473,21.7866465 13.0405739,22.2420433 12.8811429,22.6374873 C12.8561187,22.7068682 12.8231953,22.7734242 12.7810931,22.8319528 Z" id="Stroke-7-Copy" fill="#262B3E" fill-rule="nonzero"></path>
                <path d="M8.77070312,12.4931307 C8.66816018,12.358352 8.56441191,12.2417786 8.48234111,12.1577031 C7.96516103,12.0303916 7.63788732,12.0982124 7.44224386,12.2628135 C7.38814262,12.3083306 7.36649432,12.3401062 7.36971594,12.3325726 L7.30946253,12.4398999 C6.81024329,13.1349683 6.82961698,13.7533309 7.16050273,14.3530914 C7.25157862,14.5181747 7.34092808,14.6348147 7.3250813,14.6293609 C7.79588619,14.9715899 8.13507012,14.9715899 8.39809301,14.7972298 C8.45437899,14.7599174 8.4870829,14.7280982 8.53891279,14.6701045 C8.70584187,14.5101607 8.82915096,14.3347261 8.91597115,14.1453798 C9.08420961,13.7784684 9.10997848,13.3791631 9.05077875,13.0182204 C9.04441983,12.9794498 9.03860143,12.9503849 9.03463041,12.9325473 C8.98404845,12.8049259 8.8920962,12.6526853 8.77070312,12.4931307 Z M6.91155488,11.3693583 C7.34635732,11.0035452 7.97381567,10.8882928 8.79528035,11.1197037 L8.97265605,11.2212018 C9.09706706,11.3370499 9.27353578,11.523913 9.4521838,11.7587214 C9.64332701,12.0099531 9.79357094,12.2632219 9.88798856,12.5233678 L9.90166865,12.5658259 C9.91683111,12.6194524 9.93555529,12.7016553 9.95309518,12.8085967 C10.0498613,13.398583 10.0079516,14.048001 9.72297365,14.6695098 C9.57815869,14.9853369 9.37649359,15.2722504 9.16257632,15.4703458 C9.09681885,15.5538523 8.9915979,15.6562269 8.84545192,15.7531083 C8.29874694,16.1155236 7.60581726,16.1155236 6.7810718,15.5061679 C6.67542402,15.3950415 6.53285287,15.208924 6.39200817,14.9536301 C5.86043151,13.9900991 5.81902474,12.8597931 6.58256654,11.7685475 C6.64844415,11.6423728 6.7551347,11.5009596 6.91155488,11.3693583 Z" id="Stroke-17-Copy" fill="#262B3E" fill-rule="nonzero"></path>
                <path d="M8.50463756,13.6768349 C8.4886979,13.6693932 8.44171794,13.6836278 8.39272402,13.7517362 C8.37669534,13.7740183 8.36236229,13.7997267 8.34958733,13.8285088 L8.35400943,13.8154925 C8.35108908,13.8222187 8.34840598,13.8293681 8.3459536,13.8368768 C8.33219154,13.8692694 8.32030892,13.9053602 8.3101212,13.944676 L8.34087232,13.8541611 C8.31645679,13.9466554 8.32218229,14.0807774 8.34797392,14.1581309 C8.35389687,14.1758949 8.36108957,14.1914315 8.42169023,14.2829886 C8.42442033,14.2862563 8.4273054,14.2893036 8.43033078,14.2921247 L8.50463756,13.6768349 Z M8.59741303,14.2649821 C8.61959941,14.2407425 8.63142817,14.2217711 8.62330916,14.2331287 C8.6350196,14.2145833 8.64643148,14.1877846 8.65536642,14.1556687 C8.6741601,14.0881166 8.6764991,14.0284333 8.670984,13.9729805 C8.66839918,13.9498938 8.66839918,13.9498938 8.6634248,13.9189228 L8.65352801,13.868188 C8.64470993,13.828003 8.63809099,13.8084925 8.63257895,13.7959277 C8.6349999,13.8004611 8.63516952,13.8009 8.63381435,13.7988219 L8.43614574,14.2971334 C8.47829352,14.3306095 8.54327492,14.3241303 8.59741303,14.2649821 Z M8.78116001,14.8319366 C8.66412218,14.9946356 8.51297558,15.0404319 8.34919421,14.9639679 L8.22001742,14.8419809 C8.19495826,14.803553 8.16482382,14.7509826 8.13308854,14.6822245 C8.09333797,14.5961003 8.06029957,14.5042047 8.03573611,14.3922662 L8.02583932,14.3415314 C8.01895747,14.2994354 8.01895747,14.2994354 8.01065026,14.2268656 C7.98857015,14.0048563 7.99810813,13.7614796 8.06506886,13.5207954 C8.09852828,13.4005285 8.14430867,13.2930215 8.16703853,13.2651885 C8.20057993,13.1986062 8.2269981,13.1562356 8.27060157,13.108597 C8.41706803,12.9485761 8.60078429,12.9485761 8.8196153,13.2227059 C8.84851226,13.2730011 8.88022886,13.3415108 8.91067573,13.4328262 C9.02851365,13.7862424 9.04053395,14.2414313 8.88137057,14.6370505 C8.85632929,14.7065688 8.82335688,14.773277 8.78116001,14.8319366 Z" id="Stroke-19-Copy" fill="#262B3E" fill-rule="nonzero"></path>
                <path d="M9.12712193,21.9796717 L9.15699824,22.2308063 C9.27472917,23.2204302 9.67403671,23.8898967 10.2777565,24.3461011 C10.5614128,24.5604476 10.8465894,24.7003661 11.0776189,24.7816486 C11.2667374,24.7095096 11.4694101,24.6783384 11.6759438,24.683624 C11.8824327,24.6889084 12.0782353,24.7289452 12.2679555,24.7927904 L12.6086835,24.6910926 L20.0028723,22.4965806 L20.5339472,22.0766666 C20.8665707,21.6582443 21.0007593,21.2144823 20.9902669,20.7652134 C20.9869737,20.6242003 20.968751,20.4928014 20.9423707,20.3857645 C20.9208296,20.3584094 20.899983,20.3300436 20.8796632,20.3008023 C20.8188515,20.2132908 20.7739416,20.1293122 20.7243223,20.0232675 C20.706145,19.9844196 20.6146085,19.775722 20.5725363,19.6843446 C20.5087134,19.6418398 20.4208377,19.5893192 20.3146104,19.5306191 C20.2342635,19.4862202 20.1451995,19.4392329 20.0490346,19.3903719 C19.8649135,19.2968206 19.6649432,19.2014604 19.4646167,19.1101004 C19.4414641,19.0995415 19.4193382,19.089502 19.3983427,19.0800186 L11.2324562,19.3540247 C10.4612739,19.5253102 9.93695799,19.9254566 9.56526809,20.5161983 C9.40746977,20.7669936 9.28534939,21.0399543 9.18619731,21.3391456 C9.1524556,21.4409612 9.08475529,21.6823786 9.03740752,21.8455852 L9.12712193,21.9796717 Z M7.15831699,22.6171729 C6.98639738,22.2042707 6.933093,21.7486919 7.10672695,21.2717644 C7.09593657,21.3011304 7.20361701,20.9064027 7.28075033,20.673653 C7.42950091,20.2247983 7.61884891,19.8015719 7.8745883,19.395115 C8.54329005,18.3323203 9.54771164,17.584153 10.9226056,17.310151 L11.0815101,17.2917693 L19.7767721,17 L19.9791593,17.0870335 C20.0419546,17.1140377 20.1474059,17.1605614 20.2817429,17.2218265 C20.5056785,17.3239536 20.7299702,17.430912 20.941827,17.5385557 C21.0575254,17.5973416 21.1667265,17.6549526 21.268578,17.7112347 C21.7903707,17.9995719 22.0689828,18.1958461 22.2577279,18.5361818 C22.293877,18.6007052 22.3282457,18.6673053 22.362399,18.7380079 C22.3936314,18.802664 22.4494155,18.927362 22.4898766,19.0185627 C23.3096214,19.8447474 23.1405783,22.162308 21.9886669,23.5099508 L21.8463163,23.6470306 L20.9285808,24.3726722 L20.7452186,24.4270921 L13.169131,26.6755883 L12.0822294,27 L11.7923647,26.831162 L11.6633091,26.9923674 L11.1015427,26.9085584 C10.5607459,26.8278779 9.82446279,26.5691892 9.08462113,26.0101235 C8.09039952,25.2588342 7.40650816,24.1514344 7.18593899,22.6807662 C7.17666562,22.6602918 7.16744434,22.6390942 7.15831699,22.6171729 Z M22.5385698,19.1286198 C22.5421074,19.1361804 22.5400621,19.1323557 22.5181689,19.1008502 C22.4759609,19.0410718 22.4759609,19.0410718 22.3580489,18.9291275 C22.2362491,18.8290857 22.0865371,18.7537693 21.9080765,18.7263577 C22.1383114,18.7561081 22.3323507,18.8597992 22.4898766,19.0185627 C22.5169486,19.0795836 22.5371608,19.1256086 22.5385698,19.1286198 Z M21.9080765,18.7263577 C21.860134,18.7189937 21.8101167,18.715087 21.7580084,18.715087 C21.8095152,18.715087 21.859418,18.7184299 21.907717,18.724955 L21.9080765,18.7263577 Z" id="Stroke-1-Copy" fill="#262B3E" fill-rule="nonzero"></path>
                <path d="M14.6411874,22.7678953 C14.9760545,22.1895227 15.0418813,21.5609609 14.9499035,21.0081467 C14.938304,20.9384308 14.9286977,20.8971818 14.926644,20.8901257 L14.9226706,20.876062 C14.7797803,20.3546307 14.5582341,19.9608119 14.2833897,19.6672604 C14.1263053,19.4994841 13.9629321,19.3764855 13.8054449,19.2910111 C13.7269806,19.2484254 13.6821367,19.2308177 13.6870258,19.232187 L13.5425286,19.1798908 C12.6506988,18.7797427 11.9003757,18.8761912 11.2323446,19.2827121 C11.0113413,19.4172005 10.8630592,19.5458367 10.7713417,19.6448087 C10.5336933,19.8799972 10.3584044,20.125099 10.2366447,20.380519 C9.91539554,21.0544157 9.9631095,21.8095457 10.2545354,22.550415 C10.3431803,22.7757698 10.427821,22.9352223 10.4213645,22.9324747 C10.681251,23.2658245 10.9557954,23.5170132 11.2421095,23.6980962 C11.8841317,24.1041511 12.5648838,24.1514335 13.1990407,23.9864283 C13.3062926,23.9585217 13.3760735,23.9340095 13.3419009,23.9523436 C13.9602333,23.6205888 14.3784983,23.2216042 14.6411874,22.7678953 Z M16.9355167,20.7063531 C17.0919556,21.6465968 16.9823572,22.6931199 16.4003609,23.6983269 C15.95406,24.4691648 15.2635578,25.1267768 14.2495346,25.6657545 C14.13356,25.7172917 13.9568156,25.7808394 13.7271677,25.8405929 C12.5815092,26.138689 11.3189905,26.0509993 10.1325897,25.3006453 C9.64894287,24.9947568 9.20550189,24.5890396 8.75887069,24.009767 C8.65185352,23.8433877 8.51021555,23.5765598 8.37258164,23.2266639 C7.91004252,22.050787 7.83057093,20.7930547 8.40703797,19.5837775 C8.62415682,19.128319 8.92943814,18.7014525 9.28879447,18.3477969 C9.46258579,18.1562792 9.75099448,17.9060818 10.152524,17.6617367 C11.3473111,16.9346658 12.7893389,16.7416729 14.3343514,17.4127613 C14.7548244,17.5480953 15.278989,17.8489423 15.781648,18.3858145 C16.267714,18.9049644 16.641699,19.5687645 16.8656922,20.382129 C16.886967,20.4566071 16.9121786,20.5660844 16.9355167,20.7063531 Z" id="Stroke-15-Copy-3" fill="#262B3E" fill-rule="nonzero"></path>
                <polygon id="Stroke-23-Copy" fill="#262B3E" fill-rule="nonzero" points="5.09826496 27 5 25.7215102 9.90173504 25 10 26.2784898"></polygon>
                <path d="M4.33061408,22.7358202 C4.41943024,22.8301457 4.50936078,22.9128141 4.58278344,22.9747426 C5.03749304,23.0614151 5.31631769,23.0133665 5.4791386,22.9028971 C5.51934982,22.8756149 5.53239771,22.8601633 5.52429647,22.8754574 L5.5912961,22.7791957 C6.04797454,22.2660285 6.03052348,21.815293 5.72842728,21.3729557 C5.6451848,21.2510699 5.56408727,21.1655397 5.59641892,21.1825327 C5.17525131,20.9357534 4.8884876,20.9357534 4.66561836,21.0548006 C4.6201727,21.0790757 4.59536785,21.0985206 4.54332016,21.1447345 C4.3918146,21.2619515 4.28023334,21.3899824 4.20159831,21.5281112 C4.04811196,21.7977224 4.02438947,22.09359 4.07872865,22.3605665 C4.08387023,22.3858278 4.08853496,22.4051202 4.09182761,22.4175858 C4.13765832,22.5086005 4.22081148,22.6192064 4.33061408,22.7358202 Z M6.09626087,23.6988206 C5.65785838,23.9962642 5.02879522,24.0895639 4.21686211,23.9055757 L4.01097663,23.8106818 C3.88854933,23.7184605 3.71637529,23.5710464 3.54185941,23.3857052 C3.35438728,23.186604 3.20653896,22.9854598 3.11271732,22.7774356 L3.09759713,22.739652 C3.08221645,22.6958179 3.06355053,22.6297838 3.0461853,22.5444658 C2.95083908,22.0760156 2.99214913,21.5607956 3.27385681,21.0659532 C3.41689771,20.8146902 3.61601251,20.5862213 3.82050896,20.4341678 C3.88882544,20.3642729 3.99606739,20.2802042 4.1444103,20.2009658 C4.69669536,19.9059588 5.39780019,19.9059588 6.22880016,20.4020326 C6.33466605,20.4920053 6.47549994,20.6405369 6.61418889,20.8436089 C7.13662896,21.6085796 7.17799437,22.5076036 6.42981361,23.3732548 C6.36165494,23.4773276 6.25344457,23.592176 6.09626087,23.6988206 Z" id="Stroke-11-Copy" fill="#262B3E" fill-rule="nonzero"></path>
                <path d="M4.31454158,22.4552734 L4.34485199,22.4125834 C4.31407455,22.4684566 4.3212952,22.5496157 4.3537107,22.596171 C4.36068652,22.6061897 4.36862218,22.6144011 4.42990921,22.6588773 C4.46625317,22.6797241 4.53280255,22.6797241 4.58927411,22.6501777 C4.61115829,22.6387278 4.62275855,22.6298194 4.6147301,22.635185 C4.62740754,22.6255769 4.64019541,22.6112129 4.65058047,22.5933678 C4.67423909,22.552714 4.67741997,22.5138831 4.67007399,22.4785907 C4.66676976,22.4645438 4.66676976,22.4645438 4.661072,22.4476201 L4.64968669,22.4198281 C4.63878965,22.3962617 4.63068515,22.385492 4.62368664,22.3782354 C4.62501997,22.3796179 4.62819052,22.3822642 4.62525501,22.3801109 L4.42694904,22.6532192 L4.49984091,22.3231458 C4.48892859,22.3207113 4.44792439,22.3266458 4.40149596,22.3574735 C4.38521214,22.3682857 4.37041674,22.380991 4.35707079,22.3953741 L4.36148729,22.3891538 C4.35816247,22.392812 4.35508119,22.3966796 4.35223736,22.4007282 C4.33793974,22.4170052 4.32539179,22.4352825 4.31454158,22.4552734 Z M4.7723287,22.9216892 C4.65786907,22.9976886 4.51273692,23.0186936 4.35405716,22.9832926 L4.22864307,22.9263275 C4.20330937,22.9077441 4.17288263,22.8823483 4.14061868,22.8488947 C4.09978163,22.8065517 4.06564056,22.7611833 4.03958192,22.7048278 L4.02819661,22.6770358 C4.02058859,22.6547884 4.02058859,22.6547884 4.0115536,22.6170629 C3.98762524,22.5021036 3.99800332,22.3754122 4.06985267,22.25195 C4.10473676,22.1920069 4.15184439,22.1390934 4.17466271,22.125823 C4.20910578,22.0931528 4.23530961,22.0730296 4.27862839,22.0503649 C4.42083835,21.9759595 4.59668422,21.9759595 4.81144659,22.1050282 C4.84099491,22.1296718 4.87343432,22.1632382 4.90491388,22.2084492 C5.03020318,22.3883903 5.04311673,22.6263085 4.87432799,22.8268087 C4.84829882,22.8611324 4.81460038,22.8936215 4.7723287,22.9216892 Z" id="Stroke-13-Copy" fill="#262B3E" fill-rule="nonzero"></path>
                <path d="M10.5467739,15.4748291 C10.938699,14.8012471 11.0153615,14.0728306 10.9080412,13.430986 C10.8943316,13.348994 10.882721,13.2993845 10.8795662,13.2885989 L10.8753771,13.2738449 C10.7091856,12.6703757 10.4498878,12.2117238 10.1264212,11.8679452 C9.81333083,11.5351942 9.5234841,11.3786592 9.39004291,11.3414699 L9.24480332,11.2891524 C8.18404298,10.8155563 7.28046369,10.9311316 6.4846084,11.4130488 C6.22232182,11.5718722 6.04561951,11.7244069 5.93857502,11.8396359 C5.6598689,12.1140964 5.45391969,12.4006488 5.3108343,12.6993237 C4.93446528,13.4849524 4.99002588,14.3599268 5.32887018,15.2170943 C5.43194013,15.4778283 5.53089707,15.6633308 5.53151081,15.67181 C5.83457965,16.0586308 6.15647326,16.3516878 6.49389703,16.5640428 C7.26013233,17.0462671 8.07555082,17.1026235 8.83216488,16.9067266 C8.96598218,16.8720796 9.05344306,16.8410852 9.01929876,16.859294 C9.74557145,16.4725138 10.2378776,16.0057136 10.5467739,15.4748291 Z M12.927706,13.1132366 C13.103093,14.1621632 12.9801151,15.3306493 12.3286166,16.4503472 C11.8300432,17.3072204 11.0591915,18.0377327 9.93299195,18.6336915 C9.80746743,18.6891974 9.61332629,18.7586556 9.35981972,18.8242916 C8.09093951,19.1528207 6.69484543,19.0563318 5.38026919,18.2290134 C4.84144949,17.8899114 4.34624973,17.4390738 3.85027003,16.7994212 C3.73144799,16.6156002 3.57289152,16.3183737 3.41844807,15.9276812 C2.89925284,14.6142836 2.81007169,13.2098489 3.45533618,11.8629306 C3.69790684,11.3565912 4.03886401,10.8821922 4.44349154,10.4857603 C4.63468501,10.2761049 4.9549526,9.99964027 5.40113095,9.72946424 C6.72719508,8.92648771 8.32153026,8.71483469 10.0366964,9.4582852 C10.4963668,9.60410762 11.0773554,9.93450616 11.6376648,10.5300002 C12.1802672,11.1066754 12.5987672,11.8458916 12.8500776,12.7542306 C12.8735274,12.8358675 12.9016058,12.9571407 12.927706,13.1132366 Z" id="Stroke-15-Copy" fill="#262B3E" fill-rule="nonzero"></path>
                <path d="M8,10.8747347 L8.52081048,9 L17.332714,11.2031479 L17.4990595,11.2597288 C17.8208774,11.4000579 18.2583048,11.6513983 18.7004684,12.0279717 C20.3388104,13.4232833 20.5740392,15.3892757 18.5591733,17.4400033 L18.2696642,17.7346652 L9.76512144,18 L9.69794827,16.0622994 L17.336336,15.8239879 C18.2333702,14.7859075 18.096329,14.1188372 17.3352468,13.4706534 C17.1048926,13.2744698 16.871013,13.1313258 16.714212,13.0534578 L8,10.8747347 Z" id="Stroke-21-Copy" fill="#262B3E" fill-rule="nonzero"></path>
                <path d="M3.695097,20.1273316 C3.09496439,20.4500503 2.6909885,20.8360856 2.43751901,21.2743231 C2.1142858,21.8331789 2.05066589,22.4419056 2.13966461,22.9767711 C2.15077654,23.0435517 2.15980411,23.082314 2.16127222,23.0873581 L2.16550526,23.1023493 C2.30415078,23.6088808 2.51824889,23.9899298 2.7831398,24.2731734 C2.93366017,24.4341225 3.08974998,24.5517486 3.23966956,24.6331714 C3.31283533,24.6729085 3.35280202,24.6886064 3.34371003,24.6860604 L3.49460044,24.7406557 C4.35636686,25.1271816 5.07656758,25.034637 5.71997408,24.6429156 C5.93268211,24.5134139 6.07477945,24.3900528 6.16398513,24.2938672 C6.3939871,24.0661209 6.56324868,23.8293186 6.68067653,23.5828546 C6.99039486,22.9328011 6.94422645,22.201568 6.66153118,21.4824652 C6.57545697,21.2635149 6.49356738,21.1091536 6.50478074,21.1189493 C6.25211296,20.7947645 5.98588964,20.5511326 5.70884434,20.3758778 C5.09065932,19.984823 4.43526763,19.9392062 3.82395997,20.0981566 C3.72360948,20.1242495 3.65834124,20.1469526 3.69314003,20.1281701 L3.695097,20.1273316 Z M0.0645228286,23.2925303 C-0.0918716616,22.352629 0.0174162114,21.3069431 0.598781427,20.3017885 C1.04439948,19.5313347 1.73356311,18.8743571 2.74808055,18.3347686 C2.86532929,18.282698 3.04273115,18.2189558 3.27263679,18.1591764 C4.41826414,17.8612937 5.68127864,17.9492024 6.86813969,18.6999934 C7.35145347,19.0057306 7.7942381,19.4109411 8.242205,19.9924061 C8.34966558,20.1595739 8.4911181,20.4262109 8.62838599,20.7753845 C9.08989608,21.9493455 9.16924539,23.2061104 8.59280774,24.4159689 C8.37572299,24.8715981 8.07061105,25.2984594 7.7135588,25.6499225 C7.53864231,25.8428663 7.24998164,26.0934655 6.84845585,26.3379241 C5.65452491,27.064818 4.21156495,27.258167 2.66734252,26.5885486 C2.2437749,26.451639 1.7191009,26.1496885 1.21687627,25.6126676 C0.731382931,25.0935373 0.358124794,24.4302779 0.13480028,23.6186725 C0.113249876,23.543169 0.0879097356,23.4330812 0.0645228286,23.2925303 Z" id="Stroke-9-Copy" fill="#262B3E" fill-rule="nonzero"></path>
            </g>
        </g>
    </g>
</svg>