<?xml version="1.0" encoding="utf-8"?>
<!-- Generator: Adobe Illustrator 22.1.0, SVG Export Plug-In . SVG Version: 6.00 Build 0)  -->
<svg version="1.1" id="Layer_1" xmlns="http://www.w3.org/2000/svg" xmlns:xlink="http://www.w3.org/1999/xlink" x="0px" y="0px"
	 viewBox="0 0 100 100" style="enable-background:new 0 0 100 100;" xml:space="preserve">
<style type="text/css">
	.st0{fill:#E7552D;}
	.st1{fill:#FFFBF8;}
	.st2{fill:#FAA227;}
	.st3{fill:#E2442B;}
	.st4{fill:#FB6D27;}
	.st5{fill:#E24329;}
	.st6{fill:#FB6D26;}
	.st7{fill:#373535;}
	.st8{fill:#BBE6FB;}
	.st9{fill:#FFFFFF;}
	.st10{fill:#1287B1;}
	.st11{fill:#373535;fill-opacity:0.35;}
	.st12{fill:#F05A28;}
	.st13{fill:#010000;}
	.st14{fill:#A41E11;}
	.st15{fill:#D82C20;}
	.st16{fill:#7A0C00;}
	.st17{fill:#AD2115;}
	.st18{fill:#636466;}
	.st19{fill:#00758F;}
	.st20{fill:#F29111;}
	.st21{fill-rule:evenodd;clip-rule:evenodd;fill:#F29111;}
	.st22{fill-rule:evenodd;clip-rule:evenodd;fill:#00758F;}
	.st23{fill:#326690;}
	.st24{fill:#B5D118;}
	.st25{fill:#69B140;}
	.st26{fill:#599636;}
	.st27{fill:#C1BFBE;}
	.st28{fill:#76B354;}
	.st29{fill:#C1BEBE;}
	.st30{fill:#47474A;}
	.st31{fill:#FF6600;}
	.st32{fill:#343741;}
	.st33{fill:#FEC514;}
	.st34{fill:#00BFB3;}
	.st35{fill:#33383D;}
	.st36{fill:#FCFCFC;}
	.st37{fill:#2B2B2B;}
	.st38{fill:#EC2226;}
	.st39{fill:#020202;}
	.st40{fill:#FEFEFE;}
</style>
<g>
	<path class="st2" d="M81.123,43.025c0.664,1.256,0.925,2.654,1.382,3.983c0.84,2.443,1.577,4.921,2.396,7.372
		c0.545,1.629,0.303,2.695-1.09,3.721c-4.275,3.149-8.571,6.269-12.863,9.394c-2.834,2.064-5.678,4.115-8.513,6.179
		c-3.799,2.766-7.597,5.534-11.388,8.311c-0.432,0.316-0.765,0.355-1.236,0.008c-4.826-3.562-9.66-7.111-14.512-10.637
		c-3.483-2.531-7.001-5.013-10.494-7.53c-2.7-1.946-5.393-3.9-8.072-5.875c-1.086-0.801-1.321-1.953-0.942-3.164
		c0.993-3.176,2.06-6.329,3.099-9.49c0.28-0.854,0.453-1.744,0.86-2.556c0.019,0.095,0.037,0.191,0.056,0.288
		c0.605,0.769,1.214,1.535,1.815,2.308c2.527,3.256,5.045,6.518,7.579,9.769c1.68,2.155,3.389,4.288,5.069,6.443
		c1.957,2.511,3.887,5.043,5.843,7.555c2.532,3.252,5.053,6.513,7.635,9.724c0.684,0.851,1.22,1.843,2.138,2.499l0,0
		c-0.013,0.263,0.111,0.439,0.345,0.547c0.139,0.218,0.25,0.009,0.372-0.025c0.83-0.966,1.635-1.948,2.413-2.961
		c1.425-1.855,2.909-3.666,4.324-5.532c1.851-2.44,3.794-4.81,5.678-7.225c2.975-3.814,5.91-7.659,8.912-11.451
		c1.339-1.692,2.66-3.4,4.002-5.09C77.664,47.405,79.332,45.167,81.123,43.025z"/>
	<path class="st3" d="M19.807,43.03c-0.019-0.096-0.037-0.192-0.056-0.287c0.904-2.814,1.804-5.629,2.714-8.442
		c1.522-4.707,3.06-9.41,4.571-14.121c0.459-1.43,0.81-1.892,1.633-1.868c1.158,0.034,1.32,0.969,1.59,1.798
		c2.401,7.373,4.808,14.743,7.188,22.123c0.16,0.496,0.368,0.661,0.876,0.661c8.071-0.012,16.143-0.01,24.214-0.001
		c0.456,0.001,0.67-0.128,0.824-0.607c2.423-7.524,4.879-15.038,7.314-22.558c0.25-0.771,0.56-1.429,1.506-1.411
		c0.839,0.016,1.159,0.573,1.393,1.299c2.245,6.948,4.513,13.888,6.771,20.832c0.26,0.8,0.492,1.609,0.737,2.414
		c-0.299,0.185-0.632,0.175-0.966,0.174c-1.562-0.003-3.125-0.002-4.687-0.002c-3.507,0-7.016,0.064-10.52-0.04
		c-1.015-0.03-1.831-0.08-2.309,0.957c-0.297-0.015-0.661,0.071-0.837-0.222c-0.349-0.582-0.887-0.51-1.425-0.51
		c-6.968,0.002-13.936,0.001-20.904,0.002c-0.241,0-0.483,0.005-0.724,0.005c-0.301-0.001-0.434,0.155-0.435,0.448
		c-0.001,0.293,0.132,0.431,0.433,0.454c0.362,0.028,0.756-0.1,1.274,0.223c-0.693,0.13-1.203,0.225-1.714,0.321
		c-0.068-0.135-0.18-0.265-0.196-0.405c-0.129-1.17-0.886-1.256-1.867-1.25C30.738,43.052,25.273,43.031,19.807,43.03z"/>
	<path class="st4" d="M62.598,43.95c0.479-1.038,1.295-0.988,2.309-0.957c3.504,0.104,7.013,0.04,10.52,0.04
		c1.562,0,3.125-0.002,4.687,0.002c0.334,0.001,0.667,0.011,0.966-0.174c0.051,0.045,0.064,0.1,0.041,0.164
		c-1.79,2.142-3.459,4.38-5.193,6.565c-1.341,1.69-2.662,3.398-4.002,5.09c-3.002,3.792-5.937,7.638-8.912,11.451
		c-1.884,2.415-3.827,4.785-5.678,7.225c-1.415,1.866-2.899,3.677-4.324,5.532c-0.778,1.013-1.583,1.994-2.413,2.961
		c0.315-1.431,0.806-2.815,1.2-4.223c0.966-3.452,2.077-6.87,3.292-10.243c1.295-3.596,2.132-7.343,3.653-10.863
		c0.378-0.874,0.738-1.788,0.889-2.719c0.155-0.955,0.507-1.833,0.773-2.742C61.105,48.68,61.864,46.319,62.598,43.95z"/>
	<path class="st5" d="M62.598,43.95c-0.734,2.369-1.493,4.73-2.189,7.11c-0.266,0.909-0.618,1.787-0.773,2.742
		c-0.151,0.931-0.511,1.845-0.889,2.719c-1.521,3.52-2.357,7.267-3.653,10.863c-1.215,3.373-2.326,6.791-3.292,10.243
		c-0.394,1.407-0.885,2.792-1.2,4.223c-0.122,0.034-0.233,0.243-0.372,0.025c0.02-0.267,0.027-0.526-0.345-0.547c0,0,0,0,0,0
		c0.192-0.777-0.428-1.415-0.37-2.168c-0.011-0.349,0.573-0.534,0.293-0.935c-0.181-0.259-0.427,0.072-0.649,0.021
		c-0.116-0.246-0.269-0.481-0.341-0.738c-0.696-2.518-1.562-4.982-2.372-7.464c-1.705-5.224-3.397-10.452-5.101-15.676
		c-0.124-0.379-0.207-0.754-0.182-1.152c0.217-1.304-0.27-2.542-0.361-3.817c-0.015-0.212-0.105-0.346-0.343-0.282
		c-0.225,0.06-0.439-0.072-0.352-0.241c0.354-0.688-1.151-1.314-0.048-2.019c0.086-0.055,0.018-0.404-0.028-0.606
		c-0.193-0.84-0.735-1.239-1.594-1.212c-0.144-0.083-0.169-0.22-0.17-0.368c0.51-0.096,1.021-0.191,1.714-0.321
		c-0.518-0.324-0.912-0.195-1.274-0.223c-0.301-0.023-0.433-0.161-0.433-0.454c0.001-0.293,0.134-0.449,0.435-0.448
		c0.241,0,0.483-0.005,0.724-0.005c6.968,0,13.936,0.001,20.904-0.002c0.538,0,1.075-0.072,1.425,0.51
		C61.937,44.021,62.301,43.935,62.598,43.95z"/>
	<path class="st6" d="M41.163,53.215c-0.025,0.398,0.058,0.773,0.182,1.152c1.705,5.224,3.396,10.452,5.101,15.676
		c0.81,2.482,1.676,4.946,2.372,7.464c0.071,0.258,0.225,0.493,0.341,0.738c-0.013,0.356,0.078,0.672,0.356,0.914
		c-0.057,0.754,0.562,1.392,0.37,2.168c-0.917-0.656-1.454-1.648-2.138-2.499c-2.582-3.211-5.103-6.472-7.635-9.724
		c-1.956-2.512-3.887-5.044-5.843-7.555c-1.679-2.156-3.389-4.288-5.069-6.443c-2.533-3.251-5.052-6.513-7.579-9.769
		c-0.6-0.773-1.21-1.539-1.815-2.308c5.466,0.001,10.932,0.022,16.397-0.014c0.981-0.006,1.739,0.08,1.867,1.25
		c0.015,0.141,0.128,0.27,0.196,0.405c0.001,0.148,0.026,0.286,0.17,0.368c0.042,0.262,0.051,0.536,0.133,0.785
		c0.433,1.313,0.884,2.619,1.329,3.928c0,0.15,0.03,0.285,0.171,0.37c0.078,0.932,0.53,1.762,0.724,2.661
		C40.844,53.013,40.91,53.181,41.163,53.215z"/>
	<path class="st6" d="M49.885,81.328c0.372,0.021,0.364,0.28,0.345,0.547C49.996,81.767,49.871,81.591,49.885,81.328z"/>
	<path class="st3" d="M39.899,49.753c-0.445-1.309-0.896-2.615-1.329-3.928c-0.082-0.249-0.09-0.523-0.133-0.785
		c0.859-0.027,1.401,0.373,1.594,1.212c0.046,0.201,0.114,0.55,0.028,0.606c-1.102,0.704,0.403,1.331,0.048,2.019
		c-0.087,0.168,0.127,0.301,0.352,0.241c0.238-0.064,0.328,0.07,0.343,0.282c0.091,1.275,0.578,2.512,0.361,3.817
		c-0.253-0.034-0.319-0.203-0.368-0.432c-0.195-0.899-0.646-1.729-0.724-2.661C40.36,49.838,40.137,49.792,39.899,49.753z"/>
	<path class="st3" d="M49.515,79.16c-0.278-0.243-0.369-0.558-0.356-0.914c0.222,0.051,0.468-0.28,0.649-0.021
		C50.087,78.626,49.504,78.811,49.515,79.16z"/>
	<path class="st5" d="M39.899,49.753c0.238,0.039,0.461,0.086,0.171,0.37C39.929,50.038,39.899,49.902,39.899,49.753z"/>
</g>
</svg>
