<?xml version="1.0" encoding="utf-8"?>
<!-- Generator: Adobe Illustrator 22.1.0, SVG Export Plug-In . SVG Version: 6.00 Build 0)  -->
<svg version="1.1" id="Layer_1" xmlns="http://www.w3.org/2000/svg" xmlns:xlink="http://www.w3.org/1999/xlink" x="0px" y="0px"
	 viewBox="0 0 100 100" style="enable-background:new 0 0 100 100;" xml:space="preserve">
<style type="text/css">
	.st0{fill:#E7552D;}
	.st1{fill:#FFFBF8;}
	.st2{fill:#FAA227;}
	.st3{fill:#E2442B;}
	.st4{fill:#FB6D27;}
	.st5{fill:#E24329;}
	.st6{fill:#FB6D26;}
	.st7{fill:#373535;}
	.st8{fill:#BBE6FB;}
	.st9{fill:#FFFFFF;}
	.st10{fill:#1287B1;}
	.st11{fill:#373535;fill-opacity:0.35;}
	.st12{fill:#F05A28;}
	.st13{fill:#010000;}
	.st14{fill:#A41E11;}
	.st15{fill:#D82C20;}
	.st16{fill:#7A0C00;}
	.st17{fill:#AD2115;}
	.st18{fill:#636466;}
	.st19{fill:#00758F;}
	.st20{fill:#F29111;}
	.st21{fill-rule:evenodd;clip-rule:evenodd;fill:#F29111;}
	.st22{fill-rule:evenodd;clip-rule:evenodd;fill:#00758F;}
	.st23{fill:#326690;}
	.st24{fill:#B5D118;}
	.st25{fill:#69B140;}
	.st26{fill:#599636;}
	.st27{fill:#C1BFBE;}
	.st28{fill:#76B354;}
	.st29{fill:#C1BEBE;}
	.st30{fill:#47474A;}
	.st31{fill:#FF6600;}
	.st32{fill:#343741;}
	.st33{fill:#FEC514;}
	.st34{fill:#00BFB3;}
	.st35{fill:#33383D;}
	.st36{fill:#FCFCFC;}
	.st37{fill:#2B2B2B;}
	.st38{fill:#EC2226;}
	.st39{fill:#020202;}
	.st40{fill:#FEFEFE;}
</style>
<g>
	<path class="st0" d="M81.803,50.014C82.3,65.993,69.046,81.811,50.171,81.887c-16.737,0.067-31.847-13.141-31.838-31.901
		c0.009-18.766,15.133-31.955,31.866-31.872C69.075,18.206,82.315,34.037,81.803,50.014z M59.5,53.632
		c1.321-1.926,2.261-3.666,2.599-5.662c0.68-4.014-0.132-7.746-2.153-11.241c-1.14-1.971-2.065-4.023-2.275-6.319
		c-0.081-0.887-0.013-1.788-0.013-2.683c-2.98,3.542-3.042,7.896-3.848,12.037c-0.172-0.222-0.227-0.417-0.234-0.613
		c-0.127-3.491-0.91-6.819-2.283-10.04c-0.953-2.235-2.122-4.48-1.108-7.138c-1.162,0.237-1.684,0.967-2.183,1.688
		c-1.07,1.546-1.445,3.306-1.488,5.156c-0.06,2.59-0.524,5.104-1.494,7.511c-0.213,0.53-0.38,1.128-0.958,1.513
		c-1.455-7.162-1.809-7.997-3.591-8.343c0.498,2.234-0.05,4.323-0.785,6.386c-0.461,1.292-0.961,2.572-1.384,3.877
		c-0.837,2.585-1.446,5.199-0.938,7.955c0.383,2.078,1.345,3.894,2.525,5.655c-0.589,0.229-1.05,0.037-1.506-0.061
		c-2.294-0.492-4.59-0.98-6.874-1.515c-0.833-0.195-0.941,0.033-0.653,0.767c0.967,2.464,2.434,4.611,4.105,6.639
		c0.334,0.405,0.748,0.408,1.196,0.407c9.302-0.002,18.605-0.003,27.907,0.003c0.504,0,0.932-0.058,1.309-0.471
		c1.784-1.956,3.124-4.172,4.078-6.638c0.351-0.907-0.069-0.855-0.723-0.71c-1.168,0.258-2.344,0.474-3.517,0.707
		C63.411,52.854,61.612,53.212,59.5,53.632z M50.161,67.82c3.675,0,7.349,0.018,11.024-0.01c1.229-0.009,2.82,0.529,3.593-0.215
		c0.844-0.811,0.121-2.441,0.301-3.693c0.188-1.306-0.41-1.501-1.556-1.495c-8.102,0.043-16.204,0.014-24.306,0.032
		c-1.274,0.003-2.934-0.547-3.723,0.215c-0.856,0.827-0.142,2.519-0.303,3.819c-0.143,1.159,0.361,1.382,1.421,1.369
		C41.129,67.789,45.645,67.821,50.161,67.82z M50.15,70.286c-2.704,0-5.408,0.021-8.111-0.013c-0.789-0.01-1.017,0.247-0.862,1.018
		c0.377,1.873,1.347,3.351,2.856,4.491c3.361,2.541,8.366,2.649,11.855,0.247c1.631-1.123,2.732-2.606,3.168-4.582
		c0.194-0.88,0.024-1.195-0.928-1.178C55.47,70.318,52.81,70.286,50.15,70.286z"/>
	<path class="st1" d="M59.5,53.632c2.112-0.42,3.911-0.778,5.71-1.135c1.173-0.233,2.35-0.449,3.517-0.707
		c0.654-0.144,1.074-0.196,0.723,0.71c-0.954,2.466-2.294,4.683-4.078,6.638c-0.377,0.413-0.805,0.471-1.309,0.471
		c-9.302-0.006-18.605-0.005-27.907-0.003c-0.448,0-0.862-0.003-1.196-0.407c-1.671-2.028-3.138-4.174-4.105-6.639
		c-0.288-0.734-0.181-0.962,0.653-0.767c2.284,0.535,4.58,1.024,6.874,1.515c0.455,0.097,0.916,0.289,1.506,0.061
		c-1.18-1.761-2.142-3.577-2.525-5.655c-0.508-2.756,0.101-5.369,0.938-7.955c0.423-1.305,0.923-2.584,1.384-3.877
		c0.735-2.063,1.284-4.151,0.785-6.386c1.782,0.346,2.137,1.181,3.591,8.343c0.578-0.385,0.744-0.983,0.958-1.513
		c0.97-2.407,1.433-4.92,1.494-7.511c0.043-1.85,0.418-3.61,1.488-5.156c0.499-0.721,1.022-1.451,2.183-1.688
		c-1.014,2.658,0.155,4.903,1.108,7.138c1.373,3.221,2.155,6.549,2.283,10.04c0.007,0.197,0.062,0.391,0.234,0.613
		c0.806-4.141,0.868-8.495,3.848-12.037c0,0.895-0.068,1.796,0.013,2.683c0.21,2.296,1.135,4.347,2.275,6.319
		c2.021,3.495,2.833,7.226,2.153,11.241C61.761,49.965,60.821,51.706,59.5,53.632z"/>
	<path class="st1" d="M50.161,67.821c-4.516,0-9.032-0.031-13.547,0.023c-1.06,0.013-1.564-0.21-1.421-1.369
		c0.16-1.3-0.553-2.992,0.303-3.819c0.788-0.762,2.449-0.212,3.723-0.215c8.102-0.018,16.204,0.011,24.306-0.032
		c1.146-0.006,1.744,0.188,1.556,1.495c-0.181,1.252,0.542,2.882-0.301,3.693c-0.773,0.743-2.364,0.205-3.593,0.215
		C57.511,67.838,53.836,67.82,50.161,67.821z"/>
	<path class="st1" d="M50.15,70.286c2.659,0,5.32,0.031,7.978-0.017c0.951-0.017,1.121,0.298,0.928,1.178
		c-0.435,1.977-1.536,3.459-3.168,4.582c-3.489,2.402-8.494,2.294-11.855-0.247c-1.509-1.141-2.478-2.618-2.856-4.491
		c-0.155-0.77,0.073-1.027,0.862-1.018C44.742,70.307,47.446,70.286,50.15,70.286z"/>
</g>
</svg>
